<svg xmlns="http://www.w3.org/2000/svg" width="1024" height="1024" viewBox="0 0 1024 1024" version="1.1"><path d="M 152.300 112.067 C 147.790 114.283, 144.228 116.637, 144.386 117.298 C 144.543 117.959, 144.483 118.162, 144.253 117.750 C 144.022 117.338, 143.277 117, 142.597 117 C 141.070 117, 132.711 124.045, 133.410 124.743 C 133.688 125.021, 133.031 125.980, 131.951 126.874 C 130.423 128.139, 129.965 129.834, 129.888 134.500 C 129.834 137.800, 129.949 141.099, 130.145 141.830 C 130.340 142.562, 129.394 143.912, 128.043 144.830 C 126.691 145.749, 125.911 145.969, 126.309 145.319 C 126.707 144.670, 126.622 143.884, 126.119 143.574 C 125.617 143.263, 125.282 144.619, 125.374 146.587 C 125.467 148.555, 125.184 150.386, 124.746 150.657 C 124.309 150.927, 124.015 150.778, 124.094 150.324 C 124.581 147.518, 123.853 142.973, 123 143.500 C 122.450 143.840, 122 147.804, 122.001 152.309 C 122.001 167.037, 129.124 180.790, 139.887 186.845 C 141.200 187.584, 143.683 188.979, 145.405 189.946 C 150.766 192.958, 160.438 195.994, 163.026 195.479 C 165.414 195.004, 307.639 194.974, 686.500 195.370 C 793.826 195.483, 867.509 195.188, 869 194.641 C 881.494 190.052, 889.341 183.948, 893.315 175.725 C 897.677 166.699, 901.065 157.651, 901.648 153.474 C 902.708 145.881, 895.949 129.377, 888.693 121.844 C 882.367 115.277, 878.406 112.624, 869.703 109.125 C 867.650 108.299, 772.960 108.005, 513.703 108.020 L 160.500 108.039 152.300 112.067 M 141.500 119 C 141.840 119.550, 141.485 120, 140.712 120 C 139.939 120, 138.268 120.900, 137 122 C 134.416 124.241, 134.701 124.444, 138.435 123.025 C 140.078 122.400, 141.904 122.393, 143.516 123.006 L 146.032 123.963 143.828 120.981 C 141.756 118.179, 140.145 116.808, 141.500 119 M 880.250 210.689 C 881.212 210.941, 882 211.564, 882 212.073 C 882 212.583, 882.476 213, 883.058 213 C 883.639 213, 886.159 215.137, 888.657 217.750 C 892.010 221.257, 892.639 221.660, 891.060 219.290 C 888.354 215.230, 882.019 209.964, 880.022 210.116 C 878.897 210.202, 878.956 210.351, 880.250 210.689" stroke="none" fill="#e80808" fill-rule="evenodd"/><path d="M 141.500 119 C 141.840 119.550, 141.485 120, 140.712 120 C 139.939 120, 138.268 120.900, 137 122 C 134.416 124.241, 134.701 124.444, 138.435 123.025 C 140.078 122.400, 141.904 122.393, 143.516 123.006 L 146.032 123.963 143.828 120.981 C 141.756 118.179, 140.145 116.808, 141.500 119 M 129 131.417 C 129 132.196, 128.662 132.983, 128.250 133.167 C 127.076 133.688, 122.946 142.103, 123.457 142.931 C 123.709 143.338, 124.024 145.292, 124.158 147.271 C 124.471 151.928, 125.596 151.296, 125.374 146.587 C 125.282 144.619, 125.617 143.263, 126.119 143.574 C 126.622 143.884, 126.707 144.670, 126.309 145.319 C 125.911 145.969, 126.691 145.749, 128.043 144.830 C 129.394 143.912, 130.340 142.562, 130.144 141.830 C 129.949 141.099, 129.834 138.137, 129.890 135.250 C 129.945 132.363, 129.768 130, 129.495 130 C 129.223 130, 129 130.637, 129 131.417 M 897.535 135.750 C 900.830 143.448, 902.102 148.933, 901.652 153.500 C 901.333 156.738, 901.459 157.795, 902.010 156.500 C 903.228 153.633, 903.178 147.849, 901.901 143.899 C 900.344 139.082, 898.006 134, 897.346 134 C 897.038 134, 897.123 134.787, 897.535 135.750 M 898.716 163.042 C 897.784 165.414, 897.215 167.549, 897.452 167.786 C 898.061 168.395, 901.115 160.845, 900.729 159.686 C 900.553 159.160, 899.647 160.670, 898.716 163.042 M 888.250 182.758 C 885.913 185.290, 884 187.594, 884 187.877 C 884 188.733, 891.093 181.631, 892.117 179.750 C 893.488 177.233, 893.002 177.611, 888.250 182.758 M 877.709 190.768 C 875.074 192.134, 873.118 193.451, 873.362 193.696 C 873.949 194.283, 881.688 190.314, 882.491 189.014 C 882.836 188.456, 882.979 188.064, 882.809 188.142 C 882.639 188.220, 880.344 189.402, 877.709 190.768 M 251.500 195.008 C 186.793 195.382, 209.160 195.538, 336 195.598 C 430.875 195.643, 507.150 195.538, 505.500 195.365 C 499.541 194.739, 337.543 194.511, 251.500 195.008 M 599.750 195.748 C 608.138 195.915, 621.862 195.915, 630.250 195.748 C 638.638 195.581, 631.775 195.444, 615 195.444 C 598.225 195.444, 591.362 195.581, 599.750 195.748 M 659.750 195.743 C 663.737 195.932, 670.263 195.932, 674.250 195.743 C 678.237 195.553, 674.975 195.397, 667 195.397 C 659.025 195.397, 655.763 195.553, 659.750 195.743 M 705.250 195.748 C 715.013 195.912, 730.988 195.912, 740.750 195.748 C 750.513 195.585, 742.525 195.451, 723 195.451 C 703.475 195.451, 695.488 195.585, 705.250 195.748 M 777.292 195.742 C 781.027 195.935, 786.877 195.934, 790.292 195.739 C 793.706 195.545, 790.650 195.387, 783.500 195.389 C 776.350 195.390, 773.556 195.550, 777.292 195.742 M 152.500 207.075 C 149.200 208.722, 145.809 210.841, 144.965 211.785 C 144.121 212.728, 142.808 213.638, 142.047 213.806 C 139.234 214.428, 133.029 219.599, 131.314 222.750 C 130.341 224.537, 129.171 226, 128.714 226 C 128.256 226, 128.160 226.450, 128.500 227 C 128.840 227.550, 128.615 228, 128 228 C 127.385 228, 127.160 228.450, 127.500 229 C 127.840 229.550, 127.615 230, 127 230 C 126.385 230, 126.138 230.414, 126.450 230.919 C 126.763 231.425, 126.410 232.447, 125.667 233.190 C 122.835 236.022, 122 239.123, 122 246.804 C 122 254.992, 124.450 264.956, 127.696 269.969 C 129.812 273.237, 134.065 276.931, 135.433 276.689 C 136.020 276.585, 136.402 277.020, 136.282 277.655 C 136.054 278.857, 142.157 284, 143.811 284 C 144.330 284, 145.312 284.671, 145.992 285.490 C 146.789 286.450, 148.167 286.777, 149.864 286.409 C 151.617 286.030, 152.065 286.146, 151.203 286.757 C 149.543 287.933, 151.179 289.374, 155.500 290.544 C 161.123 292.067, 182.561 292.238, 396.500 292.472 C 514.200 292.601, 623.550 292.757, 639.500 292.818 C 655.450 292.880, 685.600 292.868, 706.500 292.792 C 727.400 292.717, 764.975 292.719, 790 292.797 C 845.172 292.970, 865.008 292.572, 867.564 291.241 C 868.629 290.687, 870.850 289.698, 872.500 289.044 C 881.868 285.331, 886.735 282.066, 891.308 276.428 C 893.953 273.168, 896.803 268.925, 897.642 267 C 898.481 265.075, 899.580 262.719, 900.084 261.764 C 900.588 260.809, 901 259.148, 901 258.073 C 901 256.998, 901.450 255.840, 902 255.500 C 903.869 254.345, 903.135 241.012, 900.847 234.567 C 898.478 227.888, 894.191 220.764, 892.989 221.507 C 892.567 221.768, 890.413 219.960, 888.202 217.491 C 885.992 215.021, 883.692 213, 883.091 213 C 882.491 213, 882 212.550, 882 212 C 882 211.450, 881.250 211, 880.333 211 C 879.417 211, 878.966 210.701, 879.332 210.335 C 880.235 209.432, 870.122 205.756, 867 205.853 C 865.625 205.895, 757.850 205.879, 627.500 205.817 C 497.150 205.754, 340.438 205.817, 279.250 205.956 C 198.561 206.140, 168 205.906, 168 205.105 C 168 202.807, 158.676 203.992, 152.500 207.075 M 887 310.195 C 889.501 312.371, 897 322.605, 897 323.842 C 897 324.479, 897.450 325, 898 325 C 898.550 325, 899 324.325, 899 323.500 C 899 322.675, 898.475 322, 897.833 322 C 897.192 322, 896.947 321.719, 897.290 321.377 C 897.633 321.034, 896.695 319.121, 895.207 317.127 C 891.484 312.139, 890.818 311.492, 887.979 310.103 C 885.924 309.097, 885.756 309.113, 887 310.195 M 901 338.333 C 901 341.450, 901.360 344, 901.800 344 C 902.735 344, 902.591 334.257, 901.642 333.309 C 901.289 332.956, 901 335.217, 901 338.333" stroke="none" fill="#fc5802" fill-rule="evenodd"/><path d="M 882.423 189.124 C 882.041 189.743, 878.864 191.548, 875.362 193.135 L 868.997 196.021 513.498 196.005 L 158 195.990 158 198.772 C 158 200.303, 157.266 202.602, 156.370 203.882 C 154.796 206.130, 154.811 206.172, 156.804 205.105 C 159.507 203.658, 168 203.658, 168 205.105 C 168 205.906, 198.561 206.140, 279.250 205.956 C 340.438 205.817, 497.150 205.754, 627.500 205.817 C 757.850 205.879, 865.625 205.884, 867 205.828 C 868.375 205.772, 870.285 206.060, 871.245 206.468 C 872.861 207.155, 872.880 206.999, 871.501 204.355 C 869.480 200.479, 869.532 196, 871.599 196 C 872.478 196, 874.616 195.326, 876.349 194.501 C 880.068 192.732, 885.794 188, 884.215 188 C 883.611 188, 882.805 188.506, 882.423 189.124 M 903.336 247 C 903.336 251.125, 903.513 252.813, 903.728 250.750 C 903.944 248.688, 903.944 245.313, 903.728 243.250 C 903.513 241.188, 903.336 242.875, 903.336 247 M 899.509 262.500 C 896.226 271.576, 888.866 280.889, 881.752 284.969 C 878.864 286.626, 877.210 287.985, 878.079 287.991 C 881.136 288.009, 888.996 281.780, 893.535 275.741 C 898.343 269.345, 901.331 263.387, 900.640 261.571 C 900.416 260.982, 899.907 261.400, 899.509 262.500 M 867.280 291.120 C 865.826 292.574, 847.291 292.976, 790 292.797 C 764.975 292.719, 727.400 292.717, 706.500 292.792 C 685.600 292.868, 655.450 292.880, 639.500 292.818 C 623.550 292.757, 514.200 292.601, 396.500 292.472 C 278.800 292.344, 176.988 292.072, 170.251 291.869 C 163.514 291.666, 158.002 291.675, 158.001 291.890 C 158 292.104, 158.788 292.865, 159.750 293.581 C 162.798 295.848, 160.311 298.255, 150.605 302.430 C 146.228 304.313, 132.621 314.180, 129.382 317.821 C 124.384 323.437, 122.932 327.899, 122.307 339.560 L 121.707 350.758 125.535 358.505 C 130.553 368.660, 139.186 377.409, 148.615 381.892 C 152.402 383.693, 156.400 385.976, 157.500 386.965 C 158.937 388.258, 161.892 388.943, 168 389.398 C 176.795 390.054, 773.811 390.217, 832.765 389.579 C 851.061 389.382, 866.586 388.808, 867.265 388.305 C 867.944 387.801, 872.444 385.389, 877.265 382.945 C 887.367 377.822, 889.357 376.252, 893.948 369.780 C 896.640 365.985, 897.061 364.778, 896.099 363.619 C 895.284 362.638, 895.237 361.971, 895.951 361.530 C 896.528 361.174, 897 361.610, 897 362.500 C 897 365.239, 898.575 363.323, 900.041 358.800 C 900.808 356.435, 902.009 353.375, 902.711 352 C 905.210 347.106, 903.829 329.249, 900.808 327.382 C 900.129 326.962, 899.971 327.144, 900.405 327.845 C 900.797 328.480, 900.641 329, 900.059 329 C 899.477 329, 899 328.325, 899 327.500 C 899 326.675, 899.477 326, 900.059 326 C 900.641 326, 900.852 325.570, 900.527 325.044 C 900.202 324.518, 899.203 324.369, 898.307 324.712 C 897.026 325.204, 896.799 324.875, 897.246 323.167 C 897.558 321.974, 897.482 321.202, 897.077 321.452 C 896.672 321.703, 894.578 319.566, 892.424 316.704 C 890.271 313.842, 887.831 310.936, 887.004 310.248 C 885.719 309.178, 885.791 309.088, 887.500 309.632 C 889.497 310.268, 889.497 310.267, 887.506 308.720 C 886.043 307.582, 885.316 307.480, 884.772 308.335 C 884.285 309.100, 884.025 308.910, 884.015 307.781 C 884.005 306.574, 883.479 306.250, 882.250 306.691 C 881.248 307.050, 880.849 306.937, 881.317 306.426 C 881.774 305.926, 879.393 304.203, 875.916 302.516 C 868.125 298.737, 866.905 297.003, 869.203 292.981 C 870.953 289.920, 869.696 288.704, 867.280 291.120 M 901 338.333 C 901 341.450, 901.360 344, 901.800 344 C 902.735 344, 902.591 334.257, 901.642 333.309 C 901.289 332.956, 901 335.217, 901 338.333 M 159.349 477.467 C 159.707 478.400, 160.001 479.689, 160.002 480.332 C 160.004 481.102, 162.816 481.611, 168.252 481.825 C 172.789 482.004, 329.001 482.294, 515.392 482.470 C 701.783 482.646, 855.990 483.063, 858.074 483.396 C 861.269 483.907, 861.963 483.692, 862.491 482.027 C 862.836 480.941, 864.279 479.139, 865.697 478.023 L 868.276 475.995 864.888 476.743 C 863.025 477.154, 823.250 477.427, 776.500 477.348 C 729.750 477.270, 664.725 477.200, 632 477.192 C 599.275 477.184, 562.150 477.145, 549.500 477.105 C 508.228 476.975, 182.677 477.064, 176 477.207 C 172.425 477.284, 167.070 476.993, 164.099 476.559 C 159.253 475.852, 158.765 475.945, 159.349 477.467 M 167.098 571.183 C 167.645 572.205, 167.852 573.431, 167.558 573.906 C 167.264 574.382, 168.154 574.987, 169.536 575.252 C 170.917 575.516, 172.278 575.359, 172.559 574.904 C 172.841 574.449, 174.067 574.445, 175.285 574.895 C 178.646 576.136, 807.664 576.250, 809.982 575.009 C 811.071 574.427, 812.114 574.376, 812.431 574.888 C 812.936 575.705, 818.783 575.453, 821.718 574.488 C 822.388 574.268, 823.215 574.540, 823.557 575.092 C 823.966 575.754, 824.630 575.722, 825.500 575 C 826.459 574.204, 827.008 574.204, 827.500 575 C 827.918 575.676, 828.624 575.749, 829.339 575.192 C 830.644 574.175, 850.065 574.546, 860.007 575.778 L 866.513 576.584 866.175 573.042 L 865.837 569.500 515.970 569.412 C 175.300 569.327, 166.130 569.374, 167.098 571.183 M 222.216 664.791 C 216.094 665.006, 214.110 665.397, 214.613 666.291 C 215.122 667.196, 214.986 667.216, 214.069 666.373 C 213.278 665.644, 211.607 665.525, 209.344 666.035 C 204.258 667.182, 204.327 667.663, 209.704 668.555 C 216.526 669.687, 216.390 669.694, 217.597 668.124 C 218.487 666.967, 218.847 666.944, 219.502 668.003 C 220.069 668.921, 219.920 669.069, 219 668.500 C 218.115 667.953, 217.932 668.081, 218.435 668.894 C 219.004 669.815, 219.509 669.823, 220.589 668.926 C 221.365 668.282, 222 668.090, 222 668.500 C 222 668.910, 222.761 668.627, 223.692 667.872 C 224.623 667.118, 225.092 666.987, 224.736 667.583 C 224.380 668.179, 224.723 668.667, 225.500 668.667 C 226.277 668.667, 226.680 668.292, 226.397 667.833 C 225.939 667.092, 226.726 666.829, 228.638 667.085 C 228.989 667.132, 229.698 666.570, 230.214 665.835 C 230.959 664.776, 231.059 664.810, 230.701 666 C 230.453 666.825, 229.631 667.350, 228.875 667.167 C 228.119 666.983, 227.875 667.208, 228.333 667.667 C 229.265 668.598, 310.924 668.932, 311.496 668.007 C 311.696 667.683, 310.429 667.341, 308.680 667.246 C 304.544 667.023, 302.814 666.640, 301.095 665.567 C 300.263 665.048, 299.922 665.064, 300.257 665.607 C 301.107 666.982, 279.670 666.993, 278.765 665.618 C 278.248 664.830, 278.026 664.869, 278.015 665.750 C 278.007 666.438, 277.523 667, 276.941 667 C 276.359 667, 276.220 666.438, 276.633 665.750 C 277.196 664.813, 276.983 664.825, 275.781 665.799 C 274.817 666.579, 273.942 666.714, 273.585 666.138 C 272.925 665.070, 271.148 665.152, 269.250 666.337 C 268.545 666.777, 268 666.656, 268 666.059 C 268 665.477, 267.523 665, 266.941 665 C 266.359 665, 266.203 665.520, 266.595 666.155 C 267.084 666.945, 266.866 667.033, 265.905 666.432 C 264.085 665.297, 258.045 665.118, 257.389 666.180 C 257.110 666.631, 256.432 667, 255.882 667 C 255.332 667, 255.103 666.643, 255.372 666.207 C 255.642 665.771, 253.306 665.494, 250.181 665.593 C 247.057 665.692, 244.500 665.871, 244.500 665.992 C 244.500 666.711, 236.181 666.480, 234.629 665.718 C 233.330 665.081, 232.966 665.136, 233.438 665.900 C 234.369 667.406, 232.980 667.292, 231.610 665.750 C 230.848 664.891, 227.907 664.591, 222.216 664.791 M 474.398 664.838 C 474.861 665.591, 433.541 666.386, 398.500 666.299 C 385.439 666.266, 362.907 666.798, 360 667.207 C 358.625 667.401, 356.976 667.886, 356.335 668.286 C 355.695 668.685, 354.943 668.447, 354.664 667.756 C 354.266 666.767, 354.141 666.773, 354.079 667.785 C 354.018 668.784, 353.527 668.817, 351.879 667.935 C 350.499 667.197, 349.987 667.170, 350.414 667.861 C 350.839 668.548, 349.831 668.824, 347.547 668.644 C 345.610 668.491, 343.457 668.739, 342.763 669.193 C 342.068 669.648, 349.478 669.958, 359.229 669.881 C 372.018 669.780, 376.771 669.428, 376.287 668.620 C 375.804 667.814, 376.020 667.796, 377.058 668.558 C 378.591 669.683, 379.865 669.673, 387 668.486 C 394.057 667.311, 399.992 667.178, 400.611 668.180 C 400.941 668.713, 401.731 668.638, 402.500 668 C 403.467 667.197, 404.021 667.226, 404.565 668.106 C 405.077 668.934, 404.871 669.055, 403.905 668.494 C 403.119 668.039, 402.848 668.062, 403.290 668.547 C 404.091 669.425, 423.955 669.378, 424.837 668.496 C 425.101 668.233, 426.006 668.576, 426.850 669.259 C 428.123 670.289, 428.234 670.245, 427.500 669 C 426.770 667.761, 426.880 667.714, 428.132 668.726 C 429.329 669.694, 429.926 669.694, 430.970 668.726 C 432.017 667.756, 432.146 667.761, 431.588 668.750 C 431.150 669.526, 431.496 670, 432.500 670 C 433.528 670, 433.844 669.544, 433.367 668.750 C 432.809 667.821, 432.987 667.765, 434.058 668.529 C 435.012 669.210, 452.766 669.479, 486.500 669.323 C 514.550 669.194, 598.309 669.018, 672.632 668.933 C 746.954 668.847, 811.304 668.441, 815.632 668.029 L 823.500 667.280 817.500 667.079 C 814.200 666.969, 779.550 666.690, 740.500 666.461 C 701.450 666.231, 669.050 666.022, 668.500 665.997 C 667.950 665.972, 664.708 666.111, 661.296 666.306 C 657.884 666.500, 655.277 666.361, 655.502 665.996 C 655.728 665.632, 655.277 665.333, 654.500 665.333 C 653.723 665.333, 653.320 665.708, 653.603 666.167 C 653.886 666.625, 653.390 667, 652.500 667 C 651.610 667, 651.136 666.590, 651.446 666.088 C 651.756 665.586, 651.220 665.303, 650.255 665.458 C 649.290 665.614, 648.050 665.475, 647.500 665.149 C 646.950 664.824, 645.600 664.431, 644.500 664.276 C 642.928 664.055, 642.811 664.195, 643.952 664.931 C 644.751 665.446, 645.732 665.665, 646.133 665.418 C 646.534 665.170, 647.090 665.337, 647.370 665.789 C 647.891 666.632, 611.267 666.601, 610.424 665.757 C 610.167 665.500, 613.624 665.242, 618.106 665.184 C 622.588 665.126, 626.472 664.861, 626.739 664.595 C 627.005 664.329, 615.665 664.077, 601.540 664.035 C 585.530 663.988, 576.078 664.318, 576.445 664.911 C 576.768 665.434, 576.506 666.187, 575.862 666.585 C 575.157 667.021, 574.958 666.877, 575.362 666.224 C 575.731 665.627, 575.622 664.885, 575.121 664.575 C 574.620 664.265, 573.932 664.735, 573.593 665.618 C 573.067 666.990, 572.736 667.026, 571.334 665.863 C 569.679 664.489, 569.322 664.500, 567.500 665.985 C 566.950 666.433, 550.635 666.673, 531.244 666.518 C 503.233 666.294, 495.642 665.955, 494.303 664.868 C 493.150 663.933, 492.854 663.895, 493.367 664.750 C 493.908 665.651, 493.180 666, 490.759 666 C 488.912 666, 486.794 665.438, 486.053 664.750 C 484.976 663.750, 484.848 663.750, 485.412 664.750 C 485.826 665.483, 485.556 666, 484.759 666 C 484.012 666, 482.794 665.438, 482.053 664.750 C 480.976 663.750, 480.848 663.750, 481.414 664.753 C 481.916 665.641, 481.449 665.881, 479.811 665.577 C 478.540 665.342, 477.500 665.081, 477.500 664.998 C 477.500 664.915, 476.710 664.696, 475.745 664.511 C 474.780 664.327, 474.174 664.474, 474.398 664.838 M 847 667.083 L 841.500 667.674 847.250 667.837 C 850.413 667.927, 853.326 668.034, 853.725 668.075 C 854.124 668.116, 854.586 667.741, 854.753 667.242 C 855.087 666.240, 854.894 666.236, 847 667.083 M 362.315 668.068 C 361.317 668.420, 362.651 668.710, 365.279 668.711 C 367.908 668.713, 370.237 668.425, 370.456 668.071 C 370.971 667.238, 364.675 667.236, 362.315 668.068 M 671.402 845 C 671.402 853.525, 671.556 857.013, 671.743 852.750 C 671.931 848.487, 671.931 841.513, 671.743 837.250 C 671.556 832.987, 671.402 836.475, 671.402 845 M 499.360 841 C 499.360 846.225, 499.529 848.362, 499.735 845.750 C 499.941 843.138, 499.941 838.862, 499.735 836.250 C 499.529 833.638, 499.360 835.775, 499.360 841 M 601.450 866 C 601.450 884.975, 601.584 892.737, 601.748 883.250 C 601.913 873.763, 601.913 858.237, 601.748 848.750 C 601.584 839.263, 601.450 847.025, 601.450 866 M 569.336 841 C 569.336 845.125, 569.513 846.813, 569.728 844.750 C 569.944 842.688, 569.944 839.313, 569.728 837.250 C 569.513 835.188, 569.336 836.875, 569.336 841 M 274 849.803 C 272.075 850.853, 270.050 852.594, 269.500 853.670 C 268.856 854.930, 268.678 870.736, 269 898.063 L 269.500 940.500 269.760 897.395 C 270.057 848.307, 269.515 851.137, 278.785 850.247 C 282.925 849.849, 284.069 850.170, 287.045 852.563 L 290.500 855.341 287.450 852.140 C 283.533 848.028, 278.768 847.200, 274 849.803 M 534.651 851.235 C 534.018 851.639, 540.887 851.976, 549.917 851.985 C 558.946 851.993, 566.096 851.762, 565.805 851.472 C 564.972 850.638, 535.933 850.417, 534.651 851.235 M 311 863.373 L 311 874.746 306.367 874.839 C 299.651 874.974, 299.621 876, 306.333 876 L 312 876 312 864 C 312 857.400, 311.775 852, 311.500 852 C 311.225 852, 311 857.118, 311 863.373 M 671.415 879 C 671.415 889.175, 671.564 893.337, 671.745 888.250 C 671.927 883.163, 671.927 874.837, 671.745 869.750 C 671.564 864.663, 671.415 868.825, 671.415 879 M 346.769 917 C 346.621 943.950, 346.837 966, 347.250 966 C 347.663 966, 348 943.950, 348 917 C 348 890.050, 347.783 868, 347.519 868 C 347.254 868, 346.916 890.050, 346.769 917 M 463 918.148 C 463 925.677, 462.727 932.548, 462.393 933.418 C 462.059 934.288, 462.284 935, 462.893 935 C 463.651 935, 464 930.434, 464 920.500 L 464 906 477 906 C 484.150 906, 489.998 905.663, 489.995 905.250 C 489.993 904.837, 483.918 904.491, 476.495 904.480 L 463 904.460 463 918.148 M 723.143 926.110 C 721.954 928.972, 721.183 931.517, 721.432 931.765 C 721.680 932.013, 722.602 930.496, 723.480 928.393 C 724.359 926.290, 725.619 924.236, 726.280 923.827 C 727.148 923.291, 727.180 922.780, 726.395 921.995 C 725.610 921.210, 724.702 922.358, 723.143 926.110 M 311.349 934 C 311.349 938.675, 311.522 940.587, 311.732 938.250 C 311.943 935.913, 311.943 932.087, 311.732 929.750 C 311.522 927.413, 311.349 929.325, 311.349 934 M 671.409 945.500 C 671.408 954.850, 671.558 958.810, 671.743 954.299 C 671.928 949.789, 671.929 942.139, 671.745 937.299 C 671.562 932.460, 671.410 936.150, 671.409 945.500 M 533.370 942 C 533.370 947.775, 533.535 950.138, 533.737 947.250 C 533.939 944.362, 533.939 939.638, 533.737 936.750 C 533.535 933.862, 533.370 936.225, 533.370 942 M 382.985 947.750 C 382.976 954.212, 382.544 960.175, 382.023 961 C 381.375 962.028, 378.627 962.684, 373.289 963.084 L 365.500 963.669 372.750 963.834 C 383.452 964.079, 384 963.307, 384 948 C 384 941.400, 383.775 936, 383.500 936 C 383.225 936, 382.993 941.288, 382.985 947.750 M 498.997 945.500 C 498.723 951, 498.613 955.688, 498.750 955.917 C 499.686 957.477, 500.036 953.912, 499.784 945.379 L 499.493 935.500 498.997 945.500 M 635.349 950 C 635.349 954.675, 635.522 956.587, 635.732 954.250 C 635.943 951.913, 635.943 948.087, 635.732 945.750 C 635.522 943.413, 635.349 945.325, 635.349 950 M 524.500 955 L 515.500 955.622 524.750 955.811 C 530.376 955.926, 534 955.608, 534 955 C 534 954.450, 533.888 954.085, 533.750 954.189 C 533.612 954.293, 529.450 954.658, 524.500 955 M 470.500 957 L 460.500 957.613 474 957.707 C 481.425 957.758, 488.625 957.440, 490 957 C 492.950 956.055, 485.920 956.055, 470.500 957 M 608.784 957.738 C 611.689 957.941, 616.189 957.939, 618.784 957.734 C 621.378 957.528, 619 957.363, 613.500 957.365 C 608 957.368, 605.878 957.536, 608.784 957.738 M 303.440 960.098 C 302.252 962.020, 293.676 967.008, 289.515 968.197 C 286.982 968.921, 286.146 969.492, 287.250 969.746 C 288.947 970.135, 297.960 966.183, 301 963.717 C 302.963 962.125, 305.402 959, 304.681 959 C 304.372 959, 303.813 959.494, 303.440 960.098 M 710.413 964.141 C 709.917 964.943, 706.784 965.090, 699.854 964.636 C 693.490 964.219, 690 964.346, 690 964.995 C 690 965.607, 694.297 966, 701 966 C 710.111 966, 712 965.742, 712 964.500 C 712 962.712, 711.382 962.572, 710.413 964.141" stroke="none" fill="#fcb802" fill-rule="evenodd"/><path d="M 158.684 390.381 C 158.279 391.438, 158.593 392, 159.590 392 C 160.431 392, 160.817 392.486, 160.450 393.081 C 160.071 393.694, 158.679 393.885, 157.236 393.523 C 155.768 393.155, 154.400 393.353, 154.005 393.992 C 153.628 394.602, 152.348 395.173, 151.160 395.263 C 149.972 395.352, 149 395.709, 149 396.056 C 149 396.402, 146.863 397.769, 144.250 399.093 C 139.878 401.308, 131 409.222, 131 410.903 C 131 411.299, 130.196 412.495, 129.214 413.561 C 126.352 416.669, 122.924 424.842, 122.311 430.023 C 121.579 436.205, 122.743 444.277, 124.234 443.355 C 124.924 442.929, 125.123 443.237, 124.763 444.174 C 124.446 445, 124.752 446.986, 125.443 448.588 C 129.420 457.811, 130.142 459.191, 130.701 458.632 C 131.794 457.539, 133.901 460.095, 133.267 461.747 C 132.804 462.952, 133.079 463.184, 134.378 462.685 C 135.454 462.272, 135.861 462.416, 135.459 463.066 C 134.676 464.333, 139.236 468.402, 143.957 470.646 C 152.085 474.511, 167.598 477.684, 176.500 477.301 C 181.773 477.075, 488.854 476.914, 549.500 477.105 C 562.150 477.145, 599.275 477.186, 632 477.195 C 664.725 477.205, 730.200 477.272, 777.500 477.345 C 874.980 477.495, 869.097 477.953, 881.835 469.234 C 890.142 463.547, 894.125 459.465, 897.779 452.893 C 905.734 438.585, 905.416 426.416, 896.751 413.582 C 892.058 406.631, 888.622 403, 886.737 403 C 885.045 403, 881.058 400.075, 882.691 400.032 C 883.346 400.014, 884.160 400.450, 884.500 401 C 884.840 401.550, 885.627 402, 886.250 402 C 888.571 402, 883.401 399.062, 881 399.016 C 879.014 398.979, 878.809 398.770, 880 398 C 881.133 397.268, 880.644 397.008, 878 396.936 C 876.075 396.885, 875.126 396.594, 875.891 396.291 C 876.759 395.947, 875.639 394.985, 872.914 393.736 C 869.309 392.084, 868.016 391.926, 865.522 392.837 C 862.772 393.840, 862.674 393.808, 864.427 392.480 C 865.487 391.677, 866.011 390.679, 865.592 390.260 C 865.173 389.842, 851.256 389.588, 834.665 389.695 C 753.898 390.216, 176.339 389.964, 168.403 389.404 C 160.561 388.851, 159.220 388.986, 158.684 390.381 M 837.500 392.082 C 832.274 392.589, 832.855 392.698, 842 392.931 C 847.775 393.078, 854.415 393.290, 856.754 393.403 C 859.094 393.516, 860.669 393.280, 860.254 392.877 C 859.220 391.874, 844.830 391.371, 837.500 392.082 M 160.498 482.004 C 160.096 482.653, 166.926 483, 180.108 483 C 191.232 483, 200.146 482.837, 199.917 482.638 C 198.833 481.695, 161.064 481.087, 160.498 482.004 M 469 483.003 L 231.500 483.506 476.750 483.753 C 611.638 483.889, 722 483.634, 722 483.187 C 722 482.740, 718.513 482.402, 714.250 482.437 C 709.987 482.472, 599.625 482.726, 469 483.003 M 723 482.929 C 723 483.429, 732.728 483.851, 745 483.884 C 757.100 483.915, 767 483.606, 767 483.196 C 767 482.787, 757.100 482.357, 745 482.242 C 732.529 482.123, 723 482.420, 723 482.929 M 811 483.560 C 814.275 484.275, 862.227 484.601, 860.427 483.896 C 859.367 483.480, 847.475 483.161, 834 483.186 C 820.525 483.211, 810.175 483.379, 811 483.560 M 900.646 519.218 C 901.391 522.088, 902 526.147, 902 528.238 C 902 535.538, 894.360 550.302, 887.670 555.931 C 886.080 557.269, 884.267 558.849, 883.640 559.443 C 881.457 561.511, 869.473 566.852, 865.544 567.507 C 863.368 567.871, 813.868 568.103, 755.544 568.025 C 374.343 567.509, 156.246 567.608, 161 568.292 C 167.851 569.279, 863.375 569.576, 867.500 568.594 C 873.309 567.211, 885.374 560.459, 890.408 555.773 C 893.209 553.167, 895.132 551.027, 894.682 551.018 C 894.232 551.008, 894.713 549.763, 895.751 548.250 C 896.788 546.737, 899.121 542.462, 900.935 538.750 C 903.809 532.866, 904.158 531.322, 903.657 526.719 C 903.152 522.096, 900.591 514, 899.633 514 C 899.446 514, 899.902 516.348, 900.646 519.218 M 143.845 562.996 C 146.253 565.028, 153.796 567.538, 154.719 566.614 C 155.003 566.330, 153.945 565.836, 152.368 565.516 C 150.791 565.197, 147.700 564.054, 145.500 562.976 C 141.512 561.023, 141.507 561.023, 143.845 562.996 M 172.534 574.944 C 172.239 575.422, 171.126 575.584, 170.061 575.306 C 168.996 575.027, 167.096 575.519, 165.840 576.400 C 164.346 577.446, 164.065 578.003, 165.027 578.008 C 185.114 578.119, 455.119 578.796, 466 578.763 C 474.525 578.737, 491.400 578.728, 503.500 578.742 C 515.600 578.756, 538.775 578.765, 555 578.762 C 571.225 578.758, 625.450 578.754, 675.500 578.753 C 725.550 578.751, 775.275 578.724, 786 578.691 C 850.662 578.497, 865.758 578.631, 868 579.416 L 870.500 580.291 867.981 578.255 C 866.087 576.723, 863.233 576.030, 856.481 575.462 C 843.313 574.353, 829.970 574.239, 829.357 575.232 C 829.063 575.708, 828.227 575.603, 827.500 575 C 826.570 574.228, 825.983 574.219, 825.520 574.968 C 825.158 575.553, 824.378 575.734, 823.787 575.368 C 823.196 575.003, 819.965 574.837, 816.606 575 C 801.559 575.727, 177.259 575.627, 175.285 574.896 C 174.067 574.445, 172.829 574.467, 172.534 574.944 M 871.525 580.959 C 871.147 581.571, 871.884 582, 873.315 582 C 874.757 582, 877.529 583.629, 880.123 586 C 882.530 588.200, 884.761 590, 885.081 590 C 885.400 590, 886.260 591.118, 886.991 592.483 C 887.722 593.849, 889.155 595.232, 890.175 595.555 C 891.195 595.879, 891.788 596.534, 891.493 597.011 C 891.199 597.487, 891.755 598.341, 892.729 598.908 C 893.703 599.475, 894.118 599.953, 893.651 599.970 C 893.184 599.986, 893.687 601.499, 894.768 603.331 C 896.507 606.279, 899.046 612.696, 899.582 615.500 C 900.803 621.885, 900.711 623.867, 899.025 627.481 C 898.003 629.671, 897.369 631.787, 897.614 632.184 C 897.859 632.582, 897.290 633.806, 896.349 634.905 C 895.408 636.005, 894.484 637.909, 894.297 639.136 C 893.750 642.718, 889.369 647.676, 886.188 648.312 C 884.584 648.633, 881.444 650.652, 879.209 652.799 C 871.338 660.361, 865.977 661.316, 832.500 661.115 C 804.736 660.948, 444.995 660.656, 373.500 660.742 C 342.700 660.779, 289.150 660.763, 254.500 660.707 C 219.850 660.650, 184.887 660.884, 176.805 661.226 C 160.962 661.897, 153.619 660.887, 145.971 656.985 C 139.990 653.934, 131.319 644.536, 127.851 637.345 C 124.592 630.587, 123.347 629.262, 124.473 633.748 C 125.449 637.637, 132.542 647.743, 137.770 652.693 C 141.630 656.349, 153.237 663, 155.755 663 C 156.240 663, 158.969 663.692, 161.818 664.539 C 165.776 665.714, 167 666.541, 167 668.039 C 167 670.060, 167.733 670.286, 174 670.203 C 175.925 670.177, 185.825 670.068, 196 669.959 C 212.976 669.779, 214.088 669.660, 209.500 668.521 C 204.634 667.312, 204.580 667.260, 207.500 666.556 C 209.150 666.158, 211.008 665.681, 211.628 665.495 C 212.249 665.309, 213.327 665.684, 214.025 666.328 C 214.995 667.224, 215.138 667.223, 214.633 666.324 C 214.155 665.472, 216.357 665.058, 222.617 664.824 C 228.858 664.590, 231.392 664.847, 231.737 665.750 C 231.999 666.438, 232.642 667, 233.166 667 C 233.690 667, 233.812 666.505, 233.438 665.900 C 232.966 665.136, 233.330 665.081, 234.629 665.718 C 236.181 666.480, 244.500 666.711, 244.500 665.992 C 244.500 665.871, 247.057 665.692, 250.181 665.593 C 253.306 665.494, 255.642 665.771, 255.372 666.207 C 255.103 666.643, 255.332 667, 255.882 667 C 256.432 667, 257.110 666.631, 257.389 666.180 C 258.045 665.118, 264.085 665.297, 265.905 666.432 C 266.866 667.033, 267.084 666.945, 266.595 666.155 C 266.203 665.520, 266.359 665, 266.941 665 C 267.523 665, 268 665.477, 268 666.059 C 268 666.656, 268.545 666.777, 269.250 666.337 C 271.148 665.152, 272.925 665.070, 273.585 666.138 C 273.942 666.714, 274.817 666.579, 275.781 665.799 C 276.983 664.825, 277.196 664.813, 276.633 665.750 C 276.220 666.438, 276.359 667, 276.941 667 C 277.523 667, 278.007 666.438, 278.015 665.750 C 278.026 664.869, 278.248 664.830, 278.765 665.618 C 279.670 666.993, 301.107 666.982, 300.257 665.607 C 299.922 665.064, 300.263 665.048, 301.095 665.567 C 302.814 666.640, 304.544 667.023, 308.680 667.246 C 310.429 667.341, 311.696 667.683, 311.496 668.007 C 310.924 668.932, 229.265 668.598, 228.333 667.667 C 227.875 667.208, 228.119 666.983, 228.875 667.167 C 229.631 667.350, 230.453 666.825, 230.701 666 C 231.059 664.810, 230.959 664.776, 230.214 665.835 C 229.698 666.570, 228.989 667.132, 228.638 667.085 C 226.551 666.806, 225.969 667.144, 226.633 668.250 C 227.196 669.187, 226.983 669.175, 225.781 668.201 C 224.817 667.421, 223.942 667.286, 223.585 667.862 C 222.942 668.902, 221.156 668.854, 219.389 667.749 C 218.031 666.899, 217 667.812, 217 669.867 C 217 670.834, 217.350 671.049, 217.947 670.450 C 218.523 669.873, 228.233 669.710, 242.697 670.035 C 280.273 670.880, 453.174 670.810, 456.500 669.949 C 458.231 669.500, 454.428 669.313, 447.505 669.505 C 439.381 669.731, 435.044 669.462, 434.063 668.669 C 432.939 667.761, 432.784 667.779, 433.367 668.750 C 433.844 669.544, 433.528 670, 432.500 670 C 431.472 670, 431.156 669.544, 431.633 668.750 C 432.229 667.758, 432.071 667.753, 430.868 668.726 C 429.671 669.694, 429.074 669.694, 428.030 668.726 C 426.966 667.740, 426.862 667.794, 427.500 669 C 428.077 670.092, 427.982 670.215, 427.150 669.454 C 426.496 668.855, 423.975 668.642, 421.254 668.957 C 418.639 669.259, 414.139 669.256, 411.252 668.951 C 408.366 668.645, 405.605 668.795, 405.115 669.285 C 404.596 669.804, 403.906 669.658, 403.458 668.933 C 402.931 668.080, 403.101 667.944, 404 668.500 C 404.885 669.047, 405.068 668.919, 404.565 668.106 C 404.021 667.226, 403.467 667.197, 402.500 668 C 401.731 668.638, 400.941 668.713, 400.611 668.180 C 399.992 667.178, 394.057 667.311, 387 668.486 C 379.865 669.673, 378.591 669.683, 377.058 668.558 C 376.020 667.796, 375.804 667.814, 376.287 668.620 C 376.771 669.428, 372.018 669.780, 359.229 669.881 C 349.478 669.958, 342.068 669.648, 342.763 669.193 C 343.457 668.739, 345.610 668.491, 347.547 668.644 C 349.831 668.824, 350.839 668.548, 350.414 667.861 C 349.968 667.139, 350.409 667.149, 351.799 667.892 C 353.331 668.712, 353.964 668.675, 354.340 667.742 C 354.722 666.796, 354.861 666.812, 354.921 667.809 C 354.969 668.599, 355.496 668.809, 356.250 668.339 C 356.938 667.910, 358.625 667.401, 360 667.207 C 362.907 666.798, 385.439 666.266, 398.500 666.299 C 433.541 666.386, 474.861 665.591, 474.398 664.838 C 474.174 664.474, 474.780 664.327, 475.745 664.511 C 476.710 664.696, 477.500 664.915, 477.500 664.998 C 477.500 665.081, 478.540 665.342, 479.811 665.577 C 481.449 665.881, 481.916 665.641, 481.414 664.753 C 480.848 663.750, 480.976 663.750, 482.053 664.750 C 482.794 665.438, 484.012 666, 484.759 666 C 485.556 666, 485.826 665.483, 485.412 664.750 C 484.848 663.750, 484.976 663.750, 486.053 664.750 C 486.794 665.438, 488.912 666, 490.759 666 C 493.180 666, 493.908 665.651, 493.367 664.750 C 492.854 663.895, 493.150 663.933, 494.303 664.868 C 495.642 665.955, 503.233 666.294, 531.244 666.518 C 550.635 666.673, 566.950 666.480, 567.500 666.089 C 568.736 665.209, 570.116 665.287, 571.757 666.329 C 572.533 666.822, 573.243 666.531, 573.612 665.569 C 573.941 664.712, 574.620 664.265, 575.121 664.575 C 575.622 664.885, 575.731 665.627, 575.362 666.224 C 574.958 666.877, 575.157 667.021, 575.862 666.585 C 576.506 666.187, 576.768 665.434, 576.445 664.911 C 576.078 664.318, 585.530 663.988, 601.540 664.035 C 615.665 664.077, 627.005 664.329, 626.739 664.595 C 626.472 664.861, 622.588 665.126, 618.106 665.184 C 613.624 665.242, 610.167 665.500, 610.424 665.757 C 611.267 666.601, 647.891 666.632, 647.370 665.789 C 647.090 665.337, 646.534 665.170, 646.133 665.418 C 645.732 665.665, 644.751 665.446, 643.952 664.931 C 642.811 664.195, 642.928 664.055, 644.500 664.276 C 645.600 664.431, 646.950 664.824, 647.500 665.149 C 648.050 665.475, 649.290 665.614, 650.255 665.458 C 651.220 665.303, 651.756 665.586, 651.446 666.088 C 651.136 666.590, 651.610 667, 652.500 667 C 653.390 667, 653.886 666.625, 653.603 666.167 C 653.320 665.708, 653.723 665.333, 654.500 665.333 C 655.277 665.333, 655.728 665.632, 655.502 665.996 C 655.277 666.361, 657.884 666.500, 661.296 666.306 C 664.708 666.111, 667.950 665.972, 668.500 665.997 C 669.050 666.022, 701.450 666.231, 740.500 666.461 C 779.550 666.690, 814.200 666.969, 817.500 667.079 L 823.500 667.280 815.500 668.076 C 811.100 668.515, 765.875 668.859, 715 668.842 C 561.346 668.790, 536 668.943, 536 669.922 C 536 670.429, 537.462 670.693, 539.250 670.509 C 541.038 670.324, 612.614 670.134, 698.309 670.087 C 801.905 670.029, 853.911 669.665, 853.500 669 C 853.160 668.450, 850.359 668, 847.274 668 C 840.199 668, 840.695 667.257, 848 666.913 C 851.025 666.770, 854.850 666.093, 856.500 665.408 C 858.150 664.723, 862.915 663.416, 867.090 662.502 C 872.632 661.290, 876.005 659.851, 879.590 657.171 C 882.291 655.152, 885.769 652.845, 887.320 652.043 C 891.987 649.633, 894.635 646.311, 899.161 637.189 C 903.092 629.266, 903.471 627.839, 903.463 621 C 903.456 614.526, 902.999 612.575, 900.119 606.741 C 894.125 594.598, 874.199 576.632, 871.525 580.959 M 362.315 668.068 C 361.317 668.420, 362.651 668.710, 365.279 668.711 C 367.908 668.713, 370.237 668.425, 370.456 668.071 C 370.971 667.238, 364.675 667.236, 362.315 668.068 M 483.784 669.738 C 486.689 669.941, 491.189 669.939, 493.784 669.734 C 496.378 669.528, 494 669.363, 488.500 669.365 C 483 669.368, 480.878 669.536, 483.784 669.738 M 894.510 739.719 C 892.480 742.926, 890.444 744.746, 883.513 749.546 C 878.441 753.060, 877.853 754.009, 882.148 751.750 C 887.140 749.125, 892.778 744.469, 894.917 741.205 C 896.141 739.338, 896.947 737.614, 896.707 737.374 C 896.467 737.134, 895.479 738.189, 894.510 739.719 M 339.831 759.750 C 436.263 759.891, 593.763 759.891, 689.831 759.750 C 785.899 759.609, 707 759.494, 514.500 759.494 C 322 759.494, 243.399 759.609, 339.831 759.750 M 471.750 849.745 C 476.837 849.927, 485.162 849.927, 490.250 849.745 C 495.337 849.564, 491.175 849.415, 481 849.415 C 470.825 849.415, 466.662 849.564, 471.750 849.745 M 546.287 850.740 C 549.469 850.939, 554.419 850.937, 557.287 850.736 C 560.154 850.535, 557.550 850.372, 551.500 850.374 C 545.450 850.376, 543.104 850.541, 546.287 850.740 M 268.422 877 C 268.422 888.275, 268.568 892.888, 268.746 887.250 C 268.924 881.612, 268.924 872.388, 268.746 866.750 C 268.568 861.112, 268.422 865.725, 268.422 877 M 745.075 874.304 C 744.323 876.062, 743.177 878.175, 742.526 879 C 741.194 880.689, 737.769 891.102, 738.353 891.686 C 738.561 891.894, 739.277 890.587, 739.946 888.782 C 740.614 886.977, 742.557 882.471, 744.265 878.768 C 745.972 875.065, 747.160 871.827, 746.905 871.572 C 746.650 871.316, 745.826 872.546, 745.075 874.304 M 601.389 916.500 C 601.390 923.650, 601.550 926.444, 601.742 922.708 C 601.935 918.973, 601.934 913.123, 601.739 909.708 C 601.545 906.294, 601.387 909.350, 601.389 916.500 M 462.336 926 C 462.336 930.125, 462.513 931.813, 462.728 929.750 C 462.944 927.688, 462.944 924.313, 462.728 922.250 C 462.513 920.188, 462.336 921.875, 462.336 926 M 425.374 937.500 C 425.376 943.550, 425.541 945.896, 425.740 942.713 C 425.939 939.531, 425.937 934.581, 425.736 931.713 C 425.535 928.846, 425.372 931.450, 425.374 937.500 M 498.360 945 C 498.360 950.225, 498.529 952.362, 498.735 949.750 C 498.941 947.138, 498.941 942.862, 498.735 940.250 C 498.529 937.638, 498.360 939.775, 498.360 945 M 710.919 961 C 710.530 963.320, 709.997 963.541, 703.500 964.073 L 696.500 964.647 703.128 964.823 C 710.184 965.011, 712.550 963.770, 711.751 960.298 C 711.436 958.930, 711.237 959.097, 710.919 961" stroke="none" fill="#18beb5" fill-rule="evenodd"/><path d="M 837.500 392.082 C 832.274 392.589, 832.855 392.698, 842 392.931 C 847.775 393.078, 854.415 393.290, 856.754 393.403 C 859.094 393.516, 860.669 393.280, 860.254 392.877 C 859.220 391.874, 844.830 391.371, 837.500 392.082 M 158.500 483.715 C 157.400 483.980, 155.150 484.775, 153.500 485.481 C 151.850 486.188, 148.981 487.346, 147.125 488.056 C 142.236 489.925, 129.854 502.726, 126.755 509.115 C 125.319 512.077, 123.594 517.203, 122.922 520.507 C 121.569 527.159, 122.384 536.498, 124.219 535.365 C 124.880 534.956, 125.022 535.156, 124.580 535.870 C 124.179 536.519, 125.508 540.404, 127.534 544.503 C 132.924 555.411, 140.766 561.937, 153.500 566.110 C 156.747 567.174, 203.807 567.464, 403.500 567.650 C 538.800 567.777, 697.220 567.945, 755.544 568.024 C 813.868 568.103, 863.368 567.871, 865.544 567.507 C 869.473 566.852, 881.457 561.511, 883.640 559.443 C 884.267 558.849, 886.080 557.269, 887.670 555.931 C 894.364 550.299, 902 535.537, 902 528.230 C 902 523.534, 899.250 512.621, 897.953 512.167 C 897.429 511.983, 897 511.081, 897 510.163 C 897 507.951, 890.846 500.535, 884.657 495.287 C 878.381 489.966, 871.640 486.764, 866.500 486.662 C 864.300 486.619, 862.225 486.189, 861.888 485.707 C 860.762 484.092, 797.008 482.866, 796.985 484.458 C 796.975 485.143, 796.717 485.157, 796.235 484.500 C 795.080 482.928, 792.764 482.768, 791.857 484.197 C 791.223 485.196, 791.027 485.209, 791.015 484.250 C 791.007 483.531, 789.725 483, 788 483 C 786.275 483, 784.993 483.531, 784.985 484.250 C 784.973 485.165, 784.738 485.135, 784.106 484.137 C 783.377 482.986, 783.158 482.986, 782.700 484.137 C 782.402 484.887, 782.122 485.050, 782.079 484.500 C 782.029 483.858, 773.848 483.575, 759.250 483.708 C 746.738 483.823, 736.275 483.988, 736 484.076 C 735.725 484.165, 735.143 484.177, 734.708 484.104 C 733.261 483.862, 481.763 483.933, 329.500 484.219 C 247 484.373, 188.950 484.261, 200.500 483.969 C 220.771 483.457, 220.441 483.435, 191 483.335 C 174.225 483.278, 159.600 483.449, 158.500 483.715 M 257.768 578.725 C 259.565 578.947, 262.265 578.943, 263.768 578.715 C 265.271 578.486, 263.800 578.304, 260.500 578.310 C 257.200 578.315, 255.971 578.502, 257.768 578.725 M 288.250 578.739 C 291.413 578.937, 296.587 578.937, 299.750 578.739 C 302.913 578.541, 300.325 578.378, 294 578.378 C 287.675 578.378, 285.087 578.541, 288.250 578.739 M 320.789 578.741 C 324.248 578.937, 329.648 578.936, 332.789 578.738 C 335.930 578.540, 333.100 578.380, 326.500 578.382 C 319.900 578.384, 317.330 578.546, 320.789 578.741 M 363.750 578.740 C 367.188 578.936, 372.813 578.936, 376.250 578.740 C 379.688 578.545, 376.875 578.385, 370 578.385 C 363.125 578.385, 360.313 578.545, 363.750 578.740 M 401.302 578.746 C 406.693 578.926, 415.243 578.925, 420.302 578.744 C 425.361 578.563, 420.950 578.416, 410.500 578.417 C 400.050 578.418, 395.911 578.566, 401.302 578.746 M 612.250 578.747 C 619.263 578.919, 630.737 578.919, 637.750 578.747 C 644.763 578.575, 639.025 578.435, 625 578.435 C 610.975 578.435, 605.237 578.575, 612.250 578.747 M 718.250 578.748 C 726.913 578.915, 741.087 578.915, 749.750 578.748 C 758.413 578.582, 751.325 578.445, 734 578.445 C 716.675 578.445, 709.587 578.582, 718.250 578.748 M 815.768 578.725 C 817.565 578.947, 820.265 578.943, 821.768 578.715 C 823.271 578.486, 821.800 578.304, 818.500 578.310 C 815.200 578.315, 813.971 578.502, 815.768 578.725 M 186.750 670.746 C 192.387 670.924, 201.613 670.924, 207.250 670.746 C 212.887 670.568, 208.275 670.422, 197 670.422 C 185.725 670.422, 181.113 670.568, 186.750 670.746 M 229.807 670.747 C 236.576 670.921, 247.376 670.920, 253.807 670.746 C 260.238 670.572, 254.700 670.431, 241.500 670.431 C 228.300 670.432, 223.038 670.574, 229.807 670.747 M 458.750 670.737 C 461.637 670.939, 466.363 670.939, 469.250 670.737 C 472.137 670.535, 469.775 670.370, 464 670.370 C 458.225 670.370, 455.863 670.535, 458.750 670.737 M 503.750 670.745 C 508.837 670.927, 517.163 670.927, 522.250 670.745 C 527.337 670.564, 523.175 670.415, 513 670.415 C 502.825 670.415, 498.663 670.564, 503.750 670.745 M 552.250 670.746 C 558.163 670.923, 567.837 670.923, 573.750 670.746 C 579.663 670.569, 574.825 670.425, 563 670.425 C 551.175 670.425, 546.337 670.569, 552.250 670.746 M 701.250 670.748 C 708.813 670.917, 721.188 670.917, 728.750 670.748 C 736.313 670.578, 730.125 670.439, 715 670.439 C 699.875 670.439, 693.688 670.578, 701.250 670.748 M 747.750 670.737 C 750.638 670.939, 755.362 670.939, 758.250 670.737 C 761.138 670.535, 758.775 670.370, 753 670.370 C 747.225 670.370, 744.862 670.535, 747.750 670.737 M 780.750 670.748 C 790.237 670.913, 805.763 670.913, 815.250 670.748 C 824.737 670.584, 816.975 670.450, 798 670.450 C 779.025 670.450, 771.263 670.584, 780.750 670.748 M 568.355 840.500 C 568.352 845.450, 568.521 847.601, 568.731 845.280 C 568.940 842.959, 568.943 838.909, 568.736 836.280 C 568.530 833.651, 568.358 835.550, 568.355 840.500 M 600.438 858.500 C 600.437 873.350, 600.576 879.564, 600.747 872.310 C 600.918 865.055, 600.918 852.905, 600.748 845.310 C 600.578 837.714, 600.438 843.650, 600.438 858.500 M 425.434 857.500 C 425.433 871.250, 425.574 877.014, 425.747 870.308 C 425.919 863.603, 425.920 852.353, 425.748 845.308 C 425.576 838.264, 425.434 843.750, 425.434 857.500 M 532.772 861.376 C 533.203 880.554, 533.576 881.686, 534.055 865.259 C 534.337 855.606, 534.133 849.878, 533.500 849.635 C 532.858 849.389, 532.597 853.594, 532.772 861.376 M 346.457 923 C 346.457 945.825, 346.588 955.163, 346.749 943.750 C 346.909 932.338, 346.909 913.663, 346.749 902.250 C 346.588 890.837, 346.457 900.175, 346.457 923 M 425.423 906.500 C 425.424 918.050, 425.570 922.638, 425.747 916.696 C 425.924 910.753, 425.923 901.303, 425.745 895.696 C 425.567 890.088, 425.422 894.950, 425.423 906.500 M 383.374 907.500 C 383.376 913.550, 383.541 915.896, 383.740 912.713 C 383.939 909.531, 383.937 904.581, 383.736 901.713 C 383.535 898.846, 383.372 901.450, 383.374 907.500 M 538.750 903.732 C 541.087 903.943, 544.913 903.943, 547.250 903.732 C 549.587 903.522, 547.675 903.349, 543 903.349 C 538.325 903.349, 536.413 903.522, 538.750 903.732 M 475.750 904.723 C 477.538 904.945, 480.462 904.945, 482.250 904.723 C 484.038 904.502, 482.575 904.320, 479 904.320 C 475.425 904.320, 473.962 904.502, 475.750 904.723 M 268.397 923 C 268.397 930.975, 268.553 934.237, 268.743 930.250 C 268.932 926.263, 268.932 919.737, 268.743 915.750 C 268.553 911.763, 268.397 915.025, 268.397 923" stroke="none" fill="#00847a" fill-rule="evenodd"/><path d="M 161 579.133 C 157.115 579.899, 149.835 582.397, 146.014 584.277 C 142.402 586.054, 140.110 587.890, 134.500 593.501 C 118.766 609.236, 119.775 632.679, 136.923 649.828 C 146.899 659.804, 155.092 662.145, 176.805 661.226 C 184.887 660.884, 219.850 660.650, 254.500 660.707 C 289.150 660.763, 342.700 660.779, 373.500 660.742 C 444.995 660.656, 804.736 660.948, 832.500 661.115 C 865.977 661.316, 871.338 660.361, 879.209 652.799 C 881.444 650.652, 884.584 648.633, 886.188 648.312 C 889.240 647.702, 893.722 642.783, 894.277 639.434 C 894.453 638.370, 895.235 636.375, 896.013 635 C 897.525 632.330, 897.681 631.867, 897.875 629.441 C 897.944 628.584, 898.357 628.102, 898.792 628.372 C 900.137 629.203, 900.734 621.710, 899.739 616.500 C 896.654 600.352, 882.749 584.780, 867.500 580.396 C 862.747 579.030, 857.551 578.675, 842.500 578.692 C 639.988 578.914, 368.257 578.924, 279 578.714 C 216.025 578.565, 162.925 578.754, 161 579.133" stroke="none" fill="#00b0ee" fill-rule="evenodd"/><path d="M 195.750 484.748 C 204.688 484.914, 219.313 484.914, 228.250 484.748 C 237.188 484.582, 229.875 484.447, 212 484.447 C 194.125 484.447, 186.813 484.582, 195.750 484.748 M 318 671 L 161.500 671.500 151.659 676.415 C 144.190 680.146, 140.168 682.961, 134.969 688.099 C 127.528 695.452, 126.242 697.506, 123.536 706.361 C 118.357 723.302, 129.431 744.710, 147.761 753.194 C 161.007 759.325, 134.839 758.912, 513.423 758.962 L 861.346 759.007 867.406 756.856 C 870.738 755.673, 874.935 753.871, 876.732 752.852 C 878.530 751.834, 881.688 750.059, 883.750 748.908 C 898.805 740.509, 905.184 720.511, 898.952 701.250 C 897.662 697.263, 896.245 694, 895.803 694 C 895.361 694, 895 693.516, 895 692.924 C 895 690.831, 881.946 679.209, 876.759 676.683 C 863.604 670.279, 881.046 670.784, 668.029 670.635 C 561.588 670.561, 404.075 670.725, 318 671 M 273 831.646 C 269.975 832.451, 265.850 833.542, 263.834 834.071 C 261.818 834.599, 258.612 836.588, 256.711 838.489 C 249.757 845.443, 250 843.219, 250 899.941 C 250 948.299, 250.104 951.281, 251.908 954.790 C 255.285 961.354, 261.719 966.262, 269.643 968.317 C 274.928 969.688, 276.559 969.722, 284.784 968.626 C 294.839 967.287, 305.428 959.307, 307.734 951.332 C 310.512 941.723, 311 938.780, 311 931.634 L 311 924 301.619 924 L 292.239 924 291.818 933.624 C 291.397 943.232, 291.390 943.254, 287.713 946.624 C 283.406 950.571, 280.197 950.903, 275.344 947.903 C 271.739 945.675, 269.622 942.392, 268.637 937.500 C 267.736 933.025, 267.471 856.852, 268.348 854.300 C 269.638 850.543, 275.452 847.678, 280.607 848.259 C 288.733 849.175, 292 854.584, 292 867.122 L 292 875 296.250 874.991 C 298.587 874.987, 302.899 874.695, 305.830 874.343 L 311.161 873.702 310.816 862.101 C 310.343 846.211, 307.865 841.068, 297.121 833.677 C 292.223 830.308, 291.220 830.008, 285.138 830.091 C 281.487 830.141, 276.025 830.841, 273 831.646 M 406 859.382 C 406 875.582, 405.727 889.548, 405.393 890.418 C 404.390 893.031, 403.390 892.234, 402.044 887.750 C 401.342 885.413, 400.422 882.375, 400 881 C 399.578 879.625, 398.669 876.475, 397.982 874 C 397.295 871.525, 395.953 867.025, 395 864 C 394.047 860.975, 392.683 856.475, 391.967 854 C 391.252 851.525, 389.616 846.271, 388.333 842.324 C 387.050 838.377, 386 834.439, 386 833.574 C 386 832.247, 384.430 832, 376 832 L 366 832 366 897 L 366 962 373.531 962 C 378.645 962, 381.210 961.599, 381.523 960.750 C 382.146 959.055, 382.828 933.930, 382.922 909.167 C 383.010 886.161, 383.943 883.934, 387.574 898.068 C 390.469 909.337, 404.517 951.063, 406.780 955.114 C 409.405 959.813, 410.824 960.359, 418.326 959.556 L 425 958.841 425.150 895.920 C 425.233 861.314, 425.345 832.438, 425.400 831.750 C 425.472 830.846, 422.798 830.421, 415.750 830.214 L 406 829.928 406 859.382 M 518 832 C 516.044 833.956, 516 835.333, 516 894.540 L 516 955.081 524.250 954.790 L 532.500 954.500 532.767 928.726 L 533.034 902.952 544.459 903.071 C 550.742 903.136, 556.278 902.947, 556.759 902.649 C 557.241 902.351, 557.736 897.584, 557.860 892.054 L 558.086 882 546.012 882 C 537.250 882, 533.818 881.657, 533.504 880.750 C 533.266 880.063, 532.942 872.750, 532.785 864.500 L 532.500 849.500 550.250 849.794 L 568 850.087 568 840.651 C 568 832.968, 567.706 831.101, 566.418 830.607 C 565.548 830.273, 554.748 830, 542.418 830 C 521.333 830, 519.881 830.119, 518 832 M 654 832 C 652.042 833.958, 652 835.333, 652 896.883 L 652 959.767 654.250 960.387 C 655.487 960.728, 659.763 961.297, 663.750 961.650 L 671 962.293 671 896.147 L 671 830 663.500 830 C 657.333 830, 655.644 830.356, 654 832 M 328 899 L 328 966 331.750 965.991 C 333.813 965.987, 337.863 965.699, 340.750 965.352 L 346 964.721 346 898.361 L 346 832 337 832 L 328 832 328 899 M 445.579 885.250 C 445.311 914.538, 444.814 942.934, 444.475 948.354 L 443.858 958.207 448.679 957.642 C 451.331 957.331, 459.800 956.823, 467.500 956.514 C 475.200 956.205, 485.212 955.685, 489.750 955.358 L 498 954.763 498 945.382 L 498 936 479.975 936 L 461.950 936 462.225 919.810 L 462.500 903.619 473 903.917 C 478.775 904.081, 484.625 904.279, 486 904.357 C 488.496 904.500, 488.500 904.484, 488.785 894.250 L 489.070 884 475.535 884 C 465.425 884, 461.975 883.684, 461.903 882.750 C 461.850 882.063, 461.649 874.188, 461.458 865.250 L 461.109 849 480.055 849 L 499 849 499 840.500 L 499 832 472.533 832 L 446.067 832 445.579 885.250 M 584 893.355 L 584 954.709 597.750 955.401 C 605.313 955.782, 615.550 956.354, 620.500 956.672 C 625.450 956.990, 630.625 957.306, 632 957.375 C 634.484 957.499, 634.502 957.439, 634.785 947.847 L 635.070 938.193 621.285 937.739 C 613.703 937.489, 605.925 936.778, 604 936.161 L 600.500 935.037 600.353 909.769 C 600.272 895.871, 600.160 872.688, 600.103 858.250 L 600 832 592 832 L 584 832 584 893.355 M 693.684 833.381 C 693.392 834.141, 693.775 836.503, 694.533 838.631 C 695.292 840.759, 695.932 843.434, 695.956 844.575 C 695.999 846.621, 700.104 859.609, 701.937 863.500 C 702.455 864.600, 703.907 868.425, 705.163 872 C 706.420 875.575, 708.921 881.425, 710.721 885 C 712.521 888.575, 713.995 892.272, 713.997 893.215 C 714.002 895.908, 711.175 903.855, 707.493 911.500 C 703.085 920.654, 697.059 938.924, 695.949 946.500 C 695.466 949.800, 694.155 954.391, 693.035 956.702 C 689.575 963.846, 689.733 964, 700.531 964 C 707.305 964, 710.163 963.638, 710.409 962.750 C 711.864 957.492, 715.491 946.312, 716.006 945.500 C 716.354 944.950, 717.215 942.475, 717.917 940 C 718.620 937.525, 719.601 934.719, 720.097 933.764 C 720.594 932.809, 721 931.431, 721 930.701 C 721 928.841, 724.886 921, 725.808 921 C 727.442 921, 730.167 927.409, 735.963 944.890 C 739.284 954.902, 742 963.671, 742 964.375 C 742 966.661, 754.486 968.781, 759.704 967.382 C 761.562 966.884, 761.816 966.297, 761.322 963.645 C 760.999 961.915, 760.345 960.072, 759.868 959.550 C 759.390 959.027, 759 957.334, 759 955.786 C 759 954.239, 758.587 952.191, 758.083 951.236 C 756.973 949.134, 752.350 932.853, 750.446 924.342 C 749.689 920.955, 748.242 916.680, 747.232 914.842 C 746.221 913.004, 744.563 909.250, 743.548 906.500 C 741.708 901.513, 738.494 896.114, 736.594 894.815 C 735.654 894.172, 736.146 892.603, 739.117 886.764 C 739.603 885.809, 740 884.211, 740 883.214 C 740 882.216, 740.407 880.972, 740.904 880.450 C 742.459 878.817, 749.121 865.694, 750.525 861.500 C 752.264 856.303, 758 834.505, 758 833.090 C 758 832.407, 755.387 832, 751 832 C 743.331 832, 740.666 833.498, 739.406 838.520 C 738 844.120, 727.929 861.855, 725.987 862.150 C 723.284 862.561, 722.496 862.416, 722.451 861.500 C 722.385 860.168, 721.275 856.620, 718.932 850.250 C 714.017 836.893, 712.616 833.865, 710.936 832.966 C 708.026 831.408, 694.314 831.739, 693.684 833.381" stroke="none" fill="#042ca2" fill-rule="evenodd"/></svg>