<?xml version="1.0" standalone="no"?>
<!DOCTYPE svg PUBLIC "-//W3C//DTD SVG 20010904//EN"
 "http://www.w3.org/TR/2001/REC-SVG-20010904/DTD/svg10.dtd">
<svg version="1.0" xmlns="http://www.w3.org/2000/svg"
 width="1024.000000pt" height="1024.000000pt" viewBox="0 0 1024.000000 1024.000000"
 preserveAspectRatio="xMidYMid meet">

<g transform="translate(0.000000,1024.000000) scale(0.100000,-0.100000)"
fill="#000000" stroke="none">
<path d="M1495 9105 c-60 -31 -117 -61 -126 -68 -25 -19 -86 -114 -120 -185
-30 -61 -31 -69 -27 -161 4 -83 8 -105 37 -164 18 -37 49 -83 68 -102 42 -42
125 -92 203 -123 l55 -21 3547 -1 3547 0 73 34 c106 49 148 90 197 191 60 125
85 222 71 277 -41 158 -167 308 -301 359 -48 18 -163 19 -3582 19 l-3532 0
-110 -55z"/>
<path d="M1515 8164 c-57 -29 -75 -43 -75 -55 0 -11 50 18 68 40 8 10 12 11
12 3 0 -8 13 -6 39 7 21 11 41 17 45 14 3 -4 6 -1 6 5 0 20 -42 13 -95 -14z"/>
<path d="M1620 8176 c0 -7 8 -14 18 -15 9 -1 249 -3 532 -4 352 0 517 -4 522
-11 5 -7 8 -7 8 1 0 10 41 13 173 12 94 0 273 0 397 0 377 -1 405 -2 412 -13
5 -8 8 -7 8 2 0 6 9 12 20 12 11 0 20 -6 20 -12 0 -9 4 -8 10 2 5 8 10 10 10
4 0 -6 -7 -17 -15 -24 -10 -8 -12 -17 -6 -24 5 -6 10 -14 10 -18 1 -5 3 -8 6
-8 3 0 7 0 10 0 3 0 1 9 -4 19 -8 14 -7 22 7 32 15 12 15 12 5 -1 -7 -9 -8
-21 -4 -29 6 -9 11 -10 15 -2 4 6 4 11 0 11 -3 0 -1 6 5 14 10 11 8 16 -5 24
-14 8 -5 10 36 10 30 1 61 -4 69 -11 12 -9 13 -9 7 1 -4 7 -1 12 8 12 19 0 21
-14 3 -29 -10 -8 -17 -7 -25 1 -7 7 -12 8 -12 3 0 -6 -5 -3 -10 5 -8 13 -11
13 -22 1 -11 -11 -11 -13 1 -6 10 6 12 4 6 -5 -5 -9 -4 -11 4 -6 7 5 10 2 9
-6 -2 -7 3 -12 11 -10 8 2 11 -3 8 -13 -4 -8 -2 -15 3 -15 6 0 10 8 11 18 0
14 2 14 9 -3 7 -17 9 -17 9 -2 1 9 5 17 11 17 5 0 7 -6 5 -12 -3 -7 4 -24 15
-38 11 -14 18 -18 14 -9 -3 10 0 20 7 25 9 5 11 2 6 -8 -8 -22 3 -30 21 -15
13 10 14 9 7 -2 -5 -9 -4 -12 2 -8 6 4 16 0 23 -9 11 -12 15 -12 21 -2 7 10 9
10 9 -2 0 -13 1 -13 11 0 8 11 9 9 3 -10 -6 -22 -5 -23 9 -11 9 7 14 18 10 24
-3 6 -1 7 6 3 6 -4 8 -12 5 -18 -5 -7 -2 -8 6 -3 9 5 11 4 6 -3 -4 -6 0 -24 8
-39 8 -16 15 -24 16 -20 0 5 -5 18 -11 29 -8 15 -8 23 2 32 6 6 9 7 6 1 -3 -5
1 -23 8 -40 7 -16 14 -23 14 -15 1 13 2 13 11 0 5 -8 10 -10 10 -4 0 6 7 11
15 11 8 0 11 -5 8 -11 -4 -6 2 -4 12 4 10 8 16 10 12 4 -3 -6 0 -11 8 -11 8 0
12 3 10 7 -3 4 5 7 18 6 12 0 22 5 23 12 1 6 2 19 3 27 0 8 5 15 11 15 5 0 6
-8 3 -17 -6 -16 -5 -16 11 -4 17 14 17 15 0 28 -10 7 -22 13 -27 13 -5 0 -4 6
2 13 8 10 7 14 -3 14 -13 0 -16 -20 -4 -32 9 -9 -3 -46 -13 -40 -4 3 -5 13 -2
22 5 12 2 15 -10 10 -10 -4 -17 -1 -17 6 0 9 -3 8 -9 -1 -11 -17 -21 -17 -32
0 -7 10 -9 10 -9 0 0 -7 -4 -11 -10 -7 -5 3 -7 13 -4 23 5 14 4 15 -5 2 -10
-15 -12 -13 -15 12 0 7 -13 13 -29 13 -15 1 -25 0 -22 -3 3 -3 0 -11 -6 -19
-8 -9 -15 -10 -24 -3 -9 8 -15 8 -20 0 -3 -5 -11 -10 -17 -10 -6 0 -3 9 7 20
15 16 21 18 34 8 9 -7 13 -8 9 -4 -4 5 -4 14 2 21 6 8 2 11 -15 11 -13 0 -23
-2 -22 -5 1 -4 -2 -6 -8 -6 -5 0 -9 4 -7 8 1 5 -2 6 -8 2 -8 -5 -8 -11 0 -20
8 -9 8 -15 0 -20 -5 -3 -10 -1 -10 5 0 7 -6 10 -14 7 -8 -3 -17 1 -20 9 -10
25 -7 27 12 13 16 -13 16 -12 3 4 -13 17 -16 17 -26 4 -10 -14 -12 -13 -22 2
-7 10 -9 22 -5 27 4 5 3 6 -2 2 -18 -15 -26 -8 -14 11 11 17 24 19 152 17 148
-2 218 5 181 16 -11 4 -589 7 -1285 7 -696 -1 -1282 1 -1302 4 -26 3 -38 1
-38 -7z m2254 -54 c3 -5 -1 -9 -9 -9 -8 0 -12 4 -9 9 3 4 7 8 9 8 2 0 6 -4 9
-8z m60 -38 c3 -8 2 -12 -4 -9 -6 3 -10 10 -10 16 0 14 7 11 14 -7z m190 -26
c-3 -5 -10 -5 -16 -2 -7 4 -8 2 -4 -5 4 -6 11 -9 15 -6 5 2 16 -4 25 -14 10
-11 25 -18 34 -17 15 3 41 -19 42 -34 0 -4 -11 -6 -25 -6 -14 0 -25 5 -25 11
0 5 -5 3 -11 -5 -9 -12 -10 -11 -6 7 3 13 1 26 -4 29 -5 3 -9 2 -8 -3 1 -4 1
-17 -1 -28 l-1 -20 -8 20 c-5 11 -6 26 -3 34 4 10 1 13 -11 8 -20 -7 -41 15
-26 30 12 12 40 13 33 1z m111 -46 c-3 -3 3 -14 12 -24 14 -15 14 -19 3 -16
-15 3 -39 27 -40 39 0 3 7 6 15 6 8 0 13 -3 10 -5z"/>
<path d="M4170 8006 c0 -2 8 -10 18 -17 15 -13 16 -12 3 4 -13 16 -21 21 -21
13z"/>
<path d="M4277 8168 c-15 -10 -17 -10 75 -14 45 -2 79 0 83 6 7 12 8 12 -78
14 -37 1 -73 -2 -80 -6z"/>
<path d="M4540 8170 c-60 -9 -10 -17 103 -14 59 1 110 -2 113 -7 3 -5 11 -6
17 -2 12 7 140 10 535 12 160 1 196 -1 208 -14 19 -19 31 -20 15 -2 -9 11 14
14 125 15 101 2 134 -1 128 -9 -5 -8 -3 -9 6 -4 16 10 389 17 404 7 21 -13 34
-10 29 8 -4 17 -49 17 -826 17 -452 -1 -838 -4 -857 -7z"/>
<path d="M6259 8169 c-8 -5 -9 -9 -4 -10 41 -6 72 -4 84 5 11 8 13 8 8 -1 -5
-8 18 -11 90 -8 54 2 111 6 127 9 23 6 27 4 23 -8 -4 -9 -2 -18 4 -21 5 -4 9
-3 8 2 -3 20 2 30 16 30 17 0 20 -13 5 -22 -5 -3 -10 -12 -10 -18 0 -7 4 -6
10 3 9 13 10 13 10 0 0 -9 3 -11 8 -5 7 10 23 16 55 18 9 1 16 6 13 12 -2 7 2
12 10 12 8 0 13 -6 10 -13 -3 -8 -1 -16 5 -19 5 -4 6 -12 2 -18 -3 -7 3 -4 14
6 11 9 25 17 32 17 7 0 9 5 5 13 -6 9 -4 9 8 -1 13 -10 18 -10 24 -1 5 8 3 9
-6 4 -8 -5 -11 -4 -7 2 5 7 20 8 42 3 20 -5 38 -4 41 2 4 5 10 5 17 -1 7 -5
60 -8 120 -7 65 0 107 -3 107 -9 0 -5 5 -3 10 5 9 13 10 13 10 0 0 -13 1 -13
10 0 6 10 10 11 10 3 0 -10 20 -13 73 -11 l72 2 -70 6 -70 6 95 1 c61 1 86 -2
70 -7 -24 -8 -23 -8 8 -9 17 -1 32 -6 32 -12 0 -5 -5 -7 -12 -3 -7 4 -8 3 -4
-4 4 -7 2 -12 -3 -12 -6 0 -11 4 -11 8 0 5 -50 8 -112 6 -65 -2 -117 1 -124 7
-20 16 -28 -10 -10 -30 19 -21 21 -35 4 -25 -9 5 -9 2 1 -9 7 -9 10 -17 6 -17
-5 0 0 -9 9 -19 12 -13 14 -21 6 -26 -6 -3 -9 -1 -8 5 2 7 -4 14 -13 15 -9 2
-26 6 -38 10 -19 6 -20 9 -9 23 7 10 8 14 4 10 -5 -4 -16 -2 -25 5 -14 10 -14
10 -3 -5 9 -11 10 -18 2 -23 -5 -3 -10 0 -10 7 0 8 -4 7 -11 -4 -5 -9 -16 -15
-24 -12 -8 4 -12 11 -8 17 3 5 1 7 -5 4 -5 -4 -9 -15 -7 -25 2 -9 4 -21 4 -25
1 -5 6 -5 12 -1 8 4 7 9 -2 15 -10 6 -5 8 14 5 15 -3 25 -1 22 4 -7 12 20 6
37 -8 8 -6 19 -8 24 -4 4 4 3 0 -4 -9 -6 -9 -8 -20 -4 -24 4 -5 1 -5 -6 -1 -7
4 -10 11 -7 16 3 4 -1 13 -9 19 -10 8 -16 8 -25 -3 -8 -9 -8 -16 -2 -20 6 -4
7 -14 4 -24 -6 -14 -4 -15 9 -4 12 9 18 10 23 2 5 -8 11 -8 21 1 7 6 12 15 9
19 -3 5 -1 11 4 14 4 3 8 -2 7 -12 0 -9 4 -18 9 -19 6 0 9 3 7 9 -1 5 2 6 8 3
8 -5 6 -13 -6 -26 -18 -20 -26 -24 -21 -11 1 4 -2 7 -8 7 -5 0 -9 -4 -7 -10 2
-5 -6 -1 -17 9 -20 18 -25 15 -22 -9 1 -5 -8 1 -19 14 -15 17 -20 19 -20 8 0
-9 5 -19 10 -22 8 -5 8 -11 1 -19 -7 -9 -7 -17 2 -26 10 -12 9 -12 -6 -1 -12
10 -14 17 -7 26 14 17 0 27 -18 12 -10 -8 -13 -8 -9 -1 4 7 0 15 -9 18 -25 10
-27 7 -13 -11 13 -17 12 -17 -4 -4 -17 14 -18 16 -2 27 9 7 12 15 7 18 -12 7
-44 -28 -35 -39 5 -4 2 -5 -5 -1 -7 5 -11 10 -8 13 3 3 1 15 -5 27 -9 19 -9
19 4 4 8 -10 17 -15 20 -11 9 8 -12 33 -28 33 -15 0 -28 -27 -16 -32 4 -2 -1
-12 -13 -23 -12 -11 -20 -18 -19 -16 4 7 -19 31 -29 31 -6 0 -5 -7 2 -15 10
-13 11 -18 1 -28 -10 -9 -11 -8 -5 8 4 11 4 17 -1 13 -4 -4 -14 -3 -22 3 -15
13 -18 -2 -3 -17 7 -7 6 -11 -3 -11 -18 0 -18 28 0 49 10 11 11 18 3 23 -5 3
-8 11 -5 16 4 5 1 9 -6 9 -8 0 -6 7 5 19 15 17 15 19 -1 32 -16 12 -17 12 -6
-2 10 -12 10 -18 1 -27 -17 -17 -33 -15 -19 2 9 11 9 16 0 22 -7 4 -9 3 -5 -4
3 -6 2 -13 -4 -17 -5 -3 -10 0 -10 7 0 10 -3 9 -9 -2 -6 -8 -7 -18 -4 -23 3
-5 -4 -4 -16 2 -20 11 -25 8 -22 -12 1 -5 -3 -6 -9 -2 -6 4 -4 15 6 30 9 14
21 22 27 18 6 -3 7 -1 3 6 -6 8 -12 9 -20 2 -9 -7 -16 -7 -24 1 -9 9 -11 6 -7
-10 2 -12 -1 -22 -6 -22 -6 0 -7 -5 -3 -12 5 -7 3 -8 -5 -4 -7 5 -10 14 -7 22
3 7 0 16 -6 20 -6 4 -8 3 -4 -4 3 -6 2 -14 -4 -17 -8 -5 -7 -12 2 -23 12 -16
11 -16 -7 -1 -11 8 -36 15 -55 14 -29 0 -35 -4 -33 -20 1 -11 0 -14 -3 -7 -3
6 -11 9 -16 6 -6 -4 -8 -2 -4 4 3 6 1 14 -5 18 -15 9 -41 -25 -32 -40 4 -6 -1
-5 -10 3 -16 13 -22 8 -18 -13 1 -5 -4 -4 -12 2 -8 7 -17 9 -21 5 -4 -4 -4 0
-1 9 7 17 -9 19 -33 4 -7 -4 -11 -4 -10 1 2 4 -1 8 -7 8 -5 0 -9 -4 -7 -10 2
-5 -2 -4 -9 2 -10 10 -17 9 -33 -5 -21 -17 -21 -17 -2 6 11 12 15 22 11 22 -5
0 -20 -10 -34 -22 l-26 -23 19 23 c11 12 16 22 12 22 -4 0 -2 9 4 20 6 11 16
18 22 14 7 -4 6 -9 -3 -15 -8 -5 -9 -9 -4 -10 43 -5 64 -5 60 -1 -3 3 1 12 8
21 11 14 10 15 -7 1 -23 -18 -19 -18 -39 -1 -9 7 -14 18 -10 25 4 7 1 6 -9 -1
-8 -7 -18 -11 -21 -8 -4 3 -5 2 -2 -1 5 -8 -21 -60 -35 -69 -6 -4 -10 -3 -9 2
3 19 -2 33 -12 33 -5 0 -8 -4 -5 -9 3 -5 -1 -15 -10 -22 -12 -10 -15 -10 -12
1 2 10 -7 14 -27 14 -24 1 -30 -3 -29 -20 1 -21 -17 -27 -33 -10 -4 4 -1 6 7
4 16 -3 21 23 5 34 -17 12 -28 9 -17 -5 8 -10 6 -13 -10 -14 -12 -1 -25 -8
-29 -15 -7 -11 -9 -11 -9 0 0 7 -5 10 -10 7 -6 -4 -7 -11 -4 -17 5 -7 2 -8 -7
-2 -20 12 -38 14 -45 2 -3 -5 -14 -2 -25 8 -18 17 -27 8 -11 -11 4 -6 5 -9 3
-8 -2 2 -11 -3 -20 -9 -13 -10 -14 -10 -4 1 13 15 6 44 -8 35 -5 -3 -7 -9 -4
-14 6 -10 -15 -8 -34 4 -11 7 -13 5 -8 -7 3 -9 1 -19 -6 -23 -7 -4 -9 -4 -5 1
4 4 3 14 -4 22 -9 11 -14 11 -30 -4 -13 -12 -18 -13 -16 -4 2 7 -5 15 -14 16
-18 3 -25 -9 -10 -18 4 -2 2 -3 -5 -1 -6 1 -14 0 -17 -3 -3 -3 -45 -6 -93 -7
-49 -1 -95 -5 -103 -10 -10 -6 -9 -3 3 11 16 18 16 21 2 27 -9 3 -13 11 -9 17
4 8 3 9 -5 5 -6 -4 -9 -12 -6 -17 4 -5 2 -9 -3 -9 -16 0 -22 13 -11 26 7 8 7
14 -1 19 -6 3 -8 10 -6 14 3 4 -5 8 -16 8 -11 1 -27 10 -35 20 -13 17 -13 17
-4 -3 6 -12 8 -24 5 -27 -3 -3 3 -3 13 -1 11 3 25 -1 31 -9 10 -11 9 -17 -5
-28 -15 -12 -16 -12 -10 3 3 10 2 20 -4 23 -5 4 -9 3 -8 -2 3 -19 -2 -33 -12
-33 -5 0 -7 6 -3 13 5 8 2 8 -9 -2 -9 -7 -17 -19 -16 -25 0 -6 3 -6 6 2 4 10
8 10 19 1 11 -9 14 -8 14 2 0 11 2 11 10 -1 9 -13 10 -13 10 0 0 13 2 13 9 1
5 -8 16 -11 26 -8 9 4 14 3 11 -2 -9 -13 -45 -20 -52 -9 -3 5 -15 2 -27 -9
-19 -16 -20 -16 -8 0 8 10 9 17 3 17 -6 0 -14 -5 -17 -10 -5 -8 -11 -8 -20 0
-8 7 -15 7 -19 1 -4 -5 -18 -8 -32 -5 -14 3 -32 -1 -40 -7 -12 -10 -13 -9 -8
5 4 11 15 16 33 14 21 -2 26 1 27 19 1 12 -2 20 -7 17 -4 -2 -6 -11 -2 -20 4
-12 1 -13 -21 -4 -16 6 -26 6 -26 0 0 -5 -7 -7 -15 -4 -8 4 -15 1 -15 -6 0 -6
5 -8 13 -4 9 6 9 5 0 -8 -7 -8 -9 -19 -5 -23 4 -5 2 -5 -4 -2 -14 8 -47 -26
-37 -38 5 -4 2 -5 -5 -1 -11 6 -10 12 3 26 15 17 15 19 -2 29 -15 10 -16 11
-1 9 9 -2 17 2 18 7 3 16 22 35 30 30 5 -3 11 -1 14 4 8 13 -19 8 -36 -7 -8
-6 -19 -8 -23 -4 -5 4 -5 2 -2 -4 11 -19 -20 -24 -35 -7 -7 9 -12 26 -11 37 1
16 0 16 -3 3 -3 -9 -10 -15 -15 -11 -6 3 -16 0 -24 -6 -18 -15 -20 1 -3 18 7
7 8 12 4 12 -5 0 -3 6 3 13 8 10 7 14 -4 14 -7 0 -13 -5 -12 -11 1 -6 -4 -10
-12 -8 -11 2 -12 0 -3 -10 6 -8 7 -19 3 -27 -8 -12 -9 -10 -20 34 -2 6 -7 16
-13 23 -6 6 -6 12 -1 12 5 0 15 -6 23 -12 12 -11 12 -10 2 3 -8 10 -8 19 -1
26 6 6 5 10 -5 10 -8 0 -13 -4 -11 -8 3 -4 -2 -10 -11 -13 -13 -5 -14 -9 -5
-20 8 -10 9 -16 1 -21 -5 -3 -10 0 -10 7 0 10 -2 10 -9 0 -4 -8 -12 -14 -16
-14 -4 0 -12 6 -16 14 -7 10 -9 10 -9 -2 0 -13 -1 -13 -10 0 -9 13 -10 13 -10
0 0 -13 -1 -13 -10 0 -6 10 -10 11 -10 3 0 -7 -4 -13 -10 -13 -5 0 -9 3 -9 8
3 20 -2 36 -9 27 -12 -17 -37 -11 -44 10 -6 17 -7 17 -6 -5 1 -40 -2 -46 -12
-30 -6 10 -10 11 -10 3 0 -7 -5 -13 -11 -13 -5 0 -7 6 -3 13 4 6 3 8 -1 4 -16
-14 -14 -36 3 -30 9 4 13 2 9 -4 -4 -6 -16 -13 -27 -16 -17 -4 -19 -1 -16 20
6 32 26 55 42 49 13 -5 13 19 -1 31 -4 4 -5 3 -2 -3 6 -11 -19 -29 -35 -26 -5
1 -9 -7 -9 -18 -3 -39 -13 -60 -31 -60 -7 0 -6 6 2 15 7 8 9 15 5 15 -4 0 -2
7 5 15 10 12 10 18 0 30 -7 8 -16 13 -20 10 -5 -3 -12 -1 -15 5 -5 8 6 10 34
6 22 -2 43 0 47 5 3 5 0 8 -8 7 -7 -2 -12 2 -11 8 1 6 -5 11 -12 11 -12 0 -12
-3 -2 -16 10 -12 9 -14 -6 -8 -10 4 -25 7 -33 7 -9 0 -13 4 -10 8 3 5 -1 9 -9
9 -11 0 -12 -4 -4 -13 7 -8 7 -14 -1 -19 -5 -3 -10 -1 -10 6 0 7 -7 4 -16 -7
-13 -16 -15 -16 -10 -2 3 10 2 19 -2 22 -18 11 -9 -35 9 -48 15 -10 17 -15 7
-20 -7 -3 -3 -3 10 0 13 3 22 1 22 -6 0 -6 -4 -9 -9 -6 -11 7 -23 -22 -14 -36
4 -7 1 -8 -7 -3 -9 5 -11 4 -6 -4 4 -6 11 -9 16 -6 19 12 19 -30 0 -50 -15
-16 -18 -25 -10 -30 8 -5 8 -11 1 -19 -6 -7 -7 -17 -3 -22 4 -5 -3 -1 -15 9
-14 13 -23 15 -28 7 -5 -8 -11 -8 -19 -1 -7 6 -17 7 -21 3 -5 -4 -5 -1 -1 6 4
6 3 12 -3 12 -5 0 -12 -6 -14 -12 -4 -10 -6 -10 -6 0 -1 7 -6 10 -11 7 -8 -5
-7 -12 2 -23 10 -15 10 -15 -2 -4 -8 7 -15 17 -15 22 0 6 -4 10 -10 10 -5 0
-10 -4 -10 -10 0 -5 -3 -10 -7 -10 -5 0 -7 2 -5 4 1 2 -7 14 -18 26 -11 12
-15 20 -10 18 6 -2 10 2 10 7 0 6 -3 9 -8 7 -4 -1 -6 1 -5 5 2 5 -1 8 -7 8 -5
0 -9 -4 -7 -10 2 -5 -6 -1 -17 9 -21 19 -30 9 -11 -10 7 -7 6 -11 -4 -11 -8 0
-13 3 -11 7 2 3 0 12 -6 20 -6 11 -9 11 -10 3 -1 -7 -2 -17 -3 -22 0 -6 -7
-15 -13 -20 -10 -8 -10 -8 -4 0 6 7 5 18 -1 29 -11 17 -13 17 -30 -4 -10 -11
-18 -16 -17 -11 1 6 1 17 0 25 -1 13 -3 13 -10 0 -6 -8 -8 -17 -5 -21 2 -4 -4
-13 -14 -20 -14 -11 -15 -11 -5 0 9 11 8 19 -4 38 -19 28 -11 42 14 22 9 -8
14 -9 11 -3 -4 6 3 10 17 10 14 0 21 -4 17 -10 -3 -6 3 -4 13 4 17 13 18 13
11 0 -4 -8 2 -4 13 9 12 13 21 19 21 14 0 -5 -6 -15 -12 -23 -11 -12 -10 -12
5 0 10 7 16 19 13 26 -3 7 0 16 6 20 7 5 8 2 3 -7 -7 -11 -5 -11 10 1 15 12
17 12 10 1 -6 -10 -4 -12 5 -6 9 6 11 4 5 -5 -5 -9 -4 -11 3 -6 8 5 10 1 6
-11 -5 -15 -4 -16 5 -3 9 13 11 13 11 0 0 -12 2 -12 9 -2 6 11 10 10 15 -3 4
-11 12 -15 24 -11 14 5 14 3 -2 -9 -11 -8 -15 -15 -9 -15 7 0 15 5 18 10 9 15
28 12 22 -3 -3 -8 3 -13 18 -13 13 0 21 4 18 10 -3 5 -2 6 4 3 5 -3 10 0 10 8
0 8 -4 12 -9 9 -4 -3 -5 2 -2 10 3 9 1 16 -6 16 -6 0 -8 5 -4 11 4 8 9 7 15
-2 5 -8 9 -9 9 -3 0 5 -5 15 -11 21 -8 8 -8 17 1 33 8 15 8 20 1 16 -17 -11
-13 0 6 15 15 12 16 12 8 -1 -6 -12 -5 -13 5 -3 10 9 9 15 -5 29 -10 10 -27
19 -39 20 -11 2 -15 0 -8 -2 6 -3 12 -10 12 -15 0 -6 -6 -7 -12 -3 -10 6 -10
5 -1 -8 7 -8 9 -18 5 -22 -7 -8 -8 -13 -11 -42 0 -8 -5 -13 -11 -9 -5 3 -7 12
-3 20 4 11 -2 15 -22 15 -14 0 -24 4 -21 8 3 5 -1 9 -9 9 -11 0 -12 -4 -4 -13
14 -17 -3 -25 -18 -9 -6 7 -10 15 -7 17 2 3 -3 5 -11 5 -13 0 -13 -2 -1 -16
10 -11 12 -21 6 -31 -8 -13 -10 -12 -10 3 0 10 -7 20 -15 23 -8 4 -12 11 -8
17 4 6 1 7 -7 2 -10 -6 -10 -11 3 -20 10 -7 17 -18 17 -26 0 -11 -2 -11 -10 1
-7 11 -10 11 -10 2 0 -7 -5 -10 -10 -7 -6 4 -8 10 -5 15 4 7 -3 7 -34 1 -2 -1
2 -8 9 -16 7 -8 8 -15 2 -15 -18 0 -33 25 -21 37 8 8 7 13 -2 18 -7 5 -10 4
-5 -3 3 -6 2 -13 -4 -17 -5 -3 -10 -1 -10 5 0 7 -6 10 -14 7 -8 -3 -17 -3 -20
1 -13 13 -35 10 -29 -4 3 -8 0 -14 -7 -14 -7 0 -10 -7 -7 -15 4 -8 2 -17 -2
-20 -12 -7 -21 31 -10 42 6 6 4 10 -5 10 -8 0 -13 -4 -11 -8 3 -4 -2 -10 -11
-13 -25 -10 -27 -7 -13 12 7 9 9 14 5 10 -5 -4 -16 -2 -24 5 -13 9 -14 9 -8 0
5 -9 0 -13 -18 -13 -31 0 -42 -15 -18 -25 29 -13 42 -14 42 -3 0 6 10 3 22 -8
19 -17 21 -17 15 -1 -4 9 -3 17 2 17 10 0 24 -38 22 -60 -2 -12 0 -12 7 -2 7
11 11 10 16 -4 4 -10 0 -24 -9 -35 -15 -16 -15 -18 2 -28 10 -6 13 -11 6 -11
-6 0 -15 5 -18 10 -5 8 -11 7 -21 -1 -9 -7 -14 -8 -12 -3 2 5 -1 9 -7 9 -5 0
-8 -4 -7 -10 2 -5 0 -7 -4 -3 -4 4 -14 2 -22 -4 -18 -16 -42 -19 -39 -6 1 6
-4 13 -12 16 -9 3 -11 0 -6 -8 5 -9 4 -11 -4 -6 -6 4 -9 11 -6 16 3 4 -1 11
-7 13 -10 4 -10 6 0 6 7 1 10 6 6 13 -4 6 -3 9 2 6 11 -6 45 28 36 37 -4 4 -1
5 7 3 7 -2 15 5 16 16 3 17 2 16 -19 -3 -12 -12 -26 -18 -30 -14 -4 4 -4 0 0
-10 5 -14 -7 -24 -19 -14 -2 1 -10 -3 -18 -9 -8 -6 -28 -10 -45 -8 -25 2 -31
-1 -29 -14 2 -10 4 -19 4 -21 1 -3 8 4 16 15 14 18 15 18 8 0 -6 -18 -5 -18
23 0 16 10 26 14 22 9 -4 -4 -2 -15 4 -24 10 -13 10 -14 -2 -3 -21 18 -35 15
-19 -5 12 -15 12 -16 -1 -8 -8 6 -23 10 -32 11 -10 1 -19 2 -20 3 -2 2 -14 4
-27 7 -21 4 -22 3 -10 -13 11 -14 9 -14 -11 2 -14 11 -27 21 -29 22 -1 1 11 1
28 0 17 -1 31 3 31 8 0 6 -9 10 -21 10 -14 0 -27 12 -38 34 -13 24 -20 30 -26
21 -6 -10 -11 -9 -22 6 -14 19 -15 19 -11 -1 2 -12 11 -20 22 -20 10 0 25 -10
33 -22 13 -19 13 -21 -4 -19 -10 2 -24 -2 -32 -8 -11 -8 -13 -8 -8 0 8 13 -26
47 -37 37 -11 -12 -36 -12 -33 0 1 6 -3 11 -10 12 -6 0 -14 3 -17 8 -3 4 -3 5
1 2 3 -3 18 5 31 17 14 13 22 17 17 9 -6 -10 -4 -12 5 -6 8 5 11 4 6 -3 -3 -6
-2 -13 4 -17 14 -9 12 21 -2 33 -20 16 -29 15 -44 -5 -7 -10 -14 -14 -14 -9 0
5 -8 2 -17 -5 -16 -13 -17 -12 -5 3 19 24 -10 68 -42 62 -16 -3 -29 5 -47 29
-13 17 -23 35 -22 38 1 3 -5 6 -13 6 -7 0 -12 -3 -9 -5 3 -3 0 -11 -6 -19 -6
-7 -8 -13 -3 -13 4 0 -3 -11 -17 -26 -15 -16 -18 -23 -7 -19 9 4 19 1 23 -4 3
-6 11 -9 16 -5 6 3 3 12 -8 20 -17 13 -17 14 2 8 16 -5 17 -4 5 5 -11 8 -12
11 -2 11 7 0 10 5 7 11 -4 6 2 5 14 -2 14 -10 17 -15 8 -21 -7 -4 -8 -8 -3 -8
5 0 2 -8 -7 -18 -12 -13 -14 -21 -6 -29 8 -8 7 -13 -3 -18 -7 -5 -10 -5 -6 0
10 11 -11 37 -24 29 -5 -3 -4 -13 4 -22 12 -15 11 -16 -5 -3 -13 10 -15 17 -6
27 16 20 0 17 -25 -3 -12 -10 -15 -11 -9 -3 10 11 9 17 -4 32 -9 10 -12 18 -8
18 4 0 0 9 -9 19 -13 14 -14 21 -5 27 8 5 10 3 4 -6 -6 -9 -4 -11 4 -5 9 5 10
10 2 18 -7 7 -14 7 -24 -1 -8 -7 -17 -8 -21 -4 -11 10 -116 11 -116 0 0 -5 6
-6 13 -2 6 4 9 4 5 -1 -4 -4 -3 -14 4 -22 9 -11 15 -10 37 9 14 13 20 16 13 7
-12 -16 -7 -29 10 -29 5 0 7 4 4 9 -3 5 1 15 10 22 12 10 15 10 12 -1 -2 -8 2
-14 9 -15 14 0 42 -25 28 -25 -4 0 0 -9 9 -19 12 -13 14 -21 6 -26 -6 -4 -9
-1 -8 7 2 7 -2 12 -8 11 -6 -1 -11 6 -10 15 0 9 -3 17 -9 17 -5 0 -10 -12 -9
-26 0 -15 -5 -26 -13 -26 -8 0 -10 4 -3 12 6 7 5 16 -2 23 -17 17 -33 15 -18
-3 7 -8 10 -16 6 -16 -3 -1 -12 -2 -18 -3 -7 -1 -12 -8 -10 -16 3 -11 -1 -10
-16 3 -16 15 -21 15 -30 4 -7 -8 -11 -16 -9 -18 1 -2 0 -2 -3 -1 -3 2 -5 8 -5
13 0 5 -4 8 -10 7 -5 -2 -9 -7 -7 -12 2 -5 -3 -4 -12 3 -10 8 -16 9 -21 1 -3
-5 -3 -10 1 -10 4 0 -1 -9 -11 -20 -10 -11 -14 -20 -10 -20 5 0 4 -5 -3 -12
-9 -9 -8 -16 4 -29 11 -12 12 -19 4 -24 -8 -5 -7 -11 2 -23 12 -15 11 -16 -5
-3 -12 10 -15 17 -7 25 7 7 3 17 -12 33 -18 19 -24 21 -37 10 -14 -10 -14 -10
-4 4 11 13 10 19 -5 33 -18 15 -20 15 -35 -2 -12 -13 -14 -21 -6 -29 8 -8 7
-13 -3 -18 -7 -5 -10 -4 -5 0 4 5 0 17 -10 27 -16 18 -17 18 -40 -4 -13 -12
-24 -18 -24 -15 -1 4 -2 12 -3 17 -1 13 -21 13 -21 1 0 -5 -3 -12 -8 -15 -4
-3 -5 -3 -2 1 9 11 -36 52 -51 46 -8 -3 -11 -9 -8 -14 3 -5 9 -7 14 -4 4 3 13
-2 19 -9 9 -10 9 -16 1 -21 -6 -4 -10 -3 -9 2 4 23 -4 24 -28 2 -15 -13 -22
-17 -15 -8 6 9 9 19 5 22 -3 4 -12 -1 -20 -11 -12 -16 -13 -16 -7 1 4 12 2 17
-7 15 -7 -2 -14 6 -16 17 l-3 20 9 -20 c7 -14 10 -15 10 -5 1 12 3 13 10 1 5
-8 11 -9 15 -3 3 6 -3 13 -14 17 -11 3 -20 11 -20 16 0 12 23 7 35 -9 7 -9 10
-5 12 14 1 17 -2 22 -7 14 -6 -10 -10 -8 -19 7 -5 11 -8 23 -6 27 3 3 2 4 -2
1 -3 -3 -12 0 -19 6 -9 7 -14 6 -20 -3 -4 -7 -4 -10 1 -6 9 9 35 -9 35 -24 0
-6 -8 -4 -17 3 -9 8 -14 9 -10 3 4 -7 0 -15 -9 -18 -11 -4 -13 -10 -7 -19 16
-20 22 -57 9 -54 -6 1 -10 -5 -8 -13 2 -8 0 -11 -5 -7 -4 5 -8 13 -8 19 0 6
-8 12 -17 14 -10 1 -18 -3 -18 -9 0 -7 -5 -5 -10 3 -5 8 -10 20 -10 25 0 6 5
3 10 -5 7 -12 9 -10 7 7 0 12 -5 19 -9 17 -15 -10 -8 8 10 24 10 10 16 16 14
15 -3 -1 -14 2 -26 8 -18 9 -19 8 -6 -3 14 -12 14 -15 -1 -30 -10 -9 -19 -13
-21 -8 -2 4 -10 1 -18 -8 -13 -14 -12 -15 3 -9 18 7 40 -21 35 -45 -2 -6 2
-12 9 -13 6 0 14 -3 18 -7 10 -9 -17 -4 -35 7 -8 5 -24 9 -35 7 l-20 -2 20 9
c18 9 18 10 2 10 -20 1 -50 -23 -41 -32 3 -3 -1 -4 -10 -3 -8 1 -19 6 -23 11
-4 4 -3 5 3 2 7 -4 17 0 24 8 11 13 10 14 -3 10 -8 -4 -18 -1 -23 6 -4 7 -3
10 3 6 6 -4 17 1 24 11 13 15 12 16 -3 3 -19 -15 -25 -2 -7 16 8 8 8 13 0 18
-6 3 -11 3 -10 -2 3 -20 -2 -27 -12 -13 -8 12 -9 10 -4 -9 6 -18 4 -22 -6 -15
-12 7 -12 5 0 -9 11 -14 11 -18 -3 -23 -9 -3 -13 -11 -9 -18 3 -6 -3 -3 -14 7
-21 18 -58 24 -48 7 4 -6 -1 -7 -11 -3 -13 5 -15 3 -9 -7 6 -9 4 -11 -6 -4
-18 11 -71 15 -65 5 3 -4 -1 -8 -9 -8 -8 0 -13 4 -12 8 1 4 -2 7 -8 7 -5 0 -9
-3 -8 -7 1 -4 -4 -8 -12 -8 -8 0 -13 4 -12 8 1 4 -2 7 -8 7 -5 0 -9 -4 -7 -10
1 -5 -2 -7 -8 -3 -6 3 -8 11 -5 16 4 5 2 9 -3 9 -19 0 -21 -14 -5 -34 10 -12
14 -18 9 -14 -5 4 -16 2 -25 -5 -14 -10 -14 -10 -3 4 10 13 10 19 -2 28 -9 7
-13 24 -11 41 3 22 0 27 -12 23 -12 -5 -12 -7 -1 -14 18 -11 0 -27 -37 -32
-17 -3 -29 -10 -27 -16 1 -7 -2 -9 -8 -6 -8 5 -6 12 4 24 13 14 13 20 3 30 -9
10 -8 11 6 6 9 -4 17 -11 17 -16 0 -5 10 -9 23 -8 17 0 18 2 6 7 -9 4 -15 15
-13 24 1 10 -2 21 -7 24 -5 3 -8 0 -7 -7 2 -6 -2 -13 -9 -16 -12 -4 -12 14 0
34 4 6 3 15 -3 18 -6 4 -9 1 -8 -6 2 -8 -6 -13 -19 -14 -12 0 -25 -3 -29 -7
-15 -16 -26 -7 -13 9 8 10 9 14 2 10 -6 -4 -14 -3 -17 1 -3 5 -16 9 -28 8 -13
-1 -26 2 -29 7 -3 5 -9 1 -12 -8 -5 -10 -3 -14 5 -9 7 5 8 3 3 -7 -7 -11 -6
-12 6 -3 17 14 50 14 42 1 -4 -6 -1 -7 7 -2 8 5 11 4 6 -3 -8 -13 22 -31 45
-27 10 2 15 -4 14 -16 -2 -29 -12 -33 -27 -10 -7 12 -17 21 -22 21 -4 0 0 -12
9 -27 10 -16 14 -25 10 -21 -5 4 -15 2 -24 -5 -14 -10 -14 -10 -4 3 6 9 9 21
5 26 -7 11 -16 11 -52 3 -10 -3 -15 4 -15 18 -1 28 -15 43 -16 17 -1 -10 -1
-23 0 -28 1 -5 -5 -4 -13 4 -18 14 -22 0 -5 -17 8 -8 7 -13 -2 -18 -7 -5 -10
-4 -5 3 3 6 2 14 -4 17 -6 4 -8 16 -4 28 6 19 5 20 -9 8 -9 -7 -14 -18 -10
-24 3 -5 1 -7 -5 -3 -6 3 -14 2 -17 -4 -4 -7 -11 -7 -18 -2 -7 5 -20 8 -30 6
-18 -2 -18 -2 -1 17 9 10 12 19 6 19 -6 0 -14 -5 -17 -10 -4 -6 -10 -8 -15 -5
-5 3 -11 1 -15 -5 -4 -6 -11 -7 -17 -4 -7 5 -9 2 -5 -8 5 -16 -15 -19 -29 -6
-3 4 -13 4 -22 1 -12 -4 -11 -1 3 10 20 16 20 16 -2 14 -20 -1 -28 -15 -24
-40 1 -5 -4 -5 -11 -1 -7 5 -19 9 -27 11 -47 7 -60 14 -55 31 5 14 4 14 -4 2
-7 -9 -8 -18 -1 -26 7 -9 5 -12 -8 -10 -21 3 -54 -15 -47 -26 3 -4 -3 -5 -12
-1 -11 4 -15 3 -11 -4 8 -12 -18 -12 -29 0 -4 4 -13 2 -21 -5 -9 -7 -13 -8
-11 -1 2 6 -1 11 -7 11 -5 0 -9 -3 -8 -7 1 -4 -4 -8 -12 -8 -8 0 -13 4 -12 8
1 4 -2 7 -8 7 -5 0 -9 -5 -7 -11 2 -6 -5 -4 -15 5 -10 8 -26 14 -35 13 -10 -2
-21 1 -24 6 -3 6 -11 5 -20 -2 -12 -9 -12 -15 -2 -28 11 -14 11 -14 -3 -4 -9
7 -19 9 -23 5 -4 -4 -6 -2 -4 5 2 6 -1 11 -7 11 -5 0 -9 -4 -8 -8 1 -4 -5 -14
-15 -22 -15 -11 -16 -11 -5 3 7 9 10 19 6 22 -3 4 -12 -1 -19 -11 -10 -14 -10
-20 4 -37 9 -11 13 -17 8 -13 -5 4 -15 3 -21 -2 -9 -7 -17 -3 -29 15 -9 14
-21 23 -26 20 -12 -7 -13 -26 -2 -22 4 1 8 -2 9 -6 1 -5 9 -15 19 -22 23 -17
27 -45 6 -38 -16 4 -16 3 0 -9 15 -13 15 -15 -3 -26 -10 -7 -19 -9 -18 -5 4
26 -2 43 -14 37 -9 -6 -9 -4 -1 7 12 17 12 38 0 42 -5 1 -11 -9 -13 -22 -2
-14 -6 -27 -10 -30 -3 -3 -3 4 0 16 3 13 1 26 -4 29 -8 5 -13 -16 -10 -43 1
-6 -3 -14 -9 -18 -5 -3 -7 0 -5 7 4 9 -2 14 -16 15 -18 2 -19 0 -8 -15 8 -9 9
-14 5 -10 -5 4 -16 2 -24 -5 -10 -7 -13 -8 -9 -1 4 7 -1 18 -10 25 -15 12 -16
12 -10 -4 4 -11 3 -16 -4 -12 -6 4 -8 14 -5 22 4 9 1 13 -6 10 -7 -2 -12 -13
-12 -25 1 -12 -3 -19 -9 -15 -6 4 -8 -2 -5 -15 4 -12 2 -20 -3 -16 -5 3 -9 -2
-9 -10 0 -8 5 -18 10 -21 8 -5 8 -11 1 -19 -7 -9 -7 -16 2 -25 6 -7 8 -12 2
-11 -21 4 -36 0 -31 -9 7 -11 -21 -8 -31 4 -4 4 -3 5 4 1 6 -3 14 -2 17 3 9
14 -20 21 -33 8 -8 -8 -6 -16 7 -31 16 -20 16 -20 -2 -6 -11 8 -21 14 -23 13
-14 -11 -13 1 2 17 10 11 13 20 7 20 -6 0 -18 -10 -28 -22 -11 -16 -15 -17
-11 -5 4 9 3 17 -2 17 -15 0 -20 -13 -11 -30 7 -14 6 -18 -4 -16 -20 3 -46 26
-46 42 0 8 -5 14 -11 14 -8 0 -7 5 2 16 7 9 9 18 3 22 -5 4 -11 31 -12 60 -3
54 11 88 31 75 6 -3 7 -1 3 5 -12 20 -32 13 -44 -13 -14 -31 -16 -175 -2 -207
5 -13 14 -43 20 -67 8 -31 28 -61 67 -103 31 -32 62 -58 70 -58 7 0 13 -4 13
-8 0 -11 121 -81 162 -93 18 -6 139 -13 268 -16 207 -5 1924 -7 3750 -4 338 1
1097 0 1685 -1 1183 -3 1356 -1 1400 17 17 6 35 13 40 15 79 22 121 46 177
102 50 50 120 158 102 158 -4 0 -2 6 4 13 16 19 42 117 42 157 0 53 -36 151
-81 220 -64 100 -97 126 -196 159 -58 20 -84 21 -373 20 -229 0 -310 -4 -310
-12 0 -9 -2 -9 -8 0 -5 7 -26 10 -62 7 -30 -3 -80 -6 -110 -7 -30 -1 -60 -5
-67 -10 -6 -4 -13 -2 -15 5 -4 10 -87 13 -357 15 -272 2 -350 -1 -345 -10 5
-9 3 -9 -7 1 -16 15 -49 16 -49 2 0 -7 -6 -7 -18 -1 -23 12 -754 12 -773 0z
m382 -22 c-10 -9 -11 -8 -5 6 3 10 9 15 12 12 3 -3 0 -11 -7 -18z m1451 12
c16 10 19 10 13 -1 -6 -10 -5 -11 6 0 15 14 33 16 25 3 -8 -13 115 -13 130 0
11 9 14 8 14 -1 0 -8 11 -10 38 -5 61 10 105 7 133 -11 6 -3 15 0 20 7 6 10 9
10 9 2 0 -7 6 -11 13 -9 35 11 77 14 77 6 0 -5 -12 -17 -26 -27 -25 -16 -27
-16 -40 2 -8 10 -14 14 -14 9 0 -6 3 -14 8 -18 4 -4 8 -12 8 -17 1 -5 2 -12 3
-16 0 -4 8 2 16 13 15 19 15 19 8 0 -6 -19 -5 -19 24 2 20 14 34 18 38 12 3
-5 11 -10 17 -10 6 0 5 7 -3 17 -8 9 -9 14 -3 10 7 -4 17 0 24 8 15 18 43 20
38 3 -3 -7 -13 -13 -24 -13 -11 0 -19 -7 -19 -17 0 -10 5 -18 10 -17 6 1 9 5
7 11 -1 5 2 7 8 3 8 -5 8 -11 1 -19 -6 -7 -7 -17 -3 -22 4 -5 -2 -1 -14 9 -27
23 -42 22 -20 -2 14 -16 15 -20 2 -30 -10 -8 -16 -9 -21 -1 -4 6 -3 9 2 8 4
-2 9 2 11 7 1 6 -6 10 -15 10 -10 -1 -17 -6 -16 -11 1 -6 -5 -11 -12 -11 -11
0 -12 4 -4 14 14 16 -3 17 -19 1 -9 -9 -9 -15 0 -27 7 -9 1 -6 -14 7 -17 16
-28 20 -33 12 -5 -7 -11 -8 -19 -1 -9 7 -17 7 -26 -2 -10 -10 -11 -9 -5 2 6
11 4 13 -8 8 -10 -4 -16 -2 -14 5 1 7 -3 12 -10 13 -7 0 -18 7 -25 15 -11 12
-11 12 3 2 21 -15 32 -3 16 17 -11 14 -10 14 5 2 10 -7 15 -17 13 -22 -3 -4 4
-13 15 -19 11 -6 20 -8 20 -5 0 16 -3 20 -13 17 -7 -2 -9 0 -4 4 4 4 0 15 -9
25 -15 16 -14 17 15 13 17 -3 31 -1 31 4 0 14 -143 2 -169 -15 -22 -14 -24
-14 -18 1 5 12 0 16 -19 16 -27 0 -30 -25 -3 -25 8 -1 13 -6 12 -11 -1 -6 4
-11 12 -11 8 0 12 4 9 8 -8 13 15 21 32 11 11 -6 13 -11 5 -16 -6 -4 -11 -2
-11 5 0 7 -3 10 -6 6 -3 -3 1 -16 10 -29 14 -20 20 -18 17 4 -1 8 27 4 34 -5
3 -4 2 -5 -2 -2 -3 3 -12 0 -20 -6 -11 -10 -11 -15 -1 -27 11 -13 11 -14 -2
-7 -19 12 -32 13 -45 4 -6 -4 -17 -3 -25 3 -12 8 -12 9 2 4 10 -3 20 0 24 5 4
7 -5 9 -22 7 -20 -2 -28 -8 -26 -18 3 -12 1 -12 -9 -3 -10 10 -17 9 -32 -4
-10 -10 -17 -13 -15 -8 2 6 -1 10 -7 10 -5 0 -9 -3 -7 -7 1 -5 -1 -7 -5 -5 -5
1 -8 -2 -8 -8 0 -5 3 -9 8 -7 13 4 7 -4 -20 -29 -20 -17 -23 -18 -10 -3 23 28
9 39 -15 11 -11 -12 -9 -6 5 14 24 34 26 49 5 49 -5 0 -7 -4 -3 -9 3 -5 1 -13
-5 -16 -6 -4 -9 -3 -8 2 2 4 -1 9 -7 11 -5 1 -10 -2 -10 -7 0 -5 -4 -13 -8
-18 -5 -4 -7 -1 -5 7 2 8 -2 14 -9 15 -6 0 -15 4 -20 9 -4 5 -3 6 3 3 7 -4 17
0 24 7 6 8 20 13 31 11 10 -2 19 0 19 6 0 5 -5 9 -11 9 -5 0 -8 4 -4 9 3 5 1
13 -5 16 -6 4 -9 2 -8 -3 2 -6 -1 -9 -7 -8 -5 0 -9 4 -7 9 1 4 -1 7 -5 6 -15
-2 -53 13 -49 20 3 4 -6 7 -19 7 -18 0 -21 -3 -14 -12 11 -14 -3 -26 -35 -31
-16 -3 -17 -1 -6 12 7 8 17 12 24 8 6 -3 7 -2 3 2 -9 11 -37 16 -34 7 1 -4 -2
-8 -8 -8 -5 -1 -9 1 -8 5 1 4 -5 8 -12 8 -10 0 -12 -4 -5 -12 5 -7 8 -14 5
-17 -3 -3 2 -11 12 -19 13 -11 15 -11 9 -1 -7 12 -4 12 14 2 18 -10 21 -10 14
2 -6 9 -3 9 11 -2 10 -8 16 -10 12 -3 -8 12 17 12 29 0 4 -4 17 -7 28 -6 20 0
20 1 2 8 -17 6 -17 8 -3 14 8 3 21 -1 27 -9 10 -11 7 -15 -19 -20 -19 -4 -28
-11 -24 -18 4 -6 -1 -5 -10 3 -16 13 -22 8 -17 -14 1 -5 -2 -6 -7 -2 -4 5 -8
13 -8 18 0 5 -4 9 -10 8 -5 -1 -9 -5 -7 -11 1 -5 -2 -7 -8 -3 -6 3 -8 11 -5
16 4 5 2 9 -3 9 -17 0 -22 -13 -10 -29 10 -12 7 -12 -8 2 -11 9 -24 14 -28 10
-4 -5 -6 -1 -4 7 2 8 -2 14 -8 13 -6 -1 -11 4 -11 12 0 8 4 12 9 9 4 -3 8 -1
8 5 0 23 -58 37 -67 15 -5 -13 -33 -7 -45 10 -9 14 -37 16 -45 4 -3 -6 -1 -8
4 -5 12 7 25 -17 16 -27 -11 -11 -24 -6 -17 7 4 6 -2 4 -14 -7 -21 -18 -22
-18 -29 0 -3 11 -10 21 -14 24 -4 3 -4 12 1 20 9 13 10 13 10 0 0 -11 2 -12 8
-2 5 7 31 14 58 15 27 2 54 6 59 9 6 3 45 4 87 3 45 -2 76 1 72 6 -3 5 7 4 21
-3 21 -9 31 -9 47 1z m-600 -8 c-12 -7 -62 -4 -62 5 0 2 17 4 38 4 23 0 32 -3
24 -9z m225 -25 c-2 -6 5 -24 15 -39 15 -20 23 -25 32 -18 7 6 16 8 19 4 11
-11 36 18 30 35 -5 16 -5 16 8 1 20 -23 47 -30 56 -16 5 7 16 13 25 13 11 1
15 -3 11 -10 -4 -6 -8 -20 -8 -31 -1 -11 -6 -19 -13 -17 -16 3 -15 -10 1 -28
10 -12 9 -12 -4 -2 -9 6 -19 9 -22 5 -4 -3 -9 2 -13 11 -3 9 -10 13 -15 10 -5
-3 -6 -11 -2 -17 4 -7 0 -6 -10 2 -9 7 -15 17 -12 21 3 5 0 12 -7 16 -7 4 -10
4 -6 -1 4 -4 2 -15 -5 -23 -8 -10 -8 -13 -1 -9 7 4 14 1 17 -7 4 -10 0 -12
-15 -8 -13 3 -18 11 -15 23 4 15 0 18 -18 17 -13 -1 -22 -5 -19 -9 2 -4 -3
-12 -10 -18 -9 -7 -17 -8 -20 -2 -8 12 -37 8 -34 -5 1 -5 9 -8 18 -7 9 2 10 0
2 -3 -6 -3 -10 -10 -6 -15 3 -5 11 -6 17 -2 20 13 34 11 34 -3 0 -10 -4 -11
-11 -4 -7 7 -18 3 -35 -12 -14 -13 -20 -16 -14 -8 10 11 9 17 -4 32 -16 18
-17 18 -39 -3 -14 -13 -24 -17 -29 -10 -4 7 -1 10 7 9 7 -2 12 3 11 10 -2 6 0
11 5 10 4 -2 8 1 10 7 1 5 -28 10 -68 10 -62 1 -72 -2 -85 -21 -9 -14 -10 -25
-3 -32 6 -6 6 -12 -1 -17 -7 -4 -10 -1 -9 7 2 7 -2 12 -9 11 -7 -2 -10 7 -7
24 l5 27 -23 -19 c-13 -12 -17 -13 -10 -4 12 16 7 29 -10 29 -5 0 -6 -6 -2
-12 5 -9 2 -9 -9 1 -9 7 -17 19 -16 25 0 6 3 6 6 -2 4 -10 8 -10 19 -1 11 9
14 8 14 -2 0 -9 5 -7 12 5 11 19 11 19 24 1 10 -14 14 -15 14 -4 0 12 2 12 10
-1 6 -10 10 -11 10 -2 0 6 -1 14 -2 16 -2 2 6 13 16 25 13 14 31 21 55 21 27
0 32 -3 21 -10 -11 -7 -4 -8 23 -6 23 3 37 0 37 -8 0 -7 -14 -11 -35 -10 -19
1 -38 -3 -41 -8 -4 -6 -9 -6 -14 2 -5 9 -9 8 -13 -2 -3 -10 3 -14 18 -14 13 0
21 4 18 10 -3 5 -1 6 6 2 6 -4 9 -12 6 -17 -4 -5 -1 -9 5 -9 7 0 10 7 6 15 -6
16 28 22 38 6 3 -5 19 -7 36 -6 20 2 28 -1 23 -9 -3 -6 0 -6 8 2 10 9 10 15 1
24 -8 8 -12 9 -12 1 0 -19 -35 -7 -39 13 -3 15 -1 16 12 6 11 -9 17 -10 22 -2
4 6 3 10 -2 9 -4 -1 -11 0 -15 1 -5 1 -14 3 -20 4 -7 1 -12 8 -10 15 1 8 -2
10 -10 5 -14 -9 -107 -8 -146 0 -19 4 -21 2 -13 -8 6 -7 8 -16 4 -19 -3 -4
-12 1 -20 11 -12 16 -13 16 -6 -2 5 -15 3 -17 -8 -10 -8 4 -22 7 -32 6 -9 -2
-16 1 -15 6 2 6 -1 10 -7 10 -5 0 -9 -4 -7 -10 1 -5 -3 -6 -9 -2 -8 4 -9 3 -5
-5 4 -6 12 -9 17 -6 11 7 11 3 3 -20 -5 -13 -8 -14 -15 -3 -7 10 -9 11 -9 0 0
-7 -5 -10 -10 -7 -8 5 -7 12 2 23 12 15 11 16 -4 3 -10 -7 -16 -16 -14 -20 2
-3 0 -17 -5 -30 -7 -18 -12 -21 -23 -12 -7 6 -16 8 -20 4 -4 -4 -4 1 -1 12 6
17 4 16 -13 -4 -13 -17 -21 -20 -27 -12 -5 9 -13 8 -28 -6 -12 -10 -18 -14
-14 -8 4 5 -2 14 -13 20 -20 11 -20 12 -4 26 16 12 17 12 11 -3 -4 -10 -2 -18
4 -18 6 0 9 9 6 20 -3 12 0 20 8 20 8 0 12 -8 9 -22 -4 -21 -4 -22 5 -3 5 11
10 17 12 13 1 -5 3 -12 4 -18 1 -5 3 -13 4 -17 1 -5 6 2 11 14 6 14 17 21 30
20 12 -1 18 -6 16 -14 -3 -7 0 -15 5 -19 7 -4 10 3 8 17 -2 13 0 30 5 37 4 8
3 11 -5 10 -6 -2 -14 4 -16 12 -3 9 -1 11 4 5 15 -18 42 -16 55 5 12 19 22 20
176 18 110 -1 161 -5 159 -12z m-2971 -36 c-7 -8 -12 -28 -11 -43 1 -18 -6
-32 -17 -38 -12 -7 -18 -6 -18 1 0 7 -5 6 -14 -2 -8 -7 -12 -16 -9 -20 2 -5 0
-8 -5 -8 -6 0 -13 7 -16 16 -4 9 -9 14 -13 11 -10 -11 -32 13 -26 29 3 7 9 12
13 9 5 -3 11 -1 15 5 3 5 15 10 26 10 11 0 17 -5 14 -10 -4 -6 -12 -7 -18 -4
-7 4 -8 3 -4 -2 5 -5 12 -9 15 -9 4 0 13 -4 20 -8 12 -8 20 3 27 40 2 10 4 19
5 21 3 3 7 19 9 35 1 8 4 8 11 -3 6 -9 5 -20 -4 -30z m2414 15 c19 0 39 5 43
10 5 6 6 -1 2 -15 l-6 -25 15 25 c10 15 15 19 16 10 0 -13 1 -13 10 0 9 13 10
13 10 0 0 -13 1 -13 11 0 9 12 10 11 6 -8 -3 -12 -1 -20 4 -16 5 3 9 13 10 22
0 14 2 13 9 -3 8 -19 9 -19 9 -1 1 20 1 20 15 1 15 -21 12 -40 -5 -29 -5 3
-16 1 -24 -6 -10 -8 -16 -6 -28 10 l-14 20 -29 -22 c-16 -12 -31 -23 -33 -25
-2 -1 4 -13 15 -25 10 -12 13 -18 7 -14 -8 4 -13 2 -13 -5 0 -7 -7 -21 -17
-31 -17 -19 -5 -26 14 -7 8 8 13 8 18 0 4 -7 1 -10 -7 -9 -7 2 -12 -3 -10 -10
2 -10 -2 -10 -16 -3 -13 7 -23 6 -33 -2 -7 -7 -5 -2 4 10 13 14 15 23 7 28 -8
5 -8 10 0 20 8 10 6 17 -8 27 -10 7 -18 22 -16 33 2 11 -5 28 -14 39 -13 14
-13 17 -2 10 8 -5 31 -9 50 -9z m355 -15 c-8 -9 -12 -19 -9 -23 3 -3 -2 -4
-12 -3 -10 2 -20 9 -22 17 -3 11 -2 12 6 1 7 -11 11 -10 17 5 5 10 8 21 7 25
-1 4 5 5 14 1 13 -5 13 -7 -1 -23z m570 1 c-3 -2 -16 -5 -30 -7 -20 -2 -24 1
-16 10 6 7 8 16 5 19 -4 4 5 1 19 -6 14 -6 24 -14 22 -16z m-628 -14 c-4 -13
-47 -20 -47 -7 0 12 32 30 43 23 4 -3 6 -10 4 -16z m-2599 3 c1 -2 8 -3 15 -4
6 -1 10 -8 8 -16 -2 -8 -4 -20 -5 -27 -1 -7 -5 -16 -9 -19 -4 -4 -2 -13 4 -21
13 -15 33 -18 24 -3 -3 6 -1 10 4 10 16 0 13 -16 -4 -30 -10 -9 -15 -9 -15 -1
0 6 -5 11 -11 11 -7 0 -5 -10 5 -25 9 -14 14 -25 11 -25 -2 0 -17 19 -31 42
-23 36 -24 42 -10 50 23 13 20 27 -9 40 -27 12 -25 28 3 23 9 -2 18 -4 20 -5z
m-976 -22 c-9 -9 -8 -16 4 -29 12 -13 12 -19 3 -25 -7 -4 -10 -3 -6 3 4 6 0
16 -8 23 -12 10 -13 16 -4 26 6 8 14 14 17 14 3 0 1 -5 -6 -12z m26 -5 c-2
-11 2 -17 10 -15 8 1 11 -2 7 -8 -10 -16 -35 8 -28 26 7 20 14 18 11 -3z m543
-12 c-6 -10 -6 -23 0 -32 7 -12 9 -12 9 1 0 13 1 13 10 0 6 -10 10 -11 10 -2
0 19 -4 27 -12 25 -11 -4 -10 15 1 22 5 3 16 -3 23 -13 18 -25 36 -35 48 -27
8 5 7 12 -2 23 -12 15 -11 16 4 4 13 -11 15 -18 6 -31 -8 -13 -23 -17 -72 -15
-73 2 -69 1 -59 17 4 6 8 14 9 17 4 20 18 39 25 34 5 -3 5 -12 0 -23z m-607
11 c3 -5 -1 -9 -9 -9 -8 0 -12 4 -9 9 3 4 7 8 9 8 2 0 6 -4 9 -8z m501 -2 c-3
-5 -16 -10 -28 -9 -20 1 -20 2 3 9 14 4 26 8 28 9 2 1 0 -3 -3 -9z m689 -1
c-2 -4 3 -12 11 -19 12 -10 15 -10 15 1 0 11 2 11 10 -1 9 -13 10 -13 10 0 0
13 1 13 10 0 9 -13 10 -13 10 0 0 13 1 13 10 0 5 -8 10 -10 10 -4 0 6 12 10
27 9 20 -1 29 -8 36 -29 7 -21 12 -25 18 -15 7 12 9 12 9 0 0 -11 4 -9 14 5
14 18 16 17 51 -19 20 -20 31 -38 25 -38 -5 -1 -14 -2 -20 -3 -5 0 -9 -4 -7
-7 1 -4 -7 -16 -17 -28 -13 -14 -23 -18 -31 -11 -6 5 -15 6 -19 2 -4 -4 -13
-7 -19 -7 -7 -1 -11 -6 -10 -11 1 -6 -4 -11 -12 -11 -8 0 -13 3 -12 6 1 3 -2
6 -8 6 -5 0 -9 -4 -7 -8 1 -5 -2 -5 -8 -2 -8 5 -6 13 6 26 9 10 13 19 9 19 -4
0 -1 8 8 18 11 12 13 22 7 32 -5 8 -10 12 -10 8 0 -5 1 -10 3 -12 1 -2 -7 -13
-17 -25 -11 -12 -15 -21 -11 -21 4 0 1 -8 -8 -18 -10 -10 -14 -22 -10 -27 5
-4 2 -5 -5 -1 -11 6 -10 12 3 26 11 12 13 20 5 25 -5 3 -8 10 -5 15 3 5 -5 16
-17 24 -12 9 -17 16 -10 16 7 0 10 5 7 10 -5 8 -12 7 -22 -1 -13 -11 -11 -15
9 -31 13 -9 19 -18 14 -18 -5 0 -3 -6 3 -14 9 -10 7 -17 -6 -27 -16 -13 -17
-12 -5 3 9 11 10 18 2 23 -6 3 -8 11 -5 16 4 5 2 9 -3 9 -17 0 -22 -13 -10
-29 7 -9 8 -13 3 -8 -4 4 -18 -1 -29 -10 -12 -10 -18 -14 -14 -9 4 5 3 15 -2
21 -7 9 -5 17 6 26 10 8 19 13 21 12 1 -2 3 0 3 5 0 4 -4 7 -9 7 -5 0 -13 3
-17 7 -4 4 -14 2 -23 -5 -14 -10 -14 -10 -3 5 9 12 10 18 2 23 -8 5 -7 12 4
24 9 10 13 21 9 24 -10 10 -25 8 -19 -2 3 -5 -1 -14 -9 -21 -11 -9 -12 -16 -5
-25 8 -9 8 -15 0 -20 -6 -4 -10 -3 -9 2 4 22 -3 25 -20 9 -14 -13 -21 -14 -27
-5 -4 7 -3 10 4 5 6 -3 13 -2 17 4 3 5 -2 10 -12 10 -14 0 -12 3 7 13 14 8 24
19 22 26 -1 7 2 10 7 7 5 -3 14 1 21 8 11 14 53 19 44 5z m2345 -7 c5 15 8 13
18 -7 8 -19 8 -23 0 -18 -7 4 -16 8 -22 8 -5 0 -10 7 -11 15 -1 13 0 13 4 0 4
-13 6 -12 11 2z m1028 3 c0 -8 -4 -12 -9 -9 -5 3 -6 10 -3 15 9 13 12 11 12
-6z m-5263 -10 c-4 -8 -11 -12 -16 -9 -6 4 -5 10 3 15 19 12 19 11 13 -6z
m-600 -6 c3 -3 -5 -5 -19 -5 -13 0 -22 3 -19 7 4 8 30 6 38 -2z m1107 -6 c13
-16 12 -17 -3 -4 -10 7 -18 15 -18 17 0 8 8 3 21 -13z m3124 -5 c5 4 5 2 1 -5
-3 -6 -1 -15 4 -18 8 -5 6 -13 -4 -24 -9 -10 -13 -21 -9 -26 5 -4 2 -5 -5 -1
-11 7 -10 11 2 25 9 10 13 21 10 24 -4 4 -12 0 -18 -8 -9 -12 -14 -12 -29 0
-18 13 -17 14 3 20 14 5 20 12 16 23 -5 15 -4 15 7 0 8 -10 18 -14 22 -10z
m-3255 -13 c-7 -8 -9 -15 -5 -15 4 0 2 -6 -4 -13 -6 -8 -7 -18 -3 -22 4 -5 1
-5 -6 -1 -10 6 -10 11 -1 22 6 8 8 14 4 14 -4 0 -2 7 5 15 7 8 15 15 17 15 3
0 0 -7 -7 -15z m4980 11 c0 -2 -8 -10 -17 -17 -16 -13 -17 -12 -4 4 13 16 21
21 21 13z m-2290 -11 c0 -2 -6 -8 -13 -14 -10 -8 -14 -7 -14 2 0 8 6 14 14 14
7 0 13 -1 13 -2z m467 -9 c0 -15 -21 -16 -34 -1 -4 4 -3 5 4 1 6 -3 14 -2 18
4 8 14 12 13 12 -4z m1420 -1 c0 -8 -4 -12 -9 -9 -5 3 -6 10 -3 15 9 13 12 11
12 -6z m-4683 -3 c3 -5 -1 -9 -9 -9 -8 0 -12 4 -9 9 3 4 7 8 9 8 2 0 6 -4 9
-8z m402 -4 c3 -4 -1 -5 -10 -4 -8 1 -18 5 -22 8 -3 4 1 5 10 4 8 -1 18 -5 22
-8z m924 3 c3 -1 -2 -6 -10 -11 -11 -7 -11 -10 -2 -10 7 0 11 -4 7 -10 -5 -8
-45 22 -45 34 0 3 36 1 50 -3z m1521 -8 c13 -16 12 -17 -3 -4 -10 7 -18 15
-18 17 0 8 8 3 21 -13z m369 11 c0 -8 -19 -13 -24 -6 -3 5 1 9 9 9 8 0 15 -2
15 -3z m606 -6 c3 -4 -1 -5 -10 -4 -8 1 -18 5 -22 8 -3 4 1 5 10 4 8 -1 18 -5
22 -8z m440 0 c4 -7 4 -10 -1 -6 -14 13 -37 -13 -25 -28 9 -9 7 -12 -7 -9 -10
2 -20 4 -22 4 -5 1 40 51 45 51 2 0 6 -6 10 -12z m207 -13 c-7 -21 -12 -19
-10 4 0 11 5 18 9 15 4 -3 5 -11 1 -19z m-4528 -5 c4 -6 1 -9 -7 -8 -7 2 -12
-3 -10 -10 1 -8 -2 -11 -8 -7 -8 5 -7 11 1 21 14 17 16 17 24 4z m195 6 c0 -2
-8 -10 -17 -17 -16 -13 -17 -12 -4 4 13 16 21 21 21 13z m2327 -3 c-4 -3 -1
-13 6 -22 11 -14 10 -14 -5 -2 -16 12 -16 31 -1 31 4 0 3 -3 0 -7z m1374 -6
c-6 -8 -7 -18 -3 -23 4 -4 -1 -2 -10 5 -19 14 -25 26 -9 16 5 -3 12 -1 16 5 3
5 9 10 12 10 3 0 0 -6 -6 -13z m141 1 c-9 -9 -9 -15 1 -27 11 -14 10 -14 -6
-2 -13 10 -15 17 -6 27 6 8 14 14 17 14 3 0 1 -5 -6 -12z m420 -7 c-4 -10 -7
-11 -10 -3 -3 10 -7 10 -20 0 -15 -11 -15 -11 -5 3 16 20 43 21 35 0z m-3855
-6 c0 -8 -4 -12 -9 -9 -5 3 -6 10 -3 15 9 13 12 11 12 -6z m3320 0 c0 -8 -4
-12 -9 -9 -5 3 -6 10 -3 15 9 13 12 11 12 -6z m173 9 c0 -8 -19 -13 -24 -6 -3
5 1 9 9 9 8 0 15 -2 15 -3z m-4829 -21 c8 -8 8 -13 0 -18 -7 -3 -10 -1 -9 6 2
7 -2 13 -9 14 -6 0 -14 3 -18 7 -4 3 0 5 9 4 9 -1 21 -7 27 -13z m258 3 c9
-11 9 -16 -1 -22 -7 -4 -10 -4 -6 1 4 4 3 14 -3 22 -6 7 -9 13 -6 13 2 0 10
-6 16 -14z m581 -21 c-6 -8 -5 -16 3 -25 10 -12 9 -12 -6 -1 -12 10 -14 17 -7
26 6 8 5 16 -3 25 -10 12 -9 12 6 1 12 -10 14 -17 7 -26z m568 10 c-3 -3 -9 2
-12 12 -6 14 -5 15 5 6 7 -7 10 -15 7 -18z m893 8 c13 -16 12 -17 -3 -4 -10 7
-18 15 -18 17 0 8 8 3 21 -13z m940 0 c8 -8 8 -13 0 -18 -7 -3 -10 -1 -9 6 2
8 -6 13 -19 14 -12 0 -24 3 -27 6 -4 3 5 5 19 5 13 -1 30 -7 36 -13z m1729 8
c0 -6 -4 -12 -8 -15 -5 -3 -9 1 -9 9 0 8 4 15 9 15 4 0 8 -4 8 -9z m-4583 -16
c0 -6 -6 -12 -12 -12 -6 0 -12 6 -12 12 0 6 6 12 12 12 6 0 12 -6 12 -12z m28
6 c3 -5 2 -12 -3 -15 -5 -3 -9 1 -9 9 0 17 3 19 12 6z m-1101 -9 c3 -5 -1 -9
-9 -9 -8 0 -12 4 -9 9 3 4 7 8 9 8 2 0 6 -4 9 -8z m2917 -5 c-6 -8 -7 -18 -3
-22 4 -5 1 -5 -6 -1 -10 6 -10 11 -1 22 6 8 14 14 16 14 3 0 0 -6 -6 -13z
m-1444 -12 c0 -8 -4 -12 -9 -9 -5 3 -6 10 -3 15 9 13 12 11 12 -6z m670 0 c0
-8 -4 -12 -9 -9 -5 3 -6 10 -3 15 9 13 12 11 12 -6z m-2117 -11 c0 -8 -19 -13
-24 -6 -3 5 1 9 9 9 8 0 15 -2 15 -3z m3409 -7 c8 -10 7 -14 -2 -14 -8 0 -14
6 -14 14 0 7 1 13 2 13 2 0 8 -6 14 -13z m-89 -1 c0 -2 -8 -10 -17 -17 -16
-13 -17 -12 -4 4 13 16 21 21 21 13z m150 0 c0 -3 -4 -8 -10 -11 -5 -3 -10 -1
-10 4 0 6 5 11 10 11 6 0 10 -2 10 -4z m-2490 -22 c0 -8 -19 -13 -24 -6 -3 5
1 9 9 9 8 0 15 -2 15 -3z m65 -4 c3 -5 -5 -14 -17 -20 -23 -11 -23 -11 -3 6
20 16 20 16 -2 11 -13 -3 -25 -2 -27 2 -3 4 6 8 19 9 13 1 27 -3 30 -8z m1441
-5 c-1 -8 -5 -17 -8 -21 -5 -4 -4 16 1 34 3 9 9 -1 7 -13z m-1492 -13 c3 -5
-1 -9 -9 -9 -8 0 -12 4 -9 9 3 4 7 8 9 8 2 0 6 -4 9 -8z m85 -49 c-6 -7 -7
-18 -3 -24 4 -8 3 -9 -4 -5 -7 4 -12 1 -12 -6 0 -10 -2 -10 -9 1 -6 9 -10 10
-14 2 -4 -7 -5 -8 -3 0 1 6 5 10 10 9 16 -3 25 24 13 39 -9 12 -9 13 1 7 7 -4
12 -2 12 6 0 10 3 9 10 -2 5 -9 5 -19 -1 -27z m1271 31 c0 -8 -19 -13 -24 -6
-3 5 1 9 9 9 8 0 15 -2 15 -3z m46 -6 c3 -4 -1 -5 -10 -4 -8 1 -18 5 -22 8 -3
4 1 5 10 4 8 -1 18 -5 22 -8z m829 -19 c-4 -5 -12 -9 -18 -8 -9 0 -8 2 1 6 6
2 9 10 6 15 -4 7 -2 8 5 4 6 -4 9 -12 6 -17z m2185 6 c0 -2 -6 -5 -13 -8 -8
-3 -14 1 -14 8 0 7 6 11 14 8 7 -3 13 -6 13 -8z m-5763 -12 c0 -8 -4 -10 -12
-3 -7 5 -16 6 -20 2 -5 -4 -5 -2 -2 4 9 15 34 13 34 -3z m2903 13 c0 -2 -7 -7
-16 -10 -8 -3 -12 -2 -9 4 6 10 25 14 25 6z m-1549 -33 c13 -17 13 -17 -6 -3
-11 8 -22 16 -24 17 -2 2 0 3 6 3 6 0 17 -8 24 -17z m2049 -18 c-6 -8 -5 -16
3 -25 10 -12 9 -12 -6 -1 -12 10 -14 17 -7 26 6 8 5 16 -3 25 -10 12 -9 12 6
1 12 -10 14 -17 7 -26z m-3390 11 c0 -2 -8 -10 -17 -17 -16 -13 -17 -12 -4 4
13 16 21 21 21 13z m3046 -3 c-2 -3 -8 -5 -13 -5 -4 0 -17 -4 -28 -10 -18 -8
-18 -8 -3 5 15 12 55 21 44 10z m-1663 -27 c11 1 16 -1 12 -4 -4 -4 -10 -7
-13 -7 -4 0 -14 -4 -22 -9 -8 -5 -12 -6 -8 -1 4 4 2 15 -5 24 -10 14 -10 14 3
5 8 -6 23 -10 33 -8z m-1353 -1 c0 -1 -10 -10 -22 -21 -14 -12 -18 -13 -10 -3
6 9 10 18 7 21 -3 2 2 5 10 5 8 0 15 -1 15 -2z m-123 -17 c8 9 12 11 8 4 -4
-7 -1 -21 7 -30 12 -15 11 -16 -4 -3 -10 7 -18 10 -18 6 0 -4 -6 -2 -13 4 -8
6 -16 9 -19 6 -2 -3 -5 2 -5 10 0 14 2 14 15 1 14 -13 17 -13 29 2z m-60 -5
c-4 -3 -1 -13 6 -22 11 -14 10 -14 -5 -2 -16 12 -16 31 -1 31 4 0 3 -3 0 -7z
m1588 -5 c4 -3 2 -9 -3 -12 -5 -3 -15 1 -21 8 -10 11 -9 14 3 12 9 -1 18 -5
21 -8z m1162 5 c-4 -3 -1 -13 6 -22 11 -14 10 -14 -5 -2 -16 12 -16 31 -1 31
4 0 3 -3 0 -7z m-2626 -20 c13 -16 12 -17 -3 -4 -10 7 -18 15 -18 17 0 8 8 3
21 -13z m1400 -17 c-6 -7 -7 -17 -3 -21 4 -5 1 -5 -6 -1 -9 6 -10 11 -3 20 6
7 7 17 3 21 -4 5 -1 5 6 1 9 -6 10 -11 3 -20z m1299 10 c0 -2 -8 -10 -17 -17
-16 -13 -17 -12 -4 4 13 16 21 21 21 13z m-1237 -33 c-3 -7 -6 -13 -8 -13 -2
0 -5 6 -8 13 -3 8 1 14 8 14 7 0 11 -6 8 -14z m20 -18 c-3 -9 -8 -14 -10 -11
-3 3 -2 9 2 15 9 16 15 13 8 -4z m2286 -28 c-2 -1 -13 -9 -24 -17 -19 -14 -19
-14 -6 3 7 9 18 17 24 17 6 0 8 -1 6 -3z m-1776 -264 c-7 -2 -19 -2 -25 0 -7
3 -2 5 12 5 14 0 19 -2 13 -5z m4102 -4 c3 -3 -19 -5 -49 -5 -30 1 -57 3 -60
6 -3 3 19 5 49 5 30 -1 57 -4 60 -6z m55 -11 c0 -5 -9 -4 -20 2 -11 6 -20 12
-20 14 0 2 9 2 20 -1 11 -3 20 -9 20 -15z m60 6 c0 -8 -19 -13 -24 -6 -3 5 1
9 9 9 8 0 15 -2 15 -3z"/>
<path d="M8104 8119 c-2 -4 4 -6 13 -4 10 1 23 -1 29 -6 6 -5 11 -4 11 4 0 14
-45 18 -53 6z"/>
<path d="M8463 8092 c12 -13 21 -25 20 -28 -8 -12 -1 -15 11 -5 10 9 16 9 21
1 5 -8 12 -7 24 4 9 9 27 14 38 12 20 -4 21 0 14 32 -1 2 -13 -5 -28 -15 -38
-26 -68 -21 -68 9 0 6 -12 12 -27 12 l-27 2 22 -24z m28 -9 c13 -16 12 -17 -3
-4 -10 7 -18 15 -18 17 0 8 8 3 21 -13z"/>
<path d="M8170 8107 c0 -2 6 -10 14 -16 11 -9 16 -9 22 1 4 7 4 10 -1 6 -4 -4
-14 -3 -22 3 -7 6 -13 9 -13 6z"/>
<path d="M8226 8088 c3 -5 10 -6 15 -3 13 9 11 12 -6 12 -8 0 -12 -4 -9 -9z"/>
<path d="M8166 8078 c5 -7 9 -19 9 -25 0 -17 19 -18 23 -1 1 7 -7 19 -19 26
-17 11 -20 11 -13 0z"/>
<path d="M8259 8088 c-4 -15 -6 -50 -3 -40 3 6 18 12 33 12 15 0 33 -6 41 -12
12 -11 12 -10 1 5 -8 9 -27 17 -43 17 -17 0 -27 4 -23 10 3 6 4 10 1 10 -3 0
-6 -1 -7 -2z"/>
<path d="M7940 8076 c0 -2 8 -10 18 -17 15 -13 16 -12 3 4 -13 16 -21 21 -21
13z"/>
<path d="M8214 8055 c1 -25 20 -23 23 2 2 15 1 15 -6 -2 l-9 -20 -4 20 -5 20
1 -20z"/>
<path d="M8036 8062 c-3 -5 1 -9 9 -9 8 0 12 4 9 9 -3 4 -7 8 -9 8 -2 0 -6 -4
-9 -8z"/>
<path d="M7536 8078 c-20 -28 -20 -35 -2 -35 9 0 13 8 11 19 -3 12 4 22 18 28
16 6 18 9 5 9 -9 1 -24 -9 -32 -21z"/>
<path d="M7816 8081 c-4 -5 -2 -12 4 -16 6 -4 7 -12 3 -18 -4 -8 -1 -7 9 1 14
11 18 10 26 -4 8 -15 9 -15 15 1 4 9 11 14 16 11 5 -4 8 1 7 9 -2 14 -7 17
-21 14 -20 -5 -32 -4 -42 3 -6 5 -14 5 -17 -1z m74 -5 c0 -2 -6 -9 -14 -15
-11 -9 -16 -9 -22 0 -4 7 -3 9 4 5 6 -3 13 -2 17 4 6 10 15 14 15 6z"/>
<path d="M7457 8046 c-4 -9 -1 -15 6 -13 7 1 11 -6 11 -15 -2 -24 3 -23 17 3
7 13 7 19 1 15 -6 -4 -15 1 -20 10 -8 15 -10 15 -15 0z"/>
<path d="M7630 8048 c0 -6 3 -8 7 -5 3 4 12 2 19 -4 8 -7 14 -6 20 2 4 7 3 9
-4 5 -6 -3 -13 -2 -17 4 -8 14 -25 13 -25 -2z"/>
<path d="M4640 8031 c0 -7 -5 -9 -12 -5 -7 4 -8 3 -4 -5 4 -6 12 -8 18 -5 6 4
14 1 18 -5 5 -9 11 -7 21 5 10 13 10 16 1 10 -7 -4 -19 -2 -27 4 -11 10 -15
10 -15 1z"/>
<path d="M7136 8072 c1 -13 9 -31 18 -41 11 -12 13 -20 5 -28 -8 -8 -8 -13 0
-18 19 -11 30 37 14 62 -13 19 -12 22 4 26 11 2 9 3 -4 2 -13 -1 -23 0 -23 2
0 2 10 8 23 13 20 8 19 9 -9 8 -26 -2 -30 -6 -28 -26z m29 -28 c9 -15 12 -23
6 -20 -11 7 -35 46 -28 46 3 0 12 -12 22 -26z"/>
<path d="M4840 8077 c0 -2 6 -10 14 -16 11 -9 16 -9 22 1 4 7 4 10 -1 6 -4 -4
-14 -3 -22 3 -7 6 -13 9 -13 6z"/>
<path d="M4851 8016 c-9 -11 -9 -16 1 -22 7 -4 10 -4 6 1 -4 4 -3 14 3 22 6 7
9 13 6 13 -2 0 -10 -6 -16 -14z"/>
<path d="M5018 8039 c10 -13 9 -19 -3 -29 -14 -12 -14 -15 1 -32 17 -18 18
-18 39 2 20 18 23 19 35 5 7 -8 9 -15 5 -15 -5 0 -1 -8 8 -18 10 -10 14 -23
10 -27 -5 -5 0 -3 9 4 10 7 16 17 13 21 -3 4 2 13 9 20 12 9 17 7 25 -8 8 -15
7 -23 -3 -31 -14 -12 -16 -42 -3 -41 4 0 10 0 13 0 4 0 0 8 -7 18 -12 15 -11
15 8 -1 14 -13 23 -15 28 -7 5 8 11 8 20 0 9 -7 16 -6 25 5 7 8 9 15 5 15 -4
0 -2 7 5 15 7 8 16 12 21 9 5 -3 6 2 2 11 -5 13 -7 14 -14 3 -7 -10 -9 -9 -9
3 0 22 -26 45 -32 28 -8 -25 -40 -18 -51 11 -10 26 -12 27 -25 12 -13 -16 -13
-16 -8 1 4 14 2 16 -12 9 -29 -14 -79 -8 -103 13 -14 11 -18 13 -11 4z m32
-35 c11 -12 11 -15 -1 -12 -8 2 -13 -3 -11 -9 3 -17 -3 -16 -18 3 -11 12 -11
15 1 12 8 -2 13 3 12 10 -4 16 2 15 17 -4z m85 -6 c4 -4 12 -5 19 -2 7 3 18
-7 26 -21 10 -18 16 -22 22 -13 6 10 8 9 8 -2 1 -12 3 -11 11 3 5 9 14 17 18
17 13 0 21 -39 10 -46 -5 -3 -7 -9 -4 -14 3 -5 1 -11 -4 -14 -5 -4 -13 -2 -16
4 -5 8 -12 7 -23 -2 -12 -10 -14 -10 -8 0 4 7 2 12 -6 13 -10 0 -10 2 0 6 9 3
7 13 -9 34 -17 25 -23 28 -36 17 -15 -12 -50 -22 -39 -11 3 4 -1 14 -9 23 -14
15 -13 17 9 16 14 -1 28 -5 31 -8z"/>
<path d="M5111 7984 c6 -7 16 -11 21 -8 11 7 3 17 -18 20 -12 2 -13 -1 -3 -12z"/>
<path d="M5226 7955 c-3 -9 -10 -14 -14 -11 -5 3 -9 -1 -9 -9 0 -8 3 -13 5
-10 3 3 12 -1 21 -7 9 -7 13 -8 9 -4 -4 5 -4 14 2 20 5 7 5 18 1 25 -6 10 -10
9 -15 -4z"/>
<path d="M4964 8008 l-19 -23 23 19 c21 18 27 26 19 26 -2 0 -12 -10 -23 -22z"/>
<path d="M5026 7921 c-4 -5 -2 -12 3 -15 5 -4 12 -2 15 3 4 5 2 12 -3 15 -5 4
-12 2 -15 -3z"/>
<path d="M6745 7999 c-4 -6 -5 -12 -2 -15 2 -3 7 2 10 11 7 17 1 20 -8 4z"/>
<path d="M3426 8138 c3 -4 -10 -8 -29 -8 -32 0 -34 -2 -34 -35 0 -22 -7 -43
-18 -53 -17 -16 -17 -16 -12 0 3 10 2 20 -4 23 -5 4 -9 3 -8 -2 3 -20 -2 -34
-11 -28 -6 4 -8 10 -5 15 3 4 -3 14 -12 21 -9 8 -14 10 -12 4 6 -11 -20 -38
-40 -43 -6 -1 -14 5 -18 14 -5 13 -7 13 -14 2 -13 -20 -11 -31 5 -25 8 3 22
-3 32 -14 12 -13 21 -16 29 -9 15 12 39 -11 27 -26 -4 -5 5 1 19 13 17 16 28
20 35 13 7 -7 16 -4 29 10 l19 20 32 -31 c20 -19 34 -27 38 -20 4 6 4 11 0 11
-4 0 1 9 11 20 10 11 15 20 10 20 -4 0 -2 7 5 15 7 8 16 13 20 10 5 -3 12 -1
15 5 5 8 11 8 20 0 10 -8 15 -8 20 0 5 8 10 8 20 0 9 -8 15 -8 20 0 3 6 11 7
17 4 7 -5 8 -2 2 7 -5 8 -9 17 -10 22 -1 4 -2 10 -3 13 0 4 -7 1 -15 -5 -11
-10 -19 -7 -35 10 -12 13 -21 26 -21 31 0 4 -10 8 -22 7 -22 0 -22 -1 -3 -9
11 -5 15 -9 8 -9 -6 -1 -19 -4 -29 -8 -11 -4 -15 -3 -10 5 3 6 1 14 -5 18 -7
4 -9 3 -5 -4 3 -6 2 -13 -4 -17 -5 -3 -10 2 -10 12 -1 17 -1 17 -11 1 -5 -10
-15 -18 -21 -18 -7 0 -7 4 1 13 8 10 7 14 -4 14 -8 0 -12 -4 -9 -9z m9 -27 c3
-5 1 -12 -5 -16 -5 -3 -10 0 -10 7 -1 7 -6 3 -13 -10 -7 -12 -16 -20 -19 -16
-4 3 -5 -1 -4 -10 1 -8 6 -19 11 -23 4 -4 5 -3 2 3 -4 8 3 11 22 9 23 -2 28 1
24 14 -4 12 -3 13 5 3 7 -11 10 -11 15 3 5 10 3 14 -5 9 -7 -5 -8 -3 -3 6 5 9
4 11 -3 6 -8 -5 -10 -2 -6 8 6 16 29 17 52 3 7 -5 12 -3 13 5 0 10 2 10 6 1 2
-7 9 -13 14 -13 6 0 7 5 4 10 -13 21 15 9 30 -12 15 -23 21 -24 41 -7 7 5 11
4 11 -4 0 -9 -17 -12 -51 -12 -40 0 -54 -4 -66 -20 -8 -11 -13 -24 -12 -30 2
-5 -2 -4 -9 2 -10 10 -17 9 -32 -4 -14 -13 -18 -14 -15 -3 2 10 -6 14 -27 14
-17 0 -29 -5 -28 -11 2 -7 -6 -10 -17 -8 -11 2 -22 0 -25 -5 -4 -7 -34 -7 -42
0 -2 2 -12 3 -22 4 -11 0 -22 4 -26 8 -4 3 1 5 12 4 24 -4 38 5 23 14 -8 5 -7
9 5 13 9 4 13 3 10 -2 -6 -10 11 -24 32 -27 19 -3 45 33 47 66 1 26 5 30 28
30 15 0 29 -4 33 -9z m-1 -36 c-3 -6 -11 -12 -18 -12 -8 0 -12 6 -10 12 3 6
11 12 18 12 8 0 12 -6 10 -12z m29 -70 c-3 -9 -8 -14 -10 -11 -3 3 -2 9 2 15
9 16 15 13 8 -4z"/>
<path d="M3469 8096 c13 -15 -15 -60 -31 -50 -7 4 -8 2 -4 -5 6 -8 12 -9 20
-2 7 6 15 8 19 5 3 -3 13 5 21 19 12 17 24 23 41 21 14 -1 25 2 25 6 0 5 -12
7 -27 6 -16 -2 -32 -1 -38 2 -20 13 -37 11 -26 -2z m21 -27 c-6 -10 -13 -19
-16 -19 -2 0 0 8 5 19 6 10 7 22 3 26 -4 5 -1 5 6 1 9 -5 9 -12 2 -27z"/>
<path d="M3359 8033 c-13 -16 -12 -17 4 -4 16 13 21 21 13 21 -2 0 -10 -8 -17
-17z"/>
<path d="M2725 8130 c-4 -6 -11 -8 -16 -5 -16 10 -10 -2 9 -16 9 -7 14 -9 10
-5 -4 5 -3 15 3 23 6 7 9 13 6 13 -3 0 -9 -5 -12 -10z"/>
<path d="M3064 8126 c-3 -8 -11 -14 -17 -12 -7 1 -9 1 -4 -1 4 -3 4 -10 1 -15
-4 -7 -2 -8 4 -4 14 8 36 46 27 46 -3 0 -8 -6 -11 -14z"/>
<path d="M3115 8130 c-4 -6 -10 -8 -15 -5 -5 3 -12 0 -16 -7 -4 -7 -4 -10 1
-6 4 4 15 2 24 -4 9 -7 13 -8 9 -4 -4 5 -3 15 3 23 6 7 9 13 6 13 -3 0 -9 -5
-12 -10z"/>
<path d="M4670 8135 c0 -2 6 -8 13 -14 10 -8 14 -7 14 2 0 8 -6 14 -14 14 -7
0 -13 -1 -13 -2z"/>
<path d="M5951 8126 c-9 -11 -9 -16 0 -22 7 -4 9 -3 5 4 -4 7 5 10 29 8 19 -2
35 1 35 6 0 5 -6 8 -12 5 -7 -2 -20 -1 -29 4 -11 6 -21 4 -28 -5z"/>
<path d="M7020 8134 c0 -15 29 -39 37 -30 3 3 0 6 -8 6 -12 0 -12 2 0 9 9 6
10 11 2 15 -6 4 -11 1 -11 -6 0 -9 -3 -9 -10 2 -5 8 -10 10 -10 4z"/>
<path d="M1495 8120 c-3 -5 -2 -10 4 -10 5 0 13 5 16 10 3 6 2 10 -4 10 -5 0
-13 -4 -16 -10z"/>
<path d="M1854 8118 c-4 -7 -3 -10 1 -5 5 4 18 -1 29 -10 21 -18 21 -18 2 5
-22 26 -23 26 -32 10z"/>
<path d="M2605 8121 c-3 -5 -2 -12 3 -15 5 -3 9 1 9 9 0 17 -3 19 -12 6z"/>
<path d="M2650 8126 c0 -2 8 -10 18 -17 15 -13 16 -12 3 4 -13 16 -21 21 -21
13z"/>
<path d="M2748 8118 c-10 -7 -9 -8 2 -5 8 2 24 -3 35 -12 17 -14 18 -14 7 0
-6 9 -10 18 -7 21 9 9 -24 5 -37 -4z"/>
<path d="M3142 8121 c-11 -7 -11 -9 0 -14 9 -3 15 1 15 9 0 8 -1 14 -1 14 -1
0 -7 -4 -14 -9z"/>
<path d="M3255 8110 c10 -11 20 -20 23 -20 3 0 -3 9 -13 20 -10 11 -20 20 -23
20 -3 0 3 -9 13 -20z"/>
<path d="M3999 8113 c-12 -16 -12 -17 2 -6 9 7 20 9 24 5 5 -4 5 -1 1 6 -9 16
-11 15 -27 -5z"/>
<path d="M4256 8118 c3 -5 10 -6 15 -3 13 9 11 12 -6 12 -8 0 -12 -4 -9 -9z"/>
<path d="M5886 8121 c-3 -5 2 -15 12 -22 15 -13 16 -12 4 3 -10 13 -10 17 0
21 9 4 9 6 1 6 -6 1 -14 -3 -17 -8z"/>
<path d="M6205 8121 c-2 -4 8 -12 22 -18 20 -10 22 -9 14 1 -6 7 -9 15 -6 18
3 2 -2 5 -10 5 -9 0 -18 -3 -20 -6z"/>
<path d="M6896 8122 c-3 -5 1 -9 9 -9 8 0 12 4 9 9 -3 4 -7 8 -9 8 -2 0 -6 -4
-9 -8z"/>
<path d="M6950 8122 c0 -15 28 -23 36 -9 4 7 4 9 -1 5 -4 -4 -14 -3 -22 3 -8
7 -13 8 -13 1z"/>
<path d="M3228 8108 c9 -9 9 -15 -1 -27 -11 -14 -10 -14 6 -2 13 10 15 17 6
27 -6 8 -14 14 -17 14 -3 0 -1 -5 6 -12z"/>
<path d="M3654 8106 c1 -8 5 -18 8 -22 4 -3 5 1 4 10 -1 8 -5 18 -8 22 -4 3
-5 -1 -4 -10z"/>
<path d="M4443 8105 c0 -8 4 -12 9 -9 5 3 6 10 3 15 -9 13 -12 11 -12 -6z"/>
<path d="M4480 8116 c0 -2 8 -10 18 -17 15 -13 16 -12 3 4 -13 16 -21 21 -21
13z"/>
<path d="M5050 8116 c0 -2 8 -10 18 -17 15 -13 16 -12 3 4 -13 16 -21 21 -21
13z"/>
<path d="M5730 8116 c0 -2 8 -10 18 -17 15 -13 16 -12 3 4 -13 16 -21 21 -21
13z"/>
<path d="M1379 8077 c-24 -18 -54 -48 -66 -67 -13 -19 -28 -41 -35 -49 -9 -11
-8 -13 3 -9 8 2 19 13 24 24 16 31 87 104 101 104 14 0 29 18 21 26 -2 3 -24
-10 -48 -29z"/>
<path d="M5132 8101 c2 -21 -4 -31 -14 -25 -7 4 -8 3 -4 -4 10 -16 11 -15 29
11 12 19 13 24 2 24 -8 0 -14 -3 -13 -6z"/>
<path d="M5924 8102 c8 -13 -22 -31 -47 -27 -9 2 -15 0 -12 -5 3 -4 -3 -11
-12 -14 -12 -5 -14 -9 -5 -18 16 -16 44 -19 39 -5 -3 7 -10 11 -16 9 -7 -1
-10 2 -6 8 3 6 11 7 17 4 7 -4 8 -2 4 4 -4 7 1 10 14 7 11 -2 20 1 20 6 0 6 5
7 11 3 7 -4 8 -9 1 -13 -5 -3 -12 -15 -15 -26 -4 -18 -5 -17 -6 3 0 13 -5 20
-11 17 -6 -4 -4 -17 6 -36 13 -26 18 -28 31 -18 21 18 40 19 54 3 6 -8 16 -11
23 -7 6 4 19 8 29 9 9 1 19 3 22 4 8 4 24 7 43 9 14 1 15 3 2 11 -9 6 -17 5
-21 -1 -4 -6 -9 -4 -13 6 -9 24 -7 32 4 15 6 -10 10 -11 10 -2 0 6 5 12 11 12
5 0 7 -4 4 -10 -3 -5 -2 -10 4 -10 5 0 13 5 16 10 3 6 11 10 16 10 6 0 7 -4 4
-10 -6 -10 -3 -12 43 -14 15 -1 33 -5 41 -10 9 -6 12 -5 8 1 -4 6 0 16 7 22
11 10 16 8 21 -9 4 -12 10 -19 13 -15 9 9 11 66 2 60 -4 -3 -6 -15 -3 -28 4
-21 3 -21 -11 3 -10 16 -15 19 -16 10 0 -13 -1 -13 -10 0 -9 13 -10 13 -10 0
0 -13 -1 -13 -10 0 -9 13 -10 13 -10 0 0 -13 -1 -13 -10 0 -7 11 -10 11 -10 2
0 -7 -5 -10 -10 -7 -8 5 -7 12 2 23 11 15 11 15 -3 5 -9 -7 -20 -9 -25 -5 -4
4 -2 -2 6 -12 14 -18 13 -19 -3 -13 -10 4 -21 7 -23 7 -3 0 -2 5 2 12 4 7 3 8
-5 4 -6 -4 -9 -12 -6 -17 8 -12 -2 -11 -26 2 -11 6 -17 15 -12 22 4 7 -1 5
-12 -3 -10 -8 -20 -14 -22 -12 -9 6 -23 1 -18 -8 3 -5 2 -10 -4 -10 -5 0 -12
6 -14 13 -4 8 -6 7 -6 -3 -1 -13 -2 -13 -11 0 -7 11 -10 11 -10 2 0 -7 -5 -10
-10 -7 -8 5 -7 12 2 23 11 13 11 14 -2 7 -21 -13 -52 -17 -45 -6 3 5 0 13 -6
17 -8 4 -9 3 -5 -4z m88 -48 c17 -2 31 3 34 11 6 14 28 14 41 1 4 -4 4 -7 -2
-6 -28 6 -36 0 -25 -20 11 -21 11 -22 -17 -24 -10 -1 -23 -5 -29 -9 -7 -4 -17
-1 -23 7 -14 17 -33 15 -55 -3 -11 -9 -16 -10 -16 -2 0 6 5 11 11 11 5 0 8 4
4 10 -3 5 0 18 7 29 9 16 15 17 26 8 8 -6 27 -12 44 -13z m222 -3 c-7 -8 -74
-9 -69 -1 2 3 19 6 39 6 19 0 33 -3 30 -5z"/>
<path d="M5947 8046 c-4 -9 0 -13 11 -11 9 1 24 -4 34 -12 10 -9 18 -11 22 -4
4 5 15 8 26 6 13 -3 17 1 13 12 -4 11 -8 11 -13 3 -5 -8 -10 -9 -14 -2 -4 6
-15 9 -26 7 -11 -2 -22 0 -25 6 -9 13 -22 11 -28 -5z m73 -12 c0 -8 -19 -13
-24 -6 -3 5 1 9 9 9 8 0 15 -2 15 -3z"/>
<path d="M2366 8091 c-3 -5 -20 -7 -37 -6 -19 2 -33 -3 -36 -11 -3 -8 -10 -11
-17 -7 -6 3 -8 3 -4 -1 8 -10 -14 -36 -25 -29 -4 3 -2 12 5 21 11 13 11 14 -2
7 -18 -11 -50 -7 -69 8 -12 10 -13 9 -6 -2 6 -11 4 -13 -9 -8 -13 5 -19 1 -23
-14 -4 -16 -8 -17 -14 -7 -7 10 -9 11 -9 0 0 -7 -5 -10 -10 -7 -6 4 -7 11 -4
17 5 7 2 8 -5 4 -9 -6 -9 -12 3 -25 9 -10 13 -21 10 -24 -4 -4 -13 1 -21 11
-8 9 -12 11 -8 5 4 -8 -1 -13 -11 -13 -26 0 -13 -7 23 -13 24 -4 32 -1 36 13
5 20 51 22 53 3 3 -26 4 -26 19 -7 8 10 15 15 15 10 0 -5 7 -3 15 4 8 7 15 9
15 5 0 -4 7 -2 15 5 20 17 40 3 23 -18 -8 -10 -9 -13 -1 -9 6 4 14 3 18 -3 3
-6 17 1 33 15 25 23 28 24 40 8 9 -13 12 -14 13 -2 0 8 2 24 5 37 3 15 -1 22
-12 22 -8 0 -12 5 -9 10 3 6 4 10 1 10 -3 0 -7 -4 -10 -9z m-46 -21 c0 13 1
13 10 0 9 -13 10 -13 10 0 0 13 1 13 10 0 6 -9 10 -11 10 -3 0 8 7 10 17 6 13
-5 14 -8 3 -11 -8 -3 -22 -15 -32 -26 -9 -12 -17 -17 -18 -12 0 5 -8 2 -17 -5
-10 -7 -15 -9 -11 -5 4 5 3 15 -2 21 -6 7 -7 20 -4 30 5 13 9 14 15 3 7 -10 9
-10 9 2z m-163 -32 c-3 -8 -6 -5 -6 6 -1 11 2 17 5 13 3 -3 4 -12 1 -19z m52
9 c22 6 37 -12 20 -23 -8 -4 -9 -3 -5 4 4 7 1 12 -9 12 -9 0 -13 -4 -10 -10 9
-15 -4 -12 -20 4 -8 7 -11 17 -7 20 4 4 8 3 10 -2 2 -6 11 -8 21 -5z"/>
<path d="M2304 8048 c4 -18 38 -16 43 2 4 13 3 13 -6 0 -10 -13 -11 -13 -11 0
0 12 -2 13 -9 1 -6 -9 -10 -10 -14 -2 -3 7 -5 7 -3 -1z"/>
<path d="M3065 8089 c-3 -4 2 -6 10 -5 21 3 28 13 10 13 -9 0 -18 -4 -20 -8z"/>
<path d="M4466 8092 c-3 -5 1 -9 9 -9 8 0 12 4 9 9 -3 4 -7 8 -9 8 -2 0 -6 -4
-9 -8z"/>
<path d="M5006 8088 c3 -5 10 -6 15 -3 13 9 11 12 -6 12 -8 0 -12 -4 -9 -9z"/>
<path d="M6379 8083 c-13 -16 -12 -17 4 -4 9 7 17 15 17 17 0 8 -8 3 -21 -13z"/>
<path d="M6486 8078 c-11 -15 -16 -18 -16 -8 0 13 -2 13 -10 0 -9 -14 -14 -7
-11 13 1 5 -3 6 -9 2 -6 -3 -8 -11 -4 -16 3 -6 -3 -13 -14 -16 -24 -6 -37 -30
-16 -30 7 0 11 4 8 9 -3 4 -1 8 5 8 5 0 13 -9 16 -20 4 -11 11 -17 17 -14 6 4
5 9 -3 15 -7 4 -11 11 -7 14 3 4 12 0 19 -8 12 -12 17 -10 36 16 13 17 24 28
24 24 1 -4 3 -11 4 -17 1 -5 3 -13 4 -16 0 -4 7 -1 14 5 8 6 16 9 19 6 2 -3 5
2 5 10 0 8 -5 11 -10 8 -7 -4 -8 1 -4 13 7 18 6 18 -6 2 -17 -22 -31 -11 -16
11 6 9 -3 0 -20 -19 -32 -36 -42 -31 -15 8 8 12 13 22 10 22 -3 0 -12 -10 -20
-22z m-12 -35 c4 -10 1 -11 -13 -4 -10 6 -22 7 -26 3 -5 -4 -5 -2 -2 4 9 15
35 13 41 -3z"/>
<path d="M1918 8079 c16 -22 2 -33 -15 -11 -11 13 -13 14 -12 2 3 -28 -1 -41
-10 -36 -5 3 -8 14 -6 24 1 9 0 11 -2 5 -5 -13 -16 -17 -43 -13 -10 1 -9 -3 5
-14 11 -8 15 -16 8 -16 -6 0 -20 8 -29 18 -17 16 -18 16 -11 0 3 -10 2 -18 -3
-18 -6 0 -10 6 -10 13 0 6 -5 4 -11 -6 -7 -12 -14 -15 -22 -8 -8 6 -19 5 -31
-5 -11 -8 -14 -14 -8 -14 7 0 12 -5 12 -11 0 -5 -4 -7 -10 -4 -16 10 -50 15
-49 7 3 -21 -2 -32 -13 -26 -6 4 -17 -1 -25 -11 -10 -15 -13 -15 -13 -4 0 8 6
21 13 29 10 12 9 12 -5 1 -10 -7 -18 -20 -18 -28 0 -8 -5 -11 -10 -8 -6 4 -7
12 -4 18 4 7 3 8 -2 4 -5 -5 -10 -13 -10 -18 -1 -5 -2 -12 -3 -15 0 -4 -8 -1
-17 6 -8 8 -14 9 -13 4 4 -21 -2 -33 -13 -30 -7 1 -10 1 -6 -1 5 -3 3 -13 -3
-24 -7 -14 -7 -19 2 -17 6 2 14 -4 16 -12 4 -12 3 -12 -5 -2 -5 8 -13 14 -18
15 -5 1 -8 9 -7 17 1 13 0 12 -10 -1 -7 -9 -22 -14 -35 -12 -14 2 -21 -1 -17
-7 3 -5 1 -10 -4 -10 -6 0 -11 6 -11 13 0 9 -2 9 -9 -1 -10 -17 -22 -17 -32
-1 -5 8 -1 21 9 34 14 16 14 17 1 7 -9 -6 -19 -10 -22 -7 -4 3 -5 2 -2 -2 3
-3 -7 -15 -22 -25 -17 -11 -22 -18 -13 -18 12 -1 11 -3 -3 -11 -9 -6 -15 -15
-11 -20 3 -5 0 -16 -6 -24 -10 -11 -10 -15 -1 -15 7 0 10 -4 7 -8 -3 -5 1 -9
9 -9 17 0 20 13 5 22 -8 5 -8 11 0 20 6 7 7 15 3 17 -4 3 -2 3 5 2 6 -2 12 4
13 14 0 14 2 14 9 -3 5 -13 3 -25 -6 -35 -8 -9 -10 -21 -5 -29 6 -9 11 -10 15
-2 4 6 4 11 0 11 -3 0 -1 7 6 15 6 8 9 24 5 37 -4 16 -3 19 3 9 8 -11 10 -11
14 0 3 8 4 -10 3 -39 -1 -29 -5 -56 -9 -59 -3 -3 -1 -11 4 -18 7 -8 5 -12 -5
-12 -8 0 -12 3 -10 7 3 4 -4 15 -15 25 -21 19 -29 8 -9 -12 8 -8 2 -10 -24 -6
-40 5 -57 -11 -28 -27 13 -7 22 -7 26 0 6 10 34 8 69 -6 13 -5 17 -4 12 4 -3
6 -2 14 4 17 7 4 8 11 2 18 -11 14 -9 103 2 114 5 4 5 -2 2 -14 -5 -15 -3 -23
4 -23 6 0 9 4 6 9 -3 5 1 14 9 21 13 11 20 9 41 -11 17 -16 24 -19 22 -9 -2 9
4 15 16 15 10 0 22 9 26 20 4 11 13 20 21 20 8 0 13 8 11 16 -1 9 4 22 12 28
11 9 18 7 34 -13 10 -14 22 -23 26 -19 3 3 2 11 -3 17 -5 7 -1 23 10 41 11 17
19 23 19 15 0 -13 2 -13 9 -1 8 12 12 12 24 2 12 -10 18 -8 30 9 14 21 16 21
26 3 10 -17 10 -17 11 0 0 9 -5 17 -11 17 -5 0 -7 5 -3 11 4 7 9 8 13 1 3 -5
18 -8 33 -6 15 1 30 -2 33 -7 3 -5 -1 -6 -9 -3 -9 4 -16 1 -16 -6 0 -10 -3
-10 -15 0 -12 10 -15 9 -15 -4 0 -10 4 -15 9 -11 5 3 13 1 16 -5 5 -8 11 -8
20 0 10 8 15 8 20 0 5 -8 10 -8 20 0 9 8 15 8 20 0 3 -6 10 -8 15 -5 5 3 11 1
15 -5 3 -6 21 0 44 15 22 13 42 21 45 17 4 -3 4 1 1 10 -4 10 3 25 20 40 18
17 22 25 11 25 -8 0 -14 -3 -12 -6 1 -3 -5 -14 -16 -23 -21 -21 -26 -1 -5 21
10 11 9 12 -3 5 -21 -12 -40 -14 -40 -3 0 5 -10 9 -23 9 -13 0 -29 6 -37 13
-12 10 -12 9 -2 -4z m58 -31 c5 -7 3 -8 -7 -3 -12 8 -12 6 0 -8 8 -10 9 -17 3
-17 -6 0 -16 8 -21 18 -6 10 -11 12 -11 4 0 -7 -5 -10 -10 -7 -6 4 -8 11 -5
16 9 13 42 11 51 -3z m-36 -23 c0 4 7 2 15 -5 15 -12 39 -5 30 10 -3 5 -1 11
5 15 9 6 11 1 14 -37 1 -8 -9 -12 -24 -10 -16 2 -20 0 -13 -5 9 -6 7 -12 -7
-20 -15 -10 -21 -8 -34 12 -9 14 -12 25 -6 25 6 0 14 -10 19 -22 l8 -22 5 22
c4 14 2 20 -4 15 -7 -4 -8 -1 -3 8 5 8 5 11 0 7 -4 -4 -17 -3 -28 3 -13 7 -17
8 -13 1 4 -7 -4 -9 -21 -6 -27 5 -27 4 -8 -10 16 -12 18 -17 8 -27 -7 -7 -14
-10 -14 -6 -3 13 -6 27 -9 30 -1 1 -3 10 -5 20 -4 20 6 22 23 5 9 -9 13 -7 18
6 6 16 8 16 25 0 11 -9 19 -14 19 -9z m-190 -36 c-14 -25 -17 -24 -14 4 3 30
3 29 14 22 7 -4 7 -13 0 -26z m168 -15 c-4 -3 -12 5 -18 18 -12 22 -12 22 6 6
10 -10 15 -20 12 -24z m-260 -26 c-2 -6 -10 -13 -16 -14 -7 -1 -8 0 -2 3 5 2
8 9 4 14 -3 5 0 9 6 9 7 0 10 -5 8 -12z m-68 -23 c-6 -8 -8 -20 -4 -27 4 -7 4
-10 -1 -6 -4 4 -14 3 -22 -4 -21 -17 -27 -2 -9 24 9 12 16 18 16 13 0 -5 5 -4
12 3 17 17 23 15 8 -3z m-200 -53 c0 -5 -7 -9 -15 -9 -8 0 -12 4 -9 9 3 4 9 8
15 8 5 0 9 -4 9 -8z m120 -8 c0 -8 -19 -13 -24 -6 -3 5 1 9 9 9 8 0 15 -2 15
-3z m-167 -141 c-7 -2 -19 -2 -25 0 -7 3 -2 5 12 5 14 0 19 -2 13 -5z"/>
<path d="M5464 8079 c1 -7 9 -13 18 -15 11 -1 15 3 11 13 -4 11 -8 12 -13 3
-6 -9 -9 -9 -13 -1 -4 8 -5 8 -3 0z"/>
<path d="M5701 8080 c-7 -4 -23 -6 -37 -4 -13 1 -22 -2 -19 -6 3 -5 1 -11 -5
-15 -5 -3 -10 0 -10 7 0 8 -5 6 -11 -4 -5 -10 -15 -18 -21 -18 -7 0 -7 4 1 13
8 10 7 14 -3 14 -19 0 -13 -27 7 -39 10 -5 14 -15 11 -21 -4 -7 -3 -8 2 -4 5
5 10 13 10 18 3 22 6 23 14 4 7 -17 9 -17 9 -3 1 12 6 15 17 11 12 -5 13 -7 2
-14 -9 -6 -6 -8 9 -6 12 0 20 4 17 8 -2 4 0 10 6 14 9 6 14 -7 11 -27 0 -5 4
-7 10 -5 6 1 14 -4 16 -11 4 -9 -1 -10 -21 -2 -19 7 -26 6 -26 -3 0 -8 -4 -7
-10 3 -9 13 -10 13 -10 0 0 -13 -1 -13 -10 0 -9 13 -10 13 -10 0 0 -12 -2 -12
-9 -2 -7 11 -9 11 -13 0 -5 -11 12 -13 81 -12 l86 1 12 34 c10 29 12 30 12 10
1 -13 4 -21 8 -18 3 4 12 2 19 -4 8 -6 14 -7 18 0 4 6 13 8 21 4 8 -3 15 0 15
5 0 6 -9 9 -20 7 -11 -2 -22 1 -25 6 -4 5 -10 7 -15 4 -10 -6 -7 21 3 31 10
11 8 24 -4 24 -5 0 -7 -4 -4 -10 11 -17 -7 -11 -21 8 -13 16 -14 16 -7 -2 5
-15 3 -17 -8 -10 -8 5 -22 9 -31 10 -10 1 -19 2 -20 4 -9 6 -37 7 -47 0z m47
-10 c1 -2 11 -4 22 -5 11 -1 23 -4 28 -5 4 -1 10 -2 15 -1 4 1 3 -7 -2 -16 -5
-10 -13 -28 -17 -39 -7 -18 -13 -20 -32 -13 -12 5 -30 22 -40 39 -17 30 -34
40 -29 18 1 -7 -5 -11 -13 -9 -8 2 -21 4 -27 4 -10 0 -10 4 -1 14 6 8 17 12
23 9 7 -2 18 -1 25 4 11 7 39 6 48 0z"/>
<path d="M5722 8048 c19 -29 44 -31 46 -4 1 15 -1 17 -7 7 -7 -10 -9 -11 -13
-1 -2 8 -12 14 -22 16 -15 2 -16 0 -4 -18z m22 -4 c3 -8 2 -12 -4 -9 -6 3 -10
10 -10 16 0 14 7 11 14 -7z"/>
<path d="M5660 8056 c0 -2 7 -7 16 -10 8 -3 12 -2 9 4 -6 10 -25 14 -25 6z"/>
<path d="M2116 8068 c3 -5 10 -6 15 -3 13 9 11 12 -6 12 -8 0 -12 -4 -9 -9z"/>
<path d="M2759 8067 c7 -7 7 -15 1 -22 -7 -9 -5 -17 7 -26 16 -12 17 -12 6 2
-7 9 -10 19 -6 23 13 13 11 33 -3 33 -10 0 -11 -4 -5 -10z"/>
<path d="M3102 8075 c4 -4 -1 -19 -12 -32 -23 -29 -17 -61 8 -41 11 9 13 9 9
1 -4 -6 -3 -14 2 -17 13 -8 7 22 -7 36 -9 9 -8 16 4 29 12 14 13 18 2 25 -7 4
-10 4 -6 -1z"/>
<path d="M4760 8059 c-7 -12 -8 -25 -2 -32 10 -14 10 -66 0 -83 -10 -16 -64
-10 -60 6 3 11 0 11 -13 0 -16 -13 -30 -7 -30 12 0 6 -8 12 -19 14 -16 2 -16
0 4 -21 14 -15 18 -25 11 -30 -6 -3 -9 -11 -5 -16 3 -5 10 -7 15 -3 5 3 7 9 5
13 -3 4 4 8 15 8 11 1 23 -5 26 -13 4 -12 8 -12 20 3 8 10 12 13 9 7 -8 -15
30 -49 39 -35 6 10 0 14 -16 13 -3 -1 -6 5 -6 13 0 8 5 11 10 8 6 -3 7 -1 3 5
-7 12 20 10 31 -3 4 -4 3 -5 -4 -1 -13 7 -28 -10 -15 -18 5 -3 22 8 37 25 l29
29 -22 16 c-17 12 -20 19 -13 33 7 12 6 22 -1 29 -7 7 -8 12 -4 12 5 0 3 7 -4
15 -17 20 -27 19 -40 -6z m26 -7 c0 -4 5 -16 9 -26 6 -13 5 -21 -3 -24 -6 -2
-8 -10 -5 -18 3 -7 9 -12 13 -9 4 3 13 -1 19 -9 8 -10 8 -16 -3 -25 -10 -8
-16 -9 -21 -1 -3 6 -10 8 -14 6 -9 -6 -7 51 2 60 10 11 8 26 -2 19 -5 -3 -12
-1 -15 4 -4 5 -2 12 4 16 6 4 7 12 4 18 -4 7 -3 8 2 4 5 -5 9 -12 10 -15z"/>
<path d="M4791 7954 c6 -7 16 -11 21 -8 11 7 3 17 -18 20 -12 2 -13 -1 -3 -12z"/>
<path d="M5309 8078 c-5 -18 -6 -38 -1 -34 7 8 12 36 6 36 -2 0 -4 -1 -5 -2z"/>
<path d="M4193 8055 c0 -8 4 -12 9 -9 5 3 6 10 3 15 -9 13 -12 11 -12 -6z"/>
<path d="M4225 8061 c-3 -5 -2 -12 3 -15 5 -3 9 1 9 9 0 17 -3 19 -12 6z"/>
<path d="M6581 8054 c0 -11 3 -14 6 -6 3 7 2 16 -1 19 -3 4 -6 -2 -5 -13z"/>
<path d="M6601 8054 c0 -11 3 -14 6 -6 3 7 2 16 -1 19 -3 4 -6 -2 -5 -13z"/>
<path d="M6621 8054 c0 -11 3 -14 6 -6 3 7 2 16 -1 19 -3 4 -6 -2 -5 -13z"/>
<path d="M7084 8061 c4 -5 1 -11 -6 -13 -7 -3 -3 -7 10 -10 19 -5 20 -4 11 13
-5 10 -12 19 -15 19 -3 0 -3 -4 0 -9z"/>
<path d="M2065 8039 c-4 -6 -5 -12 -2 -15 2 -3 7 2 10 11 7 17 1 20 -8 4z"/>
<path d="M2429 8048 c0 -2 -3 -15 -5 -30 -4 -22 -1 -26 11 -22 8 3 15 10 15
16 0 5 -4 7 -8 4 -5 -3 -9 2 -9 11 0 13 4 12 17 -5 10 -12 20 -18 24 -15 7 7
-23 43 -36 43 -4 0 -8 -1 -9 -2z"/>
<path d="M6830 8043 c0 -7 -5 -12 -11 -10 -14 3 -21 -31 -8 -39 6 -4 6 -11 -1
-19 -8 -10 -8 -15 1 -21 7 -4 9 -3 5 4 -12 19 15 24 35 6 11 -10 19 -12 19 -6
0 20 2 26 11 45 12 21 32 22 49 2 7 -8 16 -13 20 -10 5 3 12 0 15 -6 4 -5 14
-8 24 -5 13 5 13 4 -2 -8 -14 -11 -15 -15 -3 -19 9 -4 16 2 19 15 4 13 10 17
19 12 10 -6 11 -5 1 8 -7 8 -9 19 -5 24 4 5 -3 1 -15 -9 -21 -18 -22 -18 -38
10 -9 15 -14 20 -11 11 3 -10 0 -20 -6 -24 -6 -4 -8 -3 -5 2 3 6 2 16 -4 24
-5 8 -9 10 -9 5 0 -6 -12 -10 -27 -9 -16 1 -27 6 -26 11 1 5 -5 10 -12 10 -11
0 -12 -4 -4 -14 8 -9 8 -13 1 -13 -6 0 -16 8 -21 18 -6 9 -11 11 -11 5z m15
-34 c0 -8 5 -21 10 -29 8 -13 7 -13 -9 -1 -9 8 -21 22 -26 32 -8 13 -6 17 8
15 9 -2 17 -9 17 -17z m28 -4 c-3 -9 -8 -14 -10 -11 -3 3 -2 9 2 15 9 16 15
13 8 -4z"/>
<path d="M1420 8036 c0 -2 8 -10 18 -17 15 -13 16 -12 3 4 -13 16 -21 21 -21
13z"/>
<path d="M2789 8027 c6 -8 7 -18 3 -22 -4 -5 -1 -5 6 -1 10 6 10 11 1 22 -6 8
-14 14 -16 14 -3 0 0 -6 6 -13z"/>
<path d="M5284 8014 c1 -7 6 -17 10 -21 4 -4 6 -1 4 7 -2 9 3 14 12 12 8 -2
11 0 7 4 -13 14 -35 12 -33 -2z"/>
<path d="M2643 8007 c0 -7 -4 -21 -8 -32 -4 -13 -4 -16 2 -7 10 13 39 12 60
-1 6 -4 15 -3 18 3 5 8 11 8 20 0 7 -6 16 -7 19 -2 6 11 3 36 -7 40 -16 5 -20
1 -9 -10 20 -20 13 -32 -7 -14 -11 10 -22 13 -25 8 -3 -6 -14 -9 -24 -7 -9 2
-21 4 -25 4 -5 1 -6 5 -2 10 3 5 2 12 -3 15 -5 3 -9 0 -9 -7z"/>
<path d="M4339 8013 c-1 -5 -1 -11 0 -15 0 -4 -10 -15 -23 -26 -16 -12 -21
-23 -16 -31 5 -9 10 -10 14 -2 4 6 4 11 -1 11 -4 1 2 6 14 13 21 12 23 15 23
39 0 7 11 -3 25 -22 29 -40 28 -37 11 -37 -8 0 -12 7 -9 16 3 11 0 10 -11 -3
-9 -11 -16 -14 -16 -8 0 7 -5 12 -11 12 -5 0 -8 -3 -6 -7 2 -5 -4 -16 -14 -25
-15 -14 -18 -14 -23 -2 -3 9 -10 12 -16 9 -6 -4 -1 -14 12 -25 23 -18 23 -18
49 7 18 17 29 21 34 13 8 -13 45 15 45 34 0 6 -5 4 -10 -4 -10 -16 -11 -14
-14 30 -1 8 -6 15 -13 15 -6 0 -15 3 -19 8 -4 4 -11 7 -16 7 -4 0 -9 -3 -9 -7z
m11 -76 c0 -2 -10 -12 -22 -23 l-23 -19 19 23 c18 21 26 27 26 19z"/>
<path d="M2510 8001 c0 -6 4 -13 10 -16 6 -3 7 1 4 9 -7 18 -14 21 -14 7z"/>
<path d="M3976 8002 c-3 -6 1 -15 8 -21 8 -7 17 -8 20 -3 3 6 -1 15 -8 21 -8
7 -17 8 -20 3z"/>
<path d="M4571 7988 c-7 -13 -10 -20 -6 -16 5 4 14 3 21 -3 17 -14 26 4 11 25
-11 15 -13 14 -26 -6z"/>
<path d="M5470 7996 c0 -8 4 -17 9 -20 5 -4 7 3 4 14 -6 23 -13 26 -13 6z"/>
<path d="M2773 7977 c0 -12 1 -16 4 -9 3 6 9 12 14 12 6 0 8 -4 5 -9 -4 -5 0
-8 6 -7 16 2 21 13 15 29 -4 9 -6 9 -6 -1 -1 -9 -6 -10 -19 -3 -15 8 -18 5
-19 -12z"/>
<path d="M2995 7993 c11 -3 26 -10 33 -15 9 -8 11 -7 6 6 -4 10 -16 16 -33 15
-20 -1 -22 -2 -6 -6z"/>
<path d="M5446 7983 c-6 -14 -5 -15 5 -6 7 7 10 15 7 18 -3 3 -9 -2 -12 -12z"/>
<path d="M4033 7974 c18 -21 51 -29 44 -10 -3 6 -10 10 -17 8 -7 -1 -20 3 -29
10 -13 10 -13 9 2 -8z"/>
<path d="M4353 7975 c0 -8 4 -12 9 -9 5 3 6 10 3 15 -9 13 -12 11 -12 -6z"/>
<path d="M1357 7973 c-4 -3 -7 -11 -7 -17 0 -6 5 -5 12 2 6 6 9 14 7 17 -3 3
-9 2 -12 -2z"/>
<path d="M4446 7967 c3 -10 9 -15 12 -12 3 3 0 11 -7 18 -10 9 -11 8 -5 -6z"/>
<path d="M4486 7967 c3 -10 9 -15 12 -12 3 3 0 11 -7 18 -10 9 -11 8 -5 -6z"/>
<path d="M1315 7939 c-4 -6 -5 -12 -2 -15 2 -3 7 2 10 11 7 17 1 20 -8 4z"/>
<path d="M1265 7930 c3 -5 8 -10 11 -10 2 0 4 5 4 10 0 6 -5 10 -11 10 -5 0
-7 -4 -4 -10z"/>
<path d="M4685 7910 c3 -5 8 -10 11 -10 2 0 4 5 4 10 0 6 -5 10 -11 10 -5 0
-7 -4 -4 -10z"/>
<path d="M4796 7901 c-4 -5 -2 -12 3 -15 5 -4 12 -2 15 3 4 5 2 12 -3 15 -5 4
-12 2 -15 -3z"/>
<path d="M1623 7855 c0 -7 6 -11 14 -8 7 3 13 6 13 8 0 2 -6 5 -13 8 -8 3 -14
-1 -14 -8z"/>
<path d="M1359 7813 c-13 -16 -12 -17 4 -4 16 13 21 21 13 21 -2 0 -10 -8 -17
-17z"/>
<path d="M1399 7807 c-1 -4 -2 -10 -3 -14 -1 -5 -5 -13 -9 -20 -4 -6 -3 -14 2
-17 10 -6 25 43 16 52 -3 3 -6 2 -6 -1z"/>
<path d="M1330 7756 c0 -2 7 -7 16 -10 8 -3 12 -2 9 4 -6 10 -25 14 -25 6z"/>
<path d="M8375 6319 c-52 -5 -46 -6 45 -8 58 -2 124 -4 148 -5 23 -1 39 1 35
5 -11 10 -155 15 -228 8z"/>
<path d="M1570 6310 c0 -5 6 -10 14 -10 8 0 18 5 21 10 3 6 -3 10 -14 10 -12
0 -21 -4 -21 -10z"/>
<path d="M4323 6313 c9 -2 23 -2 30 0 6 3 -1 5 -18 5 -16 0 -22 -2 -12 -5z"/>
<path d="M7968 6313 c7 -3 16 -2 19 1 4 3 -2 6 -13 5 -11 0 -14 -3 -6 -6z"/>
<path d="M8020 6316 c0 -2 9 -6 20 -9 11 -3 18 -1 14 4 -5 9 -34 13 -34 5z"/>
<path d="M8163 6313 c9 -2 25 -2 35 0 9 3 1 5 -18 5 -19 0 -27 -2 -17 -5z"/>
<path d="M8233 6313 c9 -2 23 -2 30 0 6 3 -1 5 -18 5 -16 0 -22 -2 -12 -5z"/>
<path d="M8288 6313 c7 -3 16 -2 19 1 4 3 -2 6 -13 5 -11 0 -14 -3 -6 -6z"/>
<path d="M8635 6310 c-3 -6 1 -7 9 -4 18 7 21 14 7 14 -6 0 -13 -4 -16 -10z"/>
<path d="M8695 6290 c3 -5 12 -7 20 -3 21 7 19 13 -6 13 -11 0 -18 -4 -14 -10z"/>
<path d="M8758 6273 c7 -3 16 -2 19 1 4 3 -2 6 -13 5 -11 0 -14 -3 -6 -6z"/>
<path d="M1445 6260 c-3 -5 -2 -10 4 -10 5 0 13 5 16 10 3 6 2 10 -4 10 -5 0
-13 -4 -16 -10z"/>
<path d="M8798 6253 c7 -3 16 -2 19 1 4 3 -2 6 -13 5 -11 0 -14 -3 -6 -6z"/>
<path d="M8834 6225 c11 -8 24 -15 30 -15 5 0 1 7 -10 15 -10 8 -23 14 -29 14
-5 0 -1 -6 9 -14z"/>
<path d="M1310 5656 c0 -2 8 -10 18 -17 15 -13 16 -12 3 4 -13 16 -21 21 -21
13z"/>
<path d="M1584 5402 c-10 -2 -32 -10 -49 -17 -16 -7 -45 -18 -64 -26 -49 -18
-173 -146 -203 -210 -35 -73 -52 -151 -45 -210 3 -27 25 -87 47 -134 59 -119
133 -183 265 -226 32 -11 503 -14 2500 -16 1353 -1 2937 -2 3520 -3 584 -1
1079 1 1100 5 40 6 160 60 181 81 7 6 25 21 41 35 67 56 143 204 143 277 0 52
-25 142 -52 191 -13 23 -46 65 -73 93 -131 133 -211 155 -575 157 -489 4
-6718 6 -6736 3z"/>
<path d="M1593 4453 c9 -2 25 -2 35 0 9 3 1 5 -18 5 -19 0 -27 -2 -17 -5z"/>
<path d="M2033 4453 c15 -2 39 -2 55 0 15 2 2 4 -28 4 -30 0 -43 -2 -27 -4z"/>
<path d="M2133 4453 c9 -2 23 -2 30 0 6 3 -1 5 -18 5 -16 0 -22 -2 -12 -5z"/>
<path d="M2578 4453 c18 -2 45 -2 60 0 15 2 0 4 -33 4 -33 0 -45 -2 -27 -4z"/>
<path d="M2883 4453 c31 -2 83 -2 115 0 31 2 5 3 -58 3 -63 0 -89 -1 -57 -3z"/>
<path d="M3208 4453 c34 -2 88 -2 120 0 31 2 3 3 -63 3 -66 0 -92 -1 -57 -3z"/>
<path d="M3638 4453 c34 -2 90 -2 125 0 34 2 6 3 -63 3 -69 0 -97 -1 -62 -3z"/>
<path d="M3888 4453 c7 -3 16 -2 19 1 4 3 -2 6 -13 5 -11 0 -14 -3 -6 -6z"/>
<path d="M4013 4453 c54 -2 139 -2 190 0 51 1 7 3 -98 3 -104 0 -146 -2 -92
-3z"/>
<path d="M4853 4453 c9 -2 25 -2 35 0 9 3 1 5 -18 5 -19 0 -27 -2 -17 -5z"/>
<path d="M4958 4453 c12 -2 32 -2 45 0 12 2 2 4 -23 4 -25 0 -35 -2 -22 -4z"/>
<path d="M5053 4453 c15 -2 39 -2 55 0 15 2 2 4 -28 4 -30 0 -43 -2 -27 -4z"/>
<path d="M5178 4453 c12 -2 32 -2 45 0 12 2 2 4 -23 4 -25 0 -35 -2 -22 -4z"/>
<path d="M5975 4450 c3 -5 8 -10 11 -10 2 0 4 5 4 10 0 6 -5 10 -11 10 -5 0
-7 -4 -4 -10z"/>
<path d="M6123 4453 c70 -2 184 -2 255 0 70 1 12 3 -128 3 -140 0 -198 -2
-127 -3z"/>
<path d="M6918 4453 c7 -3 16 -2 19 1 4 3 -2 6 -13 5 -11 0 -14 -3 -6 -6z"/>
<path d="M6963 4453 c9 -2 23 -2 30 0 6 3 -1 5 -18 5 -16 0 -22 -2 -12 -5z"/>
<path d="M7183 4453 c86 -2 228 -2 315 0 86 1 15 3 -158 3 -173 0 -244 -2
-157 -3z"/>
<path d="M8158 4453 c18 -2 45 -2 60 0 15 2 0 4 -33 4 -33 0 -45 -2 -27 -4z"/>
<path d="M8563 4453 c15 -2 37 -2 50 0 12 2 0 4 -28 4 -27 0 -38 -2 -22 -4z"/>
<path d="M8640 4450 c0 -6 7 -10 15 -10 8 0 15 2 15 4 0 2 -7 6 -15 10 -8 3
-15 1 -15 -4z"/>
<path d="M1528 4433 c7 -3 16 -2 19 1 4 3 -2 6 -13 5 -11 0 -14 -3 -6 -6z"/>
<path d="M8688 4433 c6 -2 18 -2 25 0 6 3 1 5 -13 5 -14 0 -19 -2 -12 -5z"/>
<path d="M8741 4417 c2 -2 20 -14 39 -26 l35 -23 -30 26 c-16 14 -34 26 -39
26 -5 0 -7 -1 -5 -3z"/>
<path d="M1445 4400 c-3 -5 -2 -10 4 -10 5 0 13 5 16 10 3 6 2 10 -4 10 -5 0
-13 -4 -16 -10z"/>
<path d="M1406 4374 c-11 -7 -18 -16 -15 -18 2 -2 13 2 23 10 11 7 18 16 15
18 -2 2 -13 -2 -23 -10z"/>
<path d="M1242 4140 c0 -14 2 -19 5 -12 2 6 2 18 0 25 -3 6 -5 1 -5 -13z"/>
<path d="M1222 4060 c0 -14 2 -19 5 -12 2 6 2 18 0 25 -3 6 -5 1 -5 -13z"/>
<path d="M1221 4014 c0 -11 3 -14 6 -6 3 7 2 16 -1 19 -3 4 -6 -2 -5 -13z"/>
<path d="M1625 3522 c-97 -31 -208 -97 -276 -164 -74 -73 -87 -93 -114 -182
-62 -204 102 -447 348 -512 44 -12 611 -14 3554 -14 l3501 0 84 35 c207 87
294 208 292 406 -1 129 -29 195 -124 288 -71 71 -133 107 -241 141 l-64 21
-3460 -3 c-2765 -2 -3468 -6 -3500 -16z"/>
<path d="M2730 1924 c-30 -9 -71 -19 -92 -25 -20 -5 -52 -25 -71 -44 -69 -69
-67 -47 -67 -613 0 -292 4 -521 9 -535 13 -35 68 -95 111 -122 80 -50 243 -51
330 -1 115 66 160 161 160 336 l0 80 -94 0 -94 0 -4 -96 c-4 -96 -4 -97 -41
-130 -57 -53 -116 -41 -167 33 l-25 36 -3 405 c-2 223 -1 420 3 438 13 71 124
97 182 42 42 -39 53 -71 53 -158 l0 -82 95 4 95 3 0 116 c0 101 -3 121 -24
165 -30 62 -48 82 -115 127 -49 34 -59 37 -120 36 -36 0 -91 -7 -121 -15z"/>
<path d="M4060 1646 c0 -162 -3 -301 -6 -310 -10 -27 -19 -18 -33 32 -7 26
-17 56 -21 67 -5 11 -16 49 -24 85 -9 36 -38 134 -66 219 -27 84 -50 160 -50
167 0 11 -22 14 -100 14 l-100 0 0 -652 0 -653 72 3 c40 2 77 7 82 12 9 9 11
92 14 488 2 262 11 286 48 141 24 -94 156 -494 181 -549 28 -61 41 -70 97 -69
28 1 62 4 75 8 l24 6 3 643 4 642 -100 0 -100 0 0 -294z"/>
<path d="M5180 1920 c-20 -20 -20 -33 -20 -625 l0 -605 85 0 85 0 2 257 3 257
108 -3 c73 -2 113 1 123 9 10 9 14 37 14 111 l0 98 -121 3 -121 3 -2 145 c0
80 -4 152 -9 160 -6 13 16 15 175 15 l183 0 0 88 c0 74 -2 90 -17 98 -9 5
-118 9 -242 9 -213 0 -227 -1 -246 -20z"/>
<path d="M6540 1920 c-20 -20 -20 -33 -20 -649 0 -583 1 -629 17 -635 9 -4 52
-10 95 -13 l78 -6 0 662 0 661 -75 0 c-62 0 -79 -4 -95 -20z"/>
<path d="M3280 1250 l0 -670 76 0 c41 0 83 4 92 9 20 10 19 -23 15 859 l-3
472 -90 0 -90 0 0 -670z"/>
<path d="M4456 1388 c-3 -293 -8 -577 -11 -632 l-6 -98 68 6 c37 3 138 8 223
12 85 3 166 7 180 9 14 1 35 3 48 4 21 1 22 5 22 96 l0 95 -177 2 -178 3 0
160 c0 115 3 159 11 158 7 -1 66 -5 133 -9 l121 -7 0 106 0 107 -135 0 -135 0
-1 73 c0 39 -1 117 -2 172 l-2 100 188 3 187 2 0 85 0 85 -265 0 -264 0 -5
-532z"/>
<path d="M5840 1307 l0 -613 213 -13 c116 -8 230 -14 252 -15 l40 -1 5 97 5
96 -140 5 c-77 2 -156 9 -175 15 l-35 12 3 515 3 515 -86 0 -85 0 0 -613z"/>
<path d="M6937 1906 c-3 -7 1 -31 8 -52 8 -22 14 -49 15 -60 0 -24 32 -129 54
-177 8 -18 24 -59 35 -92 11 -34 37 -92 56 -130 19 -39 35 -78 35 -87 0 -27
-28 -107 -65 -183 -45 -93 -105 -275 -116 -350 -4 -33 -17 -79 -29 -102 -35
-73 -33 -74 76 -71 l97 3 14 50 c8 28 19 58 24 67 5 10 9 25 9 33 0 8 5 24 10
35 6 11 15 29 20 40 6 11 10 29 10 40 0 11 4 28 9 38 5 9 13 28 19 42 5 14 14
37 21 53 14 34 22 34 43 -1 21 -35 138 -385 138 -412 0 -11 7 -19 18 -19 9 -1
50 -4 90 -7 46 -4 78 -2 84 4 7 7 5 28 -7 69 -9 32 -21 74 -26 93 -5 19 -20
76 -34 125 -14 50 -32 115 -40 145 -8 31 -23 74 -34 95 -11 22 -29 66 -42 97
-12 31 -33 68 -47 83 -26 28 -26 29 9 97 5 10 9 26 9 36 0 10 9 28 20 40 11
12 20 26 20 32 0 10 20 50 30 60 14 14 37 74 55 145 7 28 22 84 34 125 31 114
33 110 -49 110 -77 0 -103 -15 -116 -65 -8 -31 -60 -135 -96 -191 -29 -46 -68
-65 -68 -34 0 11 -4 22 -10 25 -5 3 -10 14 -10 23 -1 29 -68 196 -88 220 -18
19 -30 22 -100 22 -59 0 -81 -4 -85 -14z"/>
</g>
</svg>
